<?xml version="1.0" encoding="UTF-8" standalone="no"?>
<svg
   xmlns:dc="http://purl.org/dc/elements/1.1/"
   xmlns:cc="http://creativecommons.org/ns#"
   xmlns:rdf="http://www.w3.org/1999/02/22-rdf-syntax-ns#"
   xmlns:svg="http://www.w3.org/2000/svg"
   xmlns="http://www.w3.org/2000/svg"
   viewBox="0 0 406.71997 165.43999"
   height="165.43999"
   width="406.71997"
   xml:space="preserve"
   id="svg2"
   version="1.1"><metadata
     id="metadata8"><rdf:RDF><cc:Work
         rdf:about=""><dc:format>image/svg+xml</dc:format><dc:type
           rdf:resource="http://purl.org/dc/dcmitype/StillImage" /></cc:Work></rdf:RDF></metadata><defs
     id="defs6"><clipPath
       id="clipPath18"
       clipPathUnits="userSpaceOnUse"><path
         style="clip-rule:evenodd"
         id="path16"
         d="M 0,0 H 1270.8333 V 515.52667 H 0 Z" /></clipPath><clipPath
       id="clipPath30"
       clipPathUnits="userSpaceOnUse"><path
         style="clip-rule:evenodd"
         id="path28"
         d="M 0,0 H 1270.8333 V 515.52667 H 0 Z" /></clipPath></defs><g
     transform="matrix(0.31999998,0,0,0.31999998,0,2.1359998e-6)"
     id="g10"><g
       id="g12"><g
         clip-path="url(#clipPath18)"
         id="g14"><g
           transform="scale(2.9972482)"
           id="g20"><path
             id="path22"
             style="fill:#ffffff;fill-opacity:1;fill-rule:nonzero;stroke:none"
             d="M 0,0 H 424 V 172 H 0 Z" /></g></g></g><g
       id="g24"><g
         clip-path="url(#clipPath30)"
         id="g26"><g
           transform="matrix(2.9972482,0,0,2.9972482,1.4986241,1.4986241)"
           id="g32"><path
             id="path34"
             style="fill:none;stroke:#000000;stroke-width:1;stroke-linecap:butt;stroke-linejoin:miter;stroke-miterlimit:10;stroke-dasharray:none;stroke-opacity:1"
             d="m 102,31 h 33.63" /><path
             id="path36"
             style="fill:#000000;fill-opacity:1;fill-rule:nonzero;stroke:none"
             d="m 140.88,31 -7,3.5 1.75,-3.5 -1.75,-3.5 z" /><path
             id="path38"
             style="fill:none;stroke:#000000;stroke-width:1;stroke-linecap:butt;stroke-linejoin:miter;stroke-miterlimit:10;stroke-dasharray:none;stroke-opacity:1"
             d="m 140.88,31 -7,3.5 1.75,-3.5 -1.75,-3.5 z" /><path
             id="path40"
             style="fill:none;stroke:#000000;stroke-width:1;stroke-linecap:butt;stroke-linejoin:miter;stroke-miterlimit:10;stroke-dasharray:none;stroke-opacity:1"
             d="M 82,41 V 74.629997" /><path
             id="path42"
             style="fill:#000000;fill-opacity:1;fill-rule:nonzero;stroke:none"
             d="m 82,79.879997 -3.5,-7 3.5,1.75 3.5,-1.75 z" /><path
             id="path44"
             style="fill:none;stroke:#000000;stroke-width:1;stroke-linecap:butt;stroke-linejoin:miter;stroke-miterlimit:10;stroke-dasharray:none;stroke-opacity:1"
             d="m 82,79.879997 -3.5,-7 3.5,1.75 3.5,-1.75 z" /></g><g
           transform="matrix(2.9972482,0,0,2.9972482,227.79086,71.93396)"
           id="g46"><text
             id="text50"
             style="font-variant:normal;font-weight:normal;font-size:12px;font-family:Helvetica;-inkscape-font-specification:Helvetica;writing-mode:lr-tb;fill:#000000;fill-opacity:1;fill-rule:nonzero;stroke:none"
             transform="translate(0.21875,11)"><tspan
               id="tspan48"
               y="0"
               x="0">x</tspan></text>
<text
             id="text54"
             style="font-variant:normal;font-weight:normal;font-size:10px;font-family:Helvetica;-inkscape-font-specification:Helvetica;writing-mode:lr-tb;fill:#000000;fill-opacity:1;fill-rule:nonzero;stroke:none"
             transform="translate(6.21875,14)"><tspan
               id="tspan52"
               y="0"
               x="0">0</tspan></text>
</g><g
           transform="matrix(2.9972482,0,0,2.9972482,1.4986241,1.4986241)"
           id="g56"><path
             id="path58"
             style="fill:none;stroke:#000000;stroke-width:1;stroke-linecap:butt;stroke-linejoin:miter;stroke-miterlimit:10;stroke-dasharray:none;stroke-opacity:1"
             d="m 182,31 h 33.63" /><path
             id="path60"
             style="fill:#000000;fill-opacity:1;fill-rule:nonzero;stroke:none"
             d="m 220.88,31 -7,3.5 1.75,-3.5 -1.75,-3.5 z" /><path
             id="path62"
             style="fill:none;stroke:#000000;stroke-width:1;stroke-linecap:butt;stroke-linejoin:miter;stroke-miterlimit:10;stroke-dasharray:none;stroke-opacity:1"
             d="m 220.88,31 -7,3.5 1.75,-3.5 -1.75,-3.5 z" /><path
             id="path64"
             style="fill:none;stroke:#000000;stroke-width:1;stroke-linecap:butt;stroke-linejoin:miter;stroke-miterlimit:10;stroke-dasharray:none;stroke-opacity:1"
             d="M 162,41 V 74.629997" /><path
             id="path66"
             style="fill:#000000;fill-opacity:1;fill-rule:nonzero;stroke:none"
             d="m 162,79.879997 -3.5,-7 3.5,1.75 3.5,-1.75 z" /><path
             id="path68"
             style="fill:none;stroke:#000000;stroke-width:1;stroke-linecap:butt;stroke-linejoin:miter;stroke-miterlimit:10;stroke-dasharray:none;stroke-opacity:1"
             d="m 162,79.879997 -3.5,-7 3.5,1.75 3.5,-1.75 z" /></g><g
           transform="matrix(2.9972482,0,0,2.9972482,470.56796,71.93396)"
           id="g70"><text
             id="text74"
             style="font-variant:normal;font-weight:normal;font-size:12px;font-family:Helvetica;-inkscape-font-specification:Helvetica;writing-mode:lr-tb;fill:#000000;fill-opacity:1;fill-rule:nonzero;stroke:none"
             transform="translate(0.671875,11)"><tspan
               id="tspan72"
               y="0"
               x="0">x</tspan></text>
<text
             id="text78"
             style="font-variant:normal;font-weight:normal;font-size:8.32999992px;font-family:Helvetica;-inkscape-font-specification:Helvetica;writing-mode:lr-tb;fill:#000000;fill-opacity:1;fill-rule:nonzero;stroke:none"
             transform="translate(6.671875,14)"><tspan
               id="tspan76"
               y="0"
               x="0">1</tspan></text>
</g><g
           transform="matrix(2.9972482,0,0,2.9972482,1.4986241,1.4986241)"
           id="g80"><path
             id="path82"
             style="fill:none;stroke:#000000;stroke-width:1;stroke-linecap:butt;stroke-linejoin:miter;stroke-miterlimit:10;stroke-dasharray:none;stroke-opacity:1"
             d="m 262,31 h 33.63" /><path
             id="path84"
             style="fill:#000000;fill-opacity:1;fill-rule:nonzero;stroke:none"
             d="m 300.88,31 -7,3.5 1.75,-3.5 -1.75,-3.5 z" /><path
             id="path86"
             style="fill:none;stroke:#000000;stroke-width:1;stroke-linecap:butt;stroke-linejoin:miter;stroke-miterlimit:10;stroke-dasharray:none;stroke-opacity:1"
             d="m 300.88,31 -7,3.5 1.75,-3.5 -1.75,-3.5 z" /><path
             id="path88"
             style="fill:none;stroke:#000000;stroke-width:1;stroke-linecap:butt;stroke-linejoin:miter;stroke-miterlimit:10;stroke-dasharray:none;stroke-opacity:1"
             d="M 242,41 V 74.629997" /><path
             id="path90"
             style="fill:#000000;fill-opacity:1;fill-rule:nonzero;stroke:none"
             d="m 242,79.879997 -3.5,-7 3.5,1.75 3.5,-1.75 z" /><path
             id="path92"
             style="fill:none;stroke:#000000;stroke-width:1;stroke-linecap:butt;stroke-linejoin:miter;stroke-miterlimit:10;stroke-dasharray:none;stroke-opacity:1"
             d="m 242,79.879997 -3.5,-7 3.5,1.75 3.5,-1.75 z" /></g><g
           transform="matrix(2.9972482,0,0,2.9972482,704.35333,74.931206)"
           id="g94"><text
             id="text98"
             style="font-variant:normal;font-weight:normal;font-size:12px;font-family:Helvetica;-inkscape-font-specification:Helvetica;writing-mode:lr-tb;fill:#000000;fill-opacity:1;fill-rule:nonzero;stroke:none"
             transform="translate(0.328125,11)"><tspan
               id="tspan96"
               y="0"
               x="0 3.3339844 6.6679688 10.001953">....</tspan></text>
</g><g
           transform="matrix(2.9972482,0,0,2.9972482,1.4986241,1.4986241)"
           id="g100"><path
             id="path102"
             style="fill:none;stroke:#000000;stroke-width:1;stroke-linecap:butt;stroke-linejoin:miter;stroke-miterlimit:10;stroke-dasharray:none;stroke-opacity:1"
             d="M 322,41 V 74.629997" /><path
             id="path104"
             style="fill:#000000;fill-opacity:1;fill-rule:nonzero;stroke:none"
             d="m 322,79.879997 -3.5,-7 3.5,1.75 3.5,-1.75 z" /><path
             id="path106"
             style="fill:none;stroke:#000000;stroke-width:1;stroke-linecap:butt;stroke-linejoin:miter;stroke-miterlimit:10;stroke-dasharray:none;stroke-opacity:1"
             d="m 322,79.879997 -3.5,-7 3.5,1.75 3.5,-1.75 z" /><path
             id="path108"
             style="fill:none;stroke:#000000;stroke-width:1;stroke-linecap:butt;stroke-linejoin:miter;stroke-miterlimit:10;stroke-dasharray:none;stroke-opacity:1"
             d="m 342,31 h 33.63" /><path
             id="path110"
             style="fill:#000000;fill-opacity:1;fill-rule:nonzero;stroke:none"
             d="m 380.88,31 -7,3.5 1.75,-3.5 -1.75,-3.5 z" /><path
             id="path112"
             style="fill:none;stroke:#000000;stroke-width:1;stroke-linecap:butt;stroke-linejoin:miter;stroke-miterlimit:10;stroke-dasharray:none;stroke-opacity:1"
             d="m 380.88,31 -7,3.5 1.75,-3.5 -1.75,-3.5 z" /></g><g
           transform="matrix(2.9972482,0,0,2.9972482,950.12769,71.93396)"
           id="g114"><text
             id="text118"
             style="font-variant:normal;font-weight:normal;font-size:12px;font-family:Helvetica;-inkscape-font-specification:Helvetica;writing-mode:lr-tb;fill:#000000;fill-opacity:1;fill-rule:nonzero;stroke:none"
             transform="translate(0.671875,11)"><tspan
               id="tspan116"
               y="0"
               x="0">x</tspan></text>
<text
             id="text122"
             style="font-variant:normal;font-weight:normal;font-size:8.32999992px;font-family:Helvetica;-inkscape-font-specification:Helvetica;writing-mode:lr-tb;fill:#000000;fill-opacity:1;fill-rule:nonzero;stroke:none"
             transform="translate(6.671875,14)"><tspan
               id="tspan120"
               y="0"
               x="0">n</tspan></text>
</g><g
           transform="matrix(2.9972482,0,0,2.9972482,1.4986241,1.4986241)"
           id="g124"><path
             id="path126"
             style="fill:none;stroke:#000000;stroke-width:1;stroke-linecap:butt;stroke-linejoin:miter;stroke-miterlimit:10;stroke-dasharray:none;stroke-opacity:1"
             d="m 82,91 v 33.63" /><path
             id="path128"
             style="fill:#000000;fill-opacity:1;fill-rule:nonzero;stroke:none"
             d="m 82,129.88 -3.5,-7 3.5,1.75 3.5,-1.75 z" /><path
             id="path130"
             style="fill:none;stroke:#000000;stroke-width:1;stroke-linecap:butt;stroke-linejoin:miter;stroke-miterlimit:10;stroke-dasharray:none;stroke-opacity:1"
             d="m 82,129.88 -3.5,-7 3.5,1.75 3.5,-1.75 z" /><path
             id="path132"
             style="fill:#ffffff;fill-opacity:1;fill-rule:nonzero;stroke:none"
             d="m 59.5,81 h 45 v 10 h -45 z" /><path
             id="path134"
             style="fill:none;stroke:#000000;stroke-width:1;stroke-linecap:butt;stroke-linejoin:miter;stroke-miterlimit:10;stroke-dasharray:none;stroke-opacity:1"
             d="m 59.5,81 h 45 v 10 h -45 z" /><path
             id="path136"
             style="fill:none;stroke:#000000;stroke-width:1;stroke-linecap:butt;stroke-linejoin:miter;stroke-miterlimit:10;stroke-dasharray:none;stroke-opacity:1"
             d="m 162,91 v 33.63" /><path
             id="path138"
             style="fill:#000000;fill-opacity:1;fill-rule:nonzero;stroke:none"
             d="m 162,129.88 -3.5,-7 3.5,1.75 3.5,-1.75 z" /><path
             id="path140"
             style="fill:none;stroke:#000000;stroke-width:1;stroke-linecap:butt;stroke-linejoin:miter;stroke-miterlimit:10;stroke-dasharray:none;stroke-opacity:1"
             d="m 162,129.88 -3.5,-7 3.5,1.75 3.5,-1.75 z" /><path
             id="path142"
             style="fill:#ffffff;fill-opacity:1;fill-rule:nonzero;stroke:none"
             d="m 139.5,81 h 45 v 10 h -45 z" /><path
             id="path144"
             style="fill:none;stroke:#000000;stroke-width:1;stroke-linecap:butt;stroke-linejoin:miter;stroke-miterlimit:10;stroke-dasharray:none;stroke-opacity:1"
             d="m 139.5,81 h 45 v 10 h -45 z" /><path
             id="path146"
             style="fill:none;stroke:#000000;stroke-width:1;stroke-linecap:butt;stroke-linejoin:miter;stroke-miterlimit:10;stroke-dasharray:none;stroke-opacity:1"
             d="m 242,91 v 33.63" /><path
             id="path148"
             style="fill:#000000;fill-opacity:1;fill-rule:nonzero;stroke:none"
             d="m 242,129.88 -3.5,-7 3.5,1.75 3.5,-1.75 z" /><path
             id="path150"
             style="fill:none;stroke:#000000;stroke-width:1;stroke-linecap:butt;stroke-linejoin:miter;stroke-miterlimit:10;stroke-dasharray:none;stroke-opacity:1"
             d="m 242,129.88 -3.5,-7 3.5,1.75 3.5,-1.75 z" /><path
             id="path152"
             style="fill:#ffffff;fill-opacity:1;fill-rule:nonzero;stroke:none"
             d="m 219.5,81 h 45 v 10 h -45 z" /><path
             id="path154"
             style="fill:none;stroke:#000000;stroke-width:1;stroke-linecap:butt;stroke-linejoin:miter;stroke-miterlimit:10;stroke-dasharray:none;stroke-opacity:1"
             d="m 219.5,81 h 45 v 10 h -45 z" /><path
             id="path156"
             style="fill:none;stroke:#000000;stroke-width:1;stroke-linecap:butt;stroke-linejoin:miter;stroke-miterlimit:10;stroke-dasharray:none;stroke-opacity:1"
             d="m 322,91 v 33.63" /><path
             id="path158"
             style="fill:#000000;fill-opacity:1;fill-rule:nonzero;stroke:none"
             d="m 322,129.88 -3.5,-7 3.5,1.75 3.5,-1.75 z" /><path
             id="path160"
             style="fill:none;stroke:#000000;stroke-width:1;stroke-linecap:butt;stroke-linejoin:miter;stroke-miterlimit:10;stroke-dasharray:none;stroke-opacity:1"
             d="m 322,129.88 -3.5,-7 3.5,1.75 3.5,-1.75 z" /><path
             id="path162"
             style="fill:#ffffff;fill-opacity:1;fill-rule:nonzero;stroke:none"
             d="m 299.5,81 h 45 v 10 h -45 z" /><path
             id="path164"
             style="fill:none;stroke:#000000;stroke-width:1;stroke-linecap:butt;stroke-linejoin:miter;stroke-miterlimit:10;stroke-dasharray:none;stroke-opacity:1"
             d="m 299.5,81 h 45 v 10 h -45 z" /></g><g
           transform="matrix(2.9972482,0,0,2.9972482,41.961475,164.84865)"
           id="g166"><text
             id="text170"
             style="font-variant:normal;font-weight:normal;font-size:12px;font-family:Helvetica;-inkscape-font-specification:Helvetica;writing-mode:lr-tb;fill:#000000;fill-opacity:1;fill-rule:nonzero;stroke:none"
             transform="translate(0.46875,11)"><tspan
               id="tspan168"
               y="0"
               x="0 8.0039062 14.677734 20.677734 27.351562 34.025391 36.691406 43.365234">Encoding</tspan></text>
</g><g
           transform="matrix(2.9972482,0,0,2.9972482,482.55695,14.98624)"
           id="g172"><text
             id="text176"
             style="font-variant:normal;font-weight:normal;font-size:12px;font-family:Helvetica;-inkscape-font-specification:Helvetica;writing-mode:lr-tb;fill:#000000;fill-opacity:1;fill-rule:nonzero;stroke:none"
             transform="translate(0.46875,11)"><tspan
               id="tspan174"
               y="0"
               x="0 8.0039062 14.677734 18.673828 21.339844 28.013672 34.013672 37.347656 44.021484 50.695312 57.369141 64.042969 68.039062 74.712891 78.046875 80.712891 87.386719">Series generation</tspan></text>
</g><g
           transform="matrix(2.9972482,0,0,2.9972482,1.4986241,1.4986241)"
           id="g178"><path
             id="path180"
             style="fill:#ffffff;fill-opacity:1;fill-rule:nonzero;stroke:none"
             d="m 92,141 c -8e-6,0.6566 -0.06406,1.3069 -0.192154,1.9509 -0.128097,0.64399 -0.317779,1.2693 -0.569054,1.87593 -0.251274,0.60663 -0.55931,1.1829 -0.924102,1.72885 -0.364792,0.54596 -0.779335,1.05109 -1.243622,1.51538 -0.464295,0.46428 -0.969414,0.87881 -1.515366,1.24361 -0.545952,0.36479 -1.122246,0.67283 -1.728874,0.92411 -0.606628,0.25127 -1.231941,0.44097 -1.875931,0.56907 C 83.306908,150.93594 82.656609,151 82,151 c -0.656609,0 -1.306915,-0.0641 -1.950912,-0.19215 -0.64399,-0.1281 -1.269303,-0.3178 -1.875931,-0.56907 -0.606629,-0.25128 -1.182923,-0.55932 -1.728874,-0.92411 -0.545952,-0.3648 -1.051072,-0.77933 -1.515358,-1.24361 -0.464303,-0.46429 -0.878846,-0.96942 -1.243638,-1.51537 -0.364791,-0.54594 -0.672821,-1.12223 -0.924087,-1.72886 -0.251274,-0.60663 -0.440964,-1.23194 -0.569061,-1.87593 C 72.064041,142.3069 71.999992,141.6566 72,141 c -8e-6,-0.65662 0.06404,-1.30692 0.192139,-1.95091 0.128097,-0.644 0.317787,-1.26932 0.569061,-1.87595 0.251266,-0.60663 0.559296,-1.18292 0.924087,-1.72888 0.364792,-0.54593 0.779335,-1.05104 1.243638,-1.51533 0.464286,-0.46429 0.969406,-0.87884 1.515358,-1.24364 0.545951,-0.36479 1.122245,-0.67282 1.728874,-0.92411 0.606628,-0.25126 1.231941,-0.44094 1.875931,-0.56904 C 80.693085,131.06404 81.343391,131 82,131 c 0.656609,0 1.306908,0.064 1.950897,0.19214 0.64399,0.1281 1.269303,0.31779 1.875931,0.56906 0.606628,0.25128 1.182922,0.55931 1.728874,0.9241 0.545952,0.36479 1.051071,0.77934 1.515366,1.24363 0.464287,0.46429 0.87883,0.9694 1.243622,1.51534 0.364792,0.54595 0.672828,1.12224 0.924102,1.72887 0.251275,0.60663 0.440957,1.23195 0.569054,1.87595 C 91.935944,139.69308 91.999992,140.34338 92,141 Z" /><path
             id="path182"
             style="fill:none;stroke:#000000;stroke-width:1;stroke-linecap:butt;stroke-linejoin:miter;stroke-miterlimit:10;stroke-dasharray:none;stroke-opacity:1"
             d="m 92,141 c -8e-6,0.6566 -0.06406,1.3069 -0.192154,1.9509 -0.128097,0.64399 -0.317779,1.2693 -0.569054,1.87593 -0.251274,0.60663 -0.55931,1.1829 -0.924102,1.72885 -0.364792,0.54596 -0.779335,1.05109 -1.243622,1.51538 -0.464295,0.46428 -0.969414,0.87881 -1.515366,1.24361 -0.545952,0.36479 -1.122246,0.67283 -1.728874,0.92411 -0.606628,0.25127 -1.231941,0.44097 -1.875931,0.56907 C 83.306908,150.93594 82.656609,151 82,151 c -0.656609,0 -1.306915,-0.0641 -1.950912,-0.19215 -0.64399,-0.1281 -1.269303,-0.3178 -1.875931,-0.56907 -0.606629,-0.25128 -1.182923,-0.55932 -1.728874,-0.92411 -0.545952,-0.3648 -1.051072,-0.77933 -1.515358,-1.24361 -0.464303,-0.46429 -0.878846,-0.96942 -1.243638,-1.51537 -0.364791,-0.54594 -0.672821,-1.12223 -0.924087,-1.72886 -0.251274,-0.60663 -0.440964,-1.23194 -0.569061,-1.87593 C 72.064041,142.3069 71.999992,141.6566 72,141 c -8e-6,-0.65662 0.06404,-1.30692 0.192139,-1.95091 0.128097,-0.644 0.317787,-1.26932 0.569061,-1.87595 0.251266,-0.60663 0.559296,-1.18292 0.924087,-1.72888 0.364792,-0.54593 0.779335,-1.05104 1.243638,-1.51533 0.464286,-0.46429 0.969406,-0.87884 1.515358,-1.24364 0.545951,-0.36479 1.122245,-0.67282 1.728874,-0.92411 0.606628,-0.25126 1.231941,-0.44094 1.875931,-0.56904 C 80.693085,131.06404 81.343391,131 82,131 c 0.656609,0 1.306908,0.064 1.950897,0.19214 0.64399,0.1281 1.269303,0.31779 1.875931,0.56906 0.606628,0.25128 1.182922,0.55931 1.728874,0.9241 0.545952,0.36479 1.051071,0.77934 1.515366,1.24363 0.464287,0.46429 0.87883,0.9694 1.243622,1.51534 0.364792,0.54595 0.672828,1.12224 0.924102,1.72887 0.251275,0.60663 0.440957,1.23195 0.569054,1.87595 C 91.935944,139.69308 91.999992,140.34338 92,141 Z" /><path
             id="path184"
             style="fill:#ffffff;fill-opacity:1;fill-rule:nonzero;stroke:none"
             d="m 172,141 c 0,0.6566 -0.0641,1.3069 -0.19215,1.9509 -0.1281,0.64399 -0.3178,1.2693 -0.56907,1.87593 -0.25128,0.60663 -0.55931,1.1829 -0.9241,1.72885 -0.36479,0.54596 -0.77934,1.05109 -1.24362,1.51538 -0.46429,0.46428 -0.96941,0.87881 -1.51535,1.24361 -0.54596,0.36479 -1.12225,0.67283 -1.72888,0.92411 -0.60663,0.25127 -1.23194,0.44097 -1.87593,0.56907 C 163.30691,150.93594 162.65662,151 162,151 c -0.65662,0 -1.30692,-0.0641 -1.95091,-0.19215 -0.644,-0.1281 -1.26932,-0.3178 -1.87595,-0.56907 -0.60663,-0.25128 -1.18292,-0.55932 -1.72888,-0.92411 -0.54593,-0.3648 -1.05104,-0.77933 -1.51533,-1.24361 -0.46432,-0.46429 -0.87887,-0.96942 -1.24366,-1.51537 -0.36479,-0.54594 -0.67282,-1.12223 -0.92409,-1.72886 -0.25128,-0.60663 -0.44096,-1.23194 -0.56906,-1.87593 -0.12809,-0.644 -0.19214,-1.2943 -0.19212,-1.9509 -2e-5,-0.65662 0.064,-1.30692 0.19212,-1.95091 0.1281,-0.644 0.31778,-1.26932 0.56906,-1.87595 0.25127,-0.60663 0.5593,-1.18292 0.92409,-1.72888 0.36479,-0.54593 0.77934,-1.05104 1.24366,-1.51533 0.46429,-0.46429 0.9694,-0.87884 1.51534,-1.24364 0.54595,-0.36479 1.12224,-0.67282 1.72887,-0.92411 0.60663,-0.25126 1.23195,-0.44094 1.87595,-0.56904 C 160.69308,131.06404 161.34338,131 162,131 c 0.65662,0 1.30691,0.064 1.9509,0.19214 0.64399,0.1281 1.2693,0.31779 1.87593,0.56906 0.60663,0.25128 1.18292,0.55931 1.72886,0.9241 0.54595,0.36479 1.05108,0.77934 1.51537,1.24363 0.46428,0.46429 0.87883,0.9694 1.24362,1.51534 0.36479,0.54595 0.67282,1.12224 0.9241,1.72887 0.25127,0.60663 0.44097,1.23195 0.56907,1.87595 C 171.93594,139.69308 172,140.34338 172,141 Z" /><path
             id="path186"
             style="fill:none;stroke:#000000;stroke-width:1;stroke-linecap:butt;stroke-linejoin:miter;stroke-miterlimit:10;stroke-dasharray:none;stroke-opacity:1"
             d="m 172,141 c 0,0.6566 -0.0641,1.3069 -0.19215,1.9509 -0.1281,0.64399 -0.3178,1.2693 -0.56907,1.87593 -0.25128,0.60663 -0.55931,1.1829 -0.9241,1.72885 -0.36479,0.54596 -0.77934,1.05109 -1.24362,1.51538 -0.46429,0.46428 -0.96941,0.87881 -1.51535,1.24361 -0.54596,0.36479 -1.12225,0.67283 -1.72888,0.92411 -0.60663,0.25127 -1.23194,0.44097 -1.87593,0.56907 C 163.30691,150.93594 162.65662,151 162,151 c -0.65662,0 -1.30692,-0.0641 -1.95091,-0.19215 -0.644,-0.1281 -1.26932,-0.3178 -1.87595,-0.56907 -0.60663,-0.25128 -1.18292,-0.55932 -1.72888,-0.92411 -0.54593,-0.3648 -1.05104,-0.77933 -1.51533,-1.24361 -0.46432,-0.46429 -0.87887,-0.96942 -1.24366,-1.51537 -0.36479,-0.54594 -0.67282,-1.12223 -0.92409,-1.72886 -0.25128,-0.60663 -0.44096,-1.23194 -0.56906,-1.87593 -0.12809,-0.644 -0.19214,-1.2943 -0.19212,-1.9509 -2e-5,-0.65662 0.064,-1.30692 0.19212,-1.95091 0.1281,-0.644 0.31778,-1.26932 0.56906,-1.87595 0.25127,-0.60663 0.5593,-1.18292 0.92409,-1.72888 0.36479,-0.54593 0.77934,-1.05104 1.24366,-1.51533 0.46429,-0.46429 0.9694,-0.87884 1.51534,-1.24364 0.54595,-0.36479 1.12224,-0.67282 1.72887,-0.92411 0.60663,-0.25126 1.23195,-0.44094 1.87595,-0.56904 C 160.69308,131.06404 161.34338,131 162,131 c 0.65662,0 1.30691,0.064 1.9509,0.19214 0.64399,0.1281 1.2693,0.31779 1.87593,0.56906 0.60663,0.25128 1.18292,0.55931 1.72886,0.9241 0.54595,0.36479 1.05108,0.77934 1.51537,1.24363 0.46428,0.46429 0.87883,0.9694 1.24362,1.51534 0.36479,0.54595 0.67282,1.12224 0.9241,1.72887 0.25127,0.60663 0.44097,1.23195 0.56907,1.87595 C 171.93594,139.69308 172,140.34338 172,141 Z" /><path
             id="path188"
             style="fill:#ffffff;fill-opacity:1;fill-rule:nonzero;stroke:none"
             d="m 252,141 c -2e-5,0.6566 -0.0641,1.3069 -0.19217,1.9509 -0.12811,0.64399 -0.31781,1.2693 -0.56908,1.87593 -0.25126,0.60663 -0.55929,1.1829 -0.92408,1.72885 -0.3648,0.54596 -0.77933,1.05109 -1.24361,1.51538 -0.46431,0.46428 -0.96944,0.87881 -1.51538,1.24361 -0.54596,0.36479 -1.12225,0.67283 -1.72888,0.92411 -0.60663,0.25127 -1.23194,0.44097 -1.87592,0.56907 C 243.30688,150.93594 242.6566,151 242,151 c -0.65662,0 -1.30693,-0.0641 -1.95093,-0.19215 -0.64399,-0.1281 -1.2693,-0.3178 -1.87593,-0.56907 -0.60663,-0.25128 -1.18292,-0.55932 -1.72887,-0.92411 -0.54595,-0.3648 -1.05108,-0.77933 -1.51536,-1.24361 -0.4643,-0.46429 -0.87885,-0.96942 -1.24365,-1.51537 -0.36478,-0.54594 -0.67281,-1.12223 -0.92408,-1.72886 -0.25128,-0.60663 -0.44096,-1.23194 -0.56906,-1.87593 -0.12809,-0.644 -0.19214,-1.2943 -0.19212,-1.9509 -2e-5,-0.65662 0.064,-1.30692 0.19212,-1.95091 0.1281,-0.644 0.31778,-1.26932 0.56905,-1.87595 0.25127,-0.60663 0.5593,-1.18292 0.92409,-1.72888 0.3648,-0.54593 0.77935,-1.05104 1.24365,-1.51533 0.46428,-0.46429 0.96941,-0.87884 1.51536,-1.24364 0.54595,-0.36479 1.12224,-0.67282 1.72887,-0.92411 0.60663,-0.25126 1.23194,-0.44094 1.87593,-0.56904 C 240.69307,131.06404 241.34338,131 242,131 c 0.6566,0 1.30688,0.064 1.95087,0.19214 0.64399,0.1281 1.2693,0.31779 1.87593,0.56906 0.60663,0.25128 1.18292,0.55931 1.72888,0.9241 0.54594,0.36479 1.05107,0.77934 1.51538,1.24363 0.46428,0.46429 0.87883,0.9694 1.24362,1.51534 0.36479,0.54595 0.67282,1.12224 0.92409,1.72887 0.25127,0.60663 0.44096,1.23195 0.56906,1.87595 0.1281,0.64399 0.19215,1.29429 0.19217,1.95091 z" /><path
             id="path190"
             style="fill:none;stroke:#000000;stroke-width:1;stroke-linecap:butt;stroke-linejoin:miter;stroke-miterlimit:10;stroke-dasharray:none;stroke-opacity:1"
             d="m 252,141 c -2e-5,0.6566 -0.0641,1.3069 -0.19217,1.9509 -0.12811,0.64399 -0.31781,1.2693 -0.56908,1.87593 -0.25126,0.60663 -0.55929,1.1829 -0.92408,1.72885 -0.3648,0.54596 -0.77933,1.05109 -1.24361,1.51538 -0.46431,0.46428 -0.96944,0.87881 -1.51538,1.24361 -0.54596,0.36479 -1.12225,0.67283 -1.72888,0.92411 -0.60663,0.25127 -1.23194,0.44097 -1.87592,0.56907 C 243.30688,150.93594 242.6566,151 242,151 c -0.65662,0 -1.30693,-0.0641 -1.95093,-0.19215 -0.64399,-0.1281 -1.2693,-0.3178 -1.87593,-0.56907 -0.60663,-0.25128 -1.18292,-0.55932 -1.72887,-0.92411 -0.54595,-0.3648 -1.05108,-0.77933 -1.51536,-1.24361 -0.4643,-0.46429 -0.87885,-0.96942 -1.24365,-1.51537 -0.36478,-0.54594 -0.67281,-1.12223 -0.92408,-1.72886 -0.25128,-0.60663 -0.44096,-1.23194 -0.56906,-1.87593 -0.12809,-0.644 -0.19214,-1.2943 -0.19212,-1.9509 -2e-5,-0.65662 0.064,-1.30692 0.19212,-1.95091 0.1281,-0.644 0.31778,-1.26932 0.56905,-1.87595 0.25127,-0.60663 0.5593,-1.18292 0.92409,-1.72888 0.3648,-0.54593 0.77935,-1.05104 1.24365,-1.51533 0.46428,-0.46429 0.96941,-0.87884 1.51536,-1.24364 0.54595,-0.36479 1.12224,-0.67282 1.72887,-0.92411 0.60663,-0.25126 1.23194,-0.44094 1.87593,-0.56904 C 240.69307,131.06404 241.34338,131 242,131 c 0.6566,0 1.30688,0.064 1.95087,0.19214 0.64399,0.1281 1.2693,0.31779 1.87593,0.56906 0.60663,0.25128 1.18292,0.55931 1.72888,0.9241 0.54594,0.36479 1.05107,0.77934 1.51538,1.24363 0.46428,0.46429 0.87883,0.9694 1.24362,1.51534 0.36479,0.54595 0.67282,1.12224 0.92409,1.72887 0.25127,0.60663 0.44096,1.23195 0.56906,1.87595 0.1281,0.64399 0.19215,1.29429 0.19217,1.95091 z" /><path
             id="path192"
             style="fill:#ffffff;fill-opacity:1;fill-rule:nonzero;stroke:none"
             d="m 332,141 c 0,0.6566 -0.0641,1.3069 -0.19214,1.9509 -0.12811,0.64399 -0.31781,1.2693 -0.56909,1.87593 -0.25125,0.60663 -0.5593,1.1829 -0.9241,1.72885 -0.36478,0.54596 -0.77933,1.05109 -1.24363,1.51538 -0.46429,0.46428 -0.96942,0.87881 -1.51538,1.24361 -0.54596,0.36479 -1.12225,0.67283 -1.72885,0.92411 -0.60663,0.25127 -1.23193,0.44097 -1.87591,0.56907 C 323.30692,150.93594 322.65662,151 322,151 c -0.65662,0 -1.30692,-0.0641 -1.95093,-0.19215 -0.64401,-0.1281 -1.26932,-0.3178 -1.87594,-0.56907 -0.6066,-0.25128 -1.1829,-0.55932 -1.72886,-0.92411 -0.54595,-0.3648 -1.05108,-0.77933 -1.51535,-1.24361 -0.46429,-0.46429 -0.87884,-0.96942 -1.24368,-1.51537 -0.36477,-0.54594 -0.67282,-1.12223 -0.92407,-1.72886 -0.25128,-0.60663 -0.44098,-1.23194 -0.56909,-1.87593 C 312.064,142.3069 311.99997,141.6566 312,141 c -3e-5,-0.65662 0.064,-1.30692 0.19208,-1.95091 0.12811,-0.644 0.31781,-1.26932 0.56909,-1.87595 0.25125,-0.60663 0.5593,-1.18292 0.9241,-1.72888 0.36481,-0.54593 0.77936,-1.05104 1.24365,-1.51533 0.46427,-0.46429 0.9694,-0.87884 1.51535,-1.24364 0.54596,-0.36479 1.12226,-0.67282 1.72886,-0.92411 0.60662,-0.25126 1.23193,-0.44094 1.87594,-0.56904 C 320.69308,131.06404 321.34338,131 322,131 c 0.65662,0 1.30692,0.064 1.9509,0.19214 0.64398,0.1281 1.26928,0.31779 1.87591,0.56906 0.6066,0.25128 1.18289,0.55931 1.72885,0.9241 0.54596,0.36479 1.05109,0.77934 1.51538,1.24363 0.4643,0.46429 0.87885,0.9694 1.24363,1.51534 0.3648,0.54595 0.67285,1.12224 0.9241,1.72887 0.25128,0.60663 0.44098,1.23195 0.56909,1.87595 C 331.93594,139.69308 332,140.34338 332,141 Z" /><path
             id="path194"
             style="fill:none;stroke:#000000;stroke-width:1;stroke-linecap:butt;stroke-linejoin:miter;stroke-miterlimit:10;stroke-dasharray:none;stroke-opacity:1"
             d="m 332,141 c 0,0.6566 -0.0641,1.3069 -0.19214,1.9509 -0.12811,0.64399 -0.31781,1.2693 -0.56909,1.87593 -0.25125,0.60663 -0.5593,1.1829 -0.9241,1.72885 -0.36478,0.54596 -0.77933,1.05109 -1.24363,1.51538 -0.46429,0.46428 -0.96942,0.87881 -1.51538,1.24361 -0.54596,0.36479 -1.12225,0.67283 -1.72885,0.92411 -0.60663,0.25127 -1.23193,0.44097 -1.87591,0.56907 C 323.30692,150.93594 322.65662,151 322,151 c -0.65662,0 -1.30692,-0.0641 -1.95093,-0.19215 -0.64401,-0.1281 -1.26932,-0.3178 -1.87594,-0.56907 -0.6066,-0.25128 -1.1829,-0.55932 -1.72886,-0.92411 -0.54595,-0.3648 -1.05108,-0.77933 -1.51535,-1.24361 -0.46429,-0.46429 -0.87884,-0.96942 -1.24368,-1.51537 -0.36477,-0.54594 -0.67282,-1.12223 -0.92407,-1.72886 -0.25128,-0.60663 -0.44098,-1.23194 -0.56909,-1.87593 C 312.064,142.3069 311.99997,141.6566 312,141 c -3e-5,-0.65662 0.064,-1.30692 0.19208,-1.95091 0.12811,-0.644 0.31781,-1.26932 0.56909,-1.87595 0.25125,-0.60663 0.5593,-1.18292 0.9241,-1.72888 0.36481,-0.54593 0.77936,-1.05104 1.24365,-1.51533 0.46427,-0.46429 0.9694,-0.87884 1.51535,-1.24364 0.54596,-0.36479 1.12226,-0.67282 1.72886,-0.92411 0.60662,-0.25126 1.23193,-0.44094 1.87594,-0.56904 C 320.69308,131.06404 321.34338,131 322,131 c 0.65662,0 1.30692,0.064 1.9509,0.19214 0.64398,0.1281 1.26928,0.31779 1.87591,0.56906 0.6066,0.25128 1.18289,0.55931 1.72885,0.9241 0.54596,0.36479 1.05109,0.77934 1.51538,1.24363 0.4643,0.46429 0.87885,0.9694 1.24363,1.51534 0.3648,0.54595 0.67285,1.12224 0.9241,1.72887 0.25128,0.60663 0.44098,1.23195 0.56909,1.87595 C 331.93594,139.69308 332,140.34338 332,141 Z" /></g><g
           transform="matrix(2.9972482,0,0,2.9972482,0,323.70279)"
           id="g196"><text
             id="text200"
             style="font-variant:normal;font-weight:normal;font-size:12px;font-family:Helvetica;-inkscape-font-specification:Helvetica;writing-mode:lr-tb;fill:#000000;fill-opacity:1;fill-rule:nonzero;stroke:none"
             transform="translate(0.640625,11)"><tspan
               id="tspan198"
               y="0"
               x="0 8.0039062 14.677734 21.351562 28.025391 34.699219 38.695312 45.369141 52.042969 58.042969">Appearance</tspan></text>
<text
             id="text204"
             style="font-variant:normal;font-weight:normal;font-size:12px;font-family:Helvetica;-inkscape-font-specification:Helvetica;writing-mode:lr-tb;fill:#000000;fill-opacity:1;fill-rule:nonzero;stroke:none"
             transform="translate(16.984375,25)"><tspan
               id="tspan202"
               y="0"
               x="0 8.6660156 15.339844 22.013672 28.6875">Count</tspan></text>
</g><g
           transform="matrix(2.9972482,0,0,2.9972482,1183.9131,74.931206)"
           id="g206"><text
             id="text210"
             style="font-variant:normal;font-weight:normal;font-size:12px;font-family:Helvetica;-inkscape-font-specification:Helvetica;writing-mode:lr-tb;fill:#000000;fill-opacity:1;fill-rule:nonzero;stroke:none"
             transform="translate(0.328125,11)"><tspan
               id="tspan208"
               y="0"
               x="0 3.3339844 6.6679688 10.001953">....</tspan></text>
</g><g
           transform="matrix(2.9972482,0,0,2.9972482,557.48816,464.57346)"
           id="g212"><text
             id="text216"
             style="font-variant:normal;font-weight:normal;font-size:12px;font-family:Helvetica;-inkscape-font-specification:Helvetica;writing-mode:lr-tb;fill:#000000;fill-opacity:1;fill-rule:nonzero;stroke:none"
             transform="translate(0.3125,11)"><tspan
               id="tspan214"
               y="0"
               x="0 8.0039062 14.677734 21.351562 25.347656 31.347656 34.013672 37.347656">Sparsity</tspan></text>
</g></g></g></g></svg>