<?xml version="1.0" encoding="UTF-8"?>
<svg xmlns="http://www.w3.org/2000/svg" xmlns:xlink="http://www.w3.org/1999/xlink" width="1070pt" height="847pt" viewBox="0 0 1070 847" version="1.1">
<g id="surface1">
<rect x="0" y="0" width="1070" height="847" style="fill:rgb(100%,100%,100%);fill-opacity:1;stroke:none;"/>
<path style="fill:none;stroke-width:1;stroke-linecap:butt;stroke-linejoin:miter;stroke:rgb(0%,0%,0%);stroke-opacity:1;stroke-miterlimit:10;" d="M 112 3 L 112 847 "/>
<path style=" stroke:none;fill-rule:evenodd;fill:rgb(0%,0%,0%);fill-opacity:1;" d="M 111.691406 2 L 106.691406 22 L 116.691406 22 "/>
<path style="fill:none;stroke-width:1;stroke-linecap:butt;stroke-linejoin:miter;stroke:rgb(0%,0%,0%);stroke-opacity:1;stroke-miterlimit:10;" d="M 0 697 L 1067 697 "/>
<path style=" stroke:none;fill-rule:evenodd;fill:rgb(0%,0%,0%);fill-opacity:1;" d="M 1068 697.464844 L 1048 692.464844 L 1048 702.464844 "/>
<path style="fill:none;stroke-width:1;stroke-linecap:butt;stroke-linejoin:miter;stroke:rgb(0%,0%,0%);stroke-opacity:1;stroke-miterlimit:10;" d="M 45 697 L 45 700 "/>
<path style="fill:none;stroke-width:1;stroke-linecap:butt;stroke-linejoin:miter;stroke:rgb(0%,0%,0%);stroke-opacity:1;stroke-miterlimit:10;" d="M 112 697 L 112 700 "/>
<path style="fill:none;stroke-width:1;stroke-linecap:butt;stroke-linejoin:miter;stroke:rgb(0%,0%,0%);stroke-opacity:1;stroke-miterlimit:10;" d="M 178 697 L 178 700 "/>
<path style="fill:none;stroke-width:1;stroke-linecap:butt;stroke-linejoin:miter;stroke:rgb(0%,0%,0%);stroke-opacity:1;stroke-miterlimit:10;" d="M 245 697 L 245 700 "/>
<path style="fill:none;stroke-width:1;stroke-linecap:butt;stroke-linejoin:miter;stroke:rgb(0%,0%,0%);stroke-opacity:1;stroke-miterlimit:10;" d="M 312 697 L 312 700 "/>
<path style="fill:none;stroke-width:1;stroke-linecap:butt;stroke-linejoin:miter;stroke:rgb(0%,0%,0%);stroke-opacity:1;stroke-miterlimit:10;" d="M 379 697 L 379 700 "/>
<path style="fill:none;stroke-width:1;stroke-linecap:butt;stroke-linejoin:miter;stroke:rgb(0%,0%,0%);stroke-opacity:1;stroke-miterlimit:10;" d="M 446 697 L 446 700 "/>
<path style="fill:none;stroke-width:1;stroke-linecap:butt;stroke-linejoin:miter;stroke:rgb(0%,0%,0%);stroke-opacity:1;stroke-miterlimit:10;" d="M 512 697 L 512 700 "/>
<path style="fill:none;stroke-width:1;stroke-linecap:butt;stroke-linejoin:miter;stroke:rgb(0%,0%,0%);stroke-opacity:1;stroke-miterlimit:10;" d="M 579 697 L 579 700 "/>
<path style="fill:none;stroke-width:1;stroke-linecap:butt;stroke-linejoin:miter;stroke:rgb(0%,0%,0%);stroke-opacity:1;stroke-miterlimit:10;" d="M 646 697 L 646 700 "/>
<path style="fill:none;stroke-width:1;stroke-linecap:butt;stroke-linejoin:miter;stroke:rgb(0%,0%,0%);stroke-opacity:1;stroke-miterlimit:10;" d="M 713 697 L 713 700 "/>
<path style="fill:none;stroke-width:1;stroke-linecap:butt;stroke-linejoin:miter;stroke:rgb(0%,0%,0%);stroke-opacity:1;stroke-miterlimit:10;" d="M 780 697 L 780 700 "/>
<path style="fill:none;stroke-width:1;stroke-linecap:butt;stroke-linejoin:miter;stroke:rgb(0%,0%,0%);stroke-opacity:1;stroke-miterlimit:10;" d="M 846 697 L 846 700 "/>
<path style="fill:none;stroke-width:1;stroke-linecap:butt;stroke-linejoin:miter;stroke:rgb(0%,0%,0%);stroke-opacity:1;stroke-miterlimit:10;" d="M 913 697 L 913 700 "/>
<path style="fill:none;stroke-width:1;stroke-linecap:butt;stroke-linejoin:miter;stroke:rgb(0%,0%,0%);stroke-opacity:1;stroke-miterlimit:10;" d="M 980 697 L 980 700 "/>
<path style="fill:none;stroke-width:1;stroke-linecap:butt;stroke-linejoin:miter;stroke:rgb(0%,0%,0%);stroke-opacity:1;stroke-miterlimit:10;" d="M 1047 697 L 1047 700 "/>
<path style="fill:none;stroke-width:1;stroke-linecap:butt;stroke-linejoin:miter;stroke:rgb(0%,0%,0%);stroke-opacity:1;stroke-miterlimit:10;" d="M 109 831 L 112 831 "/>
<path style="fill:none;stroke-width:1;stroke-linecap:butt;stroke-linejoin:miter;stroke:rgb(0%,0%,0%);stroke-opacity:1;stroke-miterlimit:10;" d="M 109 764 L 112 764 "/>
<path style="fill:none;stroke-width:1;stroke-linecap:butt;stroke-linejoin:miter;stroke:rgb(0%,0%,0%);stroke-opacity:1;stroke-miterlimit:10;" d="M 109 631 L 112 631 "/>
<path style="fill:none;stroke-width:1;stroke-linecap:butt;stroke-linejoin:miter;stroke:rgb(0%,0%,0%);stroke-opacity:1;stroke-miterlimit:10;" d="M 109 564 L 112 564 "/>
<path style="fill:none;stroke-width:1;stroke-linecap:butt;stroke-linejoin:miter;stroke:rgb(0%,0%,0%);stroke-opacity:1;stroke-miterlimit:10;" d="M 109 497 L 112 497 "/>
<path style="fill:none;stroke-width:1;stroke-linecap:butt;stroke-linejoin:miter;stroke:rgb(0%,0%,0%);stroke-opacity:1;stroke-miterlimit:10;" d="M 109 430 L 112 430 "/>
<path style="fill:none;stroke-width:1;stroke-linecap:butt;stroke-linejoin:miter;stroke:rgb(0%,0%,0%);stroke-opacity:1;stroke-miterlimit:10;" d="M 109 363 L 112 363 "/>
<path style="fill:none;stroke-width:1;stroke-linecap:butt;stroke-linejoin:miter;stroke:rgb(0%,0%,0%);stroke-opacity:1;stroke-miterlimit:10;" d="M 109 297 L 112 297 "/>
<path style="fill:none;stroke-width:1;stroke-linecap:butt;stroke-linejoin:miter;stroke:rgb(0%,0%,0%);stroke-opacity:1;stroke-miterlimit:10;" d="M 109 230 L 112 230 "/>
<path style="fill:none;stroke-width:1;stroke-linecap:butt;stroke-linejoin:miter;stroke:rgb(0%,0%,0%);stroke-opacity:1;stroke-miterlimit:10;" d="M 109 163 L 112 163 "/>
<path style="fill:none;stroke-width:1;stroke-linecap:butt;stroke-linejoin:miter;stroke:rgb(0%,0%,0%);stroke-opacity:1;stroke-miterlimit:10;" d="M 109 96 L 112 96 "/>
<path style="fill:none;stroke-width:1;stroke-linecap:butt;stroke-linejoin:miter;stroke:rgb(0%,0%,0%);stroke-opacity:1;stroke-miterlimit:10;" d="M 109 29 L 112 29 "/>
<path style="fill:none;stroke-width:3;stroke-linecap:butt;stroke-linejoin:round;stroke:rgb(0%,0%,0%);stroke-opacity:0.698039;stroke-dasharray:6.5,4;stroke-miterlimit:10;" d="M 111.691406 697.464844 L 1070 -260.84375 "/>
<path style="fill:none;stroke-width:3;stroke-linecap:round;stroke-linejoin:round;stroke:rgb(0%,0%,0%);stroke-opacity:0.698039;stroke-miterlimit:10;" d="M 111.691406 697.464844 L 1070 86.007813 "/>
<path style="fill:none;stroke-width:3;stroke-linecap:round;stroke-linejoin:round;stroke:rgb(0%,0%,0%);stroke-opacity:0.698039;stroke-miterlimit:10;" d="M 111.691406 697.464844 L 145.09375 730.863281 "/>
<path style="fill:none;stroke-width:3;stroke-linecap:round;stroke-linejoin:round;stroke:rgb(0%,0%,0%);stroke-opacity:0.698039;stroke-miterlimit:10;" d="M 145.09375 697.464844 L 178.492188 730.863281 "/>
<path style="fill:none;stroke-width:3;stroke-linecap:round;stroke-linejoin:round;stroke:rgb(0%,0%,0%);stroke-opacity:0.698039;stroke-miterlimit:10;" d="M 178.492188 697.464844 L 211.890625 730.863281 "/>
<path style="fill:none;stroke-width:3;stroke-linecap:round;stroke-linejoin:round;stroke:rgb(0%,0%,0%);stroke-opacity:0.698039;stroke-miterlimit:10;" d="M 211.890625 697.464844 L 245.292969 730.863281 "/>
<path style="fill:none;stroke-width:3;stroke-linecap:round;stroke-linejoin:round;stroke:rgb(0%,0%,0%);stroke-opacity:0.698039;stroke-miterlimit:10;" d="M 245.292969 697.464844 L 278.691406 730.863281 "/>
<path style="fill:none;stroke-width:3;stroke-linecap:round;stroke-linejoin:round;stroke:rgb(0%,0%,0%);stroke-opacity:0.698039;stroke-miterlimit:10;" d="M 278.691406 697.464844 L 312.089844 730.863281 "/>
<path style="fill:none;stroke-width:3;stroke-linecap:round;stroke-linejoin:round;stroke:rgb(0%,0%,0%);stroke-opacity:0.698039;stroke-miterlimit:10;" d="M 312.089844 697.464844 L 345.492188 730.863281 "/>
<path style="fill:none;stroke-width:3;stroke-linecap:round;stroke-linejoin:round;stroke:rgb(0%,0%,0%);stroke-opacity:0.698039;stroke-miterlimit:10;" d="M 345.492188 697.464844 L 378.890625 730.863281 "/>
<path style="fill:none;stroke-width:3;stroke-linecap:round;stroke-linejoin:round;stroke:rgb(0%,0%,0%);stroke-opacity:0.698039;stroke-miterlimit:10;" d="M 378.890625 697.464844 L 412.289063 730.863281 "/>
<path style="fill:none;stroke-width:3;stroke-linecap:round;stroke-linejoin:round;stroke:rgb(0%,0%,0%);stroke-opacity:0.698039;stroke-miterlimit:10;" d="M 412.289063 697.464844 L 445.691406 730.863281 "/>
<path style="fill:none;stroke-width:3;stroke-linecap:round;stroke-linejoin:round;stroke:rgb(0%,0%,0%);stroke-opacity:0.698039;stroke-miterlimit:10;" d="M 445.691406 697.464844 L 479.089844 730.863281 "/>
<path style="fill:none;stroke-width:3;stroke-linecap:round;stroke-linejoin:round;stroke:rgb(0%,0%,0%);stroke-opacity:0.698039;stroke-miterlimit:10;" d="M 479.089844 697.464844 L 512.488281 730.863281 "/>
<path style="fill:none;stroke-width:3;stroke-linecap:round;stroke-linejoin:round;stroke:rgb(0%,0%,0%);stroke-opacity:0.698039;stroke-miterlimit:10;" d="M 512.488281 697.464844 L 545.890625 730.863281 "/>
<path style="fill:none;stroke-width:3;stroke-linecap:round;stroke-linejoin:round;stroke:rgb(0%,0%,0%);stroke-opacity:0.698039;stroke-miterlimit:10;" d="M 545.890625 697.464844 L 579.289063 730.863281 "/>
<path style="fill:none;stroke-width:3;stroke-linecap:round;stroke-linejoin:round;stroke:rgb(0%,0%,0%);stroke-opacity:0.698039;stroke-miterlimit:10;" d="M 579.289063 697.464844 L 612.691406 730.863281 "/>
<path style="fill:none;stroke-width:3;stroke-linecap:round;stroke-linejoin:round;stroke:rgb(0%,0%,0%);stroke-opacity:0.698039;stroke-miterlimit:10;" d="M 612.691406 697.464844 L 646.089844 730.863281 "/>
<path style="fill:none;stroke-width:3;stroke-linecap:round;stroke-linejoin:round;stroke:rgb(0%,0%,0%);stroke-opacity:0.698039;stroke-miterlimit:10;" d="M 646.089844 697.464844 L 679.488281 730.863281 "/>
<path style="fill:none;stroke-width:3;stroke-linecap:round;stroke-linejoin:round;stroke:rgb(0%,0%,0%);stroke-opacity:0.698039;stroke-miterlimit:10;" d="M 679.488281 697.464844 L 712.890625 730.863281 "/>
<path style="fill:none;stroke-width:3;stroke-linecap:round;stroke-linejoin:round;stroke:rgb(0%,0%,0%);stroke-opacity:0.698039;stroke-miterlimit:10;" d="M 712.890625 697.464844 L 746.289063 730.863281 "/>
<path style="fill:none;stroke-width:3;stroke-linecap:round;stroke-linejoin:round;stroke:rgb(0%,0%,0%);stroke-opacity:0.698039;stroke-miterlimit:10;" d="M 925.324219 178.320313 L 647.835938 178.320313 "/>
<path style=" stroke:none;fill-rule:evenodd;fill:rgb(0%,0%,0%);fill-opacity:0.698039;" d="M 630.835938 178.320313 L 647.835938 174.070313 L 647.835938 182.570313 Z M 630.835938 178.320313 "/>
<path style="fill:none;stroke-width:3;stroke-linecap:round;stroke-linejoin:round;stroke:rgb(0%,0%,0%);stroke-opacity:0.698039;stroke-miterlimit:10;" d="M 630.835938 178.320313 L 631 349.105469 "/>
<path style=" stroke:none;fill-rule:evenodd;fill:rgb(0%,0%,0%);fill-opacity:0.698039;" d="M 631.015625 366.105469 L 626.75 349.109375 L 635.25 349.101563 Z M 631.015625 366.105469 "/>
<path style="fill:none;stroke-width:3;stroke-linecap:round;stroke-linejoin:round;stroke:rgb(0%,0%,0%);stroke-opacity:0.698039;stroke-miterlimit:10;" d="M 631.015625 366.105469 L 460.050781 366.105469 "/>
<path style=" stroke:none;fill-rule:evenodd;fill:rgb(0%,0%,0%);fill-opacity:0.698039;" d="M 443.050781 366.105469 L 460.050781 361.855469 L 460.050781 370.355469 Z M 443.050781 366.105469 "/>
<path style="fill:none;stroke-width:3;stroke-linecap:round;stroke-linejoin:round;stroke:rgb(0%,0%,0%);stroke-opacity:0.698039;stroke-miterlimit:10;" d="M 443.050781 366.105469 L 443.070313 469.023438 "/>
<path style=" stroke:none;fill-rule:evenodd;fill:rgb(0%,0%,0%);fill-opacity:0.698039;" d="M 443.074219 486.023438 L 438.820313 469.023438 L 447.320313 469.023438 Z M 443.074219 486.023438 "/>
<path style="fill:none;stroke-width:3;stroke-linecap:round;stroke-linejoin:round;stroke:rgb(0%,0%,0%);stroke-opacity:0.698039;stroke-miterlimit:10;" d="M 443.074219 486.023438 L 340.132813 486.023438 "/>
<path style=" stroke:none;fill-rule:evenodd;fill:rgb(0%,0%,0%);fill-opacity:0.698039;" d="M 323.132813 486.023438 L 340.132813 481.773438 L 340.132813 490.273438 Z M 323.132813 486.023438 "/>
<path style="fill:none;stroke-width:3;stroke-linecap:round;stroke-linejoin:round;stroke:rgb(0%,0%,0%);stroke-opacity:0.698039;stroke-miterlimit:10;" d="M 323.132813 486.023438 L 323.066406 545.605469 "/>
<path style=" stroke:none;fill-rule:evenodd;fill:rgb(0%,0%,0%);fill-opacity:0.698039;" d="M 323.046875 562.605469 L 318.816406 545.601563 L 327.316406 545.613281 Z M 323.046875 562.605469 "/>
<path style="fill:none;stroke-width:3;stroke-linecap:round;stroke-linejoin:round;stroke:rgb(0%,0%,0%);stroke-opacity:0.698039;stroke-miterlimit:10;" d="M 323.046875 562.605469 L 263.550781 562.605469 "/>
<path style=" stroke:none;fill-rule:evenodd;fill:rgb(0%,0%,0%);fill-opacity:0.698039;" d="M 246.550781 562.605469 L 263.550781 558.355469 L 263.550781 566.855469 Z M 246.550781 562.605469 "/>
<path style="fill:none;stroke-width:3;stroke-linecap:round;stroke-linejoin:round;stroke:rgb(0%,0%,0%);stroke-opacity:0.698039;stroke-miterlimit:10;" d="M 246.550781 562.605469 L 246.546875 594.417969 "/>
<path style=" stroke:none;fill-rule:evenodd;fill:rgb(0%,0%,0%);fill-opacity:0.698039;" d="M 246.546875 611.417969 L 242.296875 594.417969 L 250.796875 594.417969 Z M 246.546875 611.417969 "/>
<path style="fill:none;stroke-width:3;stroke-linecap:round;stroke-linejoin:round;stroke:rgb(0%,0%,0%);stroke-opacity:0.698039;stroke-miterlimit:10;" d="M 246.546875 611.417969 L 214.738281 611.417969 "/>
<path style=" stroke:none;fill-rule:evenodd;fill:rgb(0%,0%,0%);fill-opacity:0.698039;" d="M 197.738281 611.417969 L 214.738281 607.167969 L 214.738281 615.667969 Z M 197.738281 611.417969 "/>
<path style="fill:none;stroke-width:3;stroke-linecap:round;stroke-linejoin:round;stroke:rgb(0%,0%,0%);stroke-opacity:0.698039;stroke-miterlimit:10;" d="M 197.738281 611.417969 L 197.851563 625.398438 "/>
<path style=" stroke:none;fill-rule:evenodd;fill:rgb(0%,0%,0%);fill-opacity:0.698039;" d="M 197.996094 642.398438 L 193.605469 625.433594 L 202.101563 625.363281 Z M 197.996094 642.398438 "/>
<path style="fill:none;stroke-width:3;stroke-linecap:round;stroke-linejoin:round;stroke:rgb(0%,0%,0%);stroke-opacity:0.698039;stroke-miterlimit:10;" d="M 197.996094 642.398438 L 183.757813 642.398438 "/>
<path style=" stroke:none;fill-rule:evenodd;fill:rgb(0%,0%,0%);fill-opacity:0.698039;" d="M 166.757813 642.398438 L 183.757813 638.148438 L 183.757813 646.648438 Z M 166.757813 642.398438 "/>
<path style="fill:none;stroke-width:3;stroke-linecap:round;stroke-linejoin:round;stroke:rgb(0%,0%,0%);stroke-opacity:0.698039;stroke-miterlimit:10;" d="M 166.757813 642.398438 L 166.683594 645.632813 "/>
<path style=" stroke:none;fill-rule:evenodd;fill:rgb(0%,0%,0%);fill-opacity:0.698039;" d="M 166.289063 662.628906 L 162.433594 645.535156 L 170.933594 645.734375 Z M 166.289063 662.628906 "/>
<path style="fill:none;stroke-width:3;stroke-linecap:round;stroke-linejoin:round;stroke:rgb(0%,0%,0%);stroke-opacity:0.698039;stroke-miterlimit:10;" d="M 166.289063 662.628906 L 163.527344 662.628906 "/>
<path style=" stroke:none;fill-rule:evenodd;fill:rgb(0%,0%,0%);fill-opacity:0.698039;" d="M 146.527344 662.628906 L 163.527344 658.378906 L 163.527344 666.878906 Z M 146.527344 662.628906 "/>
<path style="fill:none;stroke-width:3;stroke-linecap:round;stroke-linejoin:round;stroke:rgb(0%,0%,0%);stroke-opacity:0.698039;stroke-miterlimit:10;" d="M 146.527344 662.628906 L 146.527344 662.628906 "/>
<path style=" stroke:none;fill-rule:evenodd;fill:rgb(0%,0%,0%);fill-opacity:0.698039;" d="M 146.410156 675.3125 L 143.355469 662.601563 L 149.699219 662.660156 Z M 146.410156 675.3125 "/>
<path style="fill:none;stroke-width:3;stroke-linecap:round;stroke-linejoin:round;stroke:rgb(0%,0%,0%);stroke-opacity:0.698039;stroke-miterlimit:10;" d="M 146.410156 675.3125 L 146.410156 675.3125 "/>
<path style=" stroke:none;fill-rule:evenodd;fill:rgb(0%,0%,0%);fill-opacity:0.698039;" d="M 133.84375 675.3125 L 146.410156 672.171875 L 146.410156 678.453125 Z M 133.84375 675.3125 "/>
<path style="fill:none;stroke-width:3;stroke-linecap:round;stroke-linejoin:round;stroke:rgb(0%,0%,0%);stroke-opacity:0.698039;stroke-miterlimit:10;" d="M 133.84375 675.3125 L 133.84375 675.3125 "/>
<path style=" stroke:none;fill-rule:evenodd;fill:rgb(0%,0%,0%);fill-opacity:0.698039;" d="M 134.054688 683.195313 L 131.875 675.363281 L 135.816406 675.257813 Z M 134.054688 683.195313 "/>
<path style="fill:none;stroke-width:3;stroke-linecap:round;stroke-linejoin:round;stroke:rgb(0%,0%,0%);stroke-opacity:0.698039;stroke-miterlimit:10;" d="M 134.054688 683.195313 L 134.054688 683.195313 "/>
<path style=" stroke:none;fill-rule:evenodd;fill:rgb(0%,0%,0%);fill-opacity:0.698039;" d="M 125.960938 683.195313 L 134.054688 681.171875 L 134.054688 685.21875 Z M 125.960938 683.195313 "/>
<path style="fill-rule:nonzero;fill:rgb(12.548828%,12.548828%,12.548828%);fill-opacity:1;stroke-width:1;stroke-linecap:round;stroke-linejoin:round;stroke:rgb(0%,0%,0%);stroke-opacity:1;stroke-miterlimit:10;" d="M 113.691406 697.464844 C 113.691406 698.566406 112.796875 699.464844 111.691406 699.464844 C 110.589844 699.464844 109.691406 698.566406 109.691406 697.464844 C 109.691406 696.359375 110.589844 695.464844 111.691406 695.464844 C 112.796875 695.464844 113.691406 696.359375 113.691406 697.464844 Z M 113.691406 697.464844 "/>
<path style="fill-rule:nonzero;fill:rgb(49.01886%,49.01886%,100%);fill-opacity:1;stroke-width:1;stroke-linecap:round;stroke-linejoin:round;stroke:rgb(0%,0%,0%);stroke-opacity:1;stroke-miterlimit:10;" d="M 930.324219 178.320313 C 930.324219 181.082031 928.085938 183.320313 925.324219 183.320313 C 922.5625 183.320313 920.324219 181.082031 920.324219 178.320313 C 920.324219 175.558594 922.5625 173.320313 925.324219 173.320313 C 928.085938 173.320313 930.324219 175.558594 930.324219 178.320313 Z M 930.324219 178.320313 "/>
<path style="fill-rule:nonzero;fill:rgb(49.01886%,49.01886%,100%);fill-opacity:1;stroke-width:1;stroke-linecap:round;stroke-linejoin:round;stroke:rgb(0%,0%,0%);stroke-opacity:1;stroke-miterlimit:10;" d="M 635.835938 178.320313 C 635.835938 181.082031 633.597656 183.320313 630.835938 183.320313 C 628.074219 183.320313 625.835938 181.082031 625.835938 178.320313 C 625.835938 175.558594 628.074219 173.320313 630.835938 173.320313 C 633.597656 173.320313 635.835938 175.558594 635.835938 178.320313 Z M 635.835938 178.320313 "/>
<path style="fill-rule:nonzero;fill:rgb(49.01886%,49.01886%,100%);fill-opacity:1;stroke-width:1;stroke-linecap:round;stroke-linejoin:round;stroke:rgb(0%,0%,0%);stroke-opacity:1;stroke-miterlimit:10;" d="M 448.050781 366.105469 C 448.050781 368.867188 445.8125 371.105469 443.050781 371.105469 C 440.289063 371.105469 438.050781 368.867188 438.050781 366.105469 C 438.050781 363.34375 440.289063 361.105469 443.050781 361.105469 C 445.8125 361.105469 448.050781 363.34375 448.050781 366.105469 Z M 448.050781 366.105469 "/>
<path style="fill-rule:nonzero;fill:rgb(49.01886%,49.01886%,100%);fill-opacity:1;stroke-width:1;stroke-linecap:round;stroke-linejoin:round;stroke:rgb(0%,0%,0%);stroke-opacity:1;stroke-miterlimit:10;" d="M 328.132813 486.023438 C 328.132813 488.785156 325.894531 491.023438 323.132813 491.023438 C 320.371094 491.023438 318.132813 488.785156 318.132813 486.023438 C 318.132813 483.261719 320.371094 481.023438 323.132813 481.023438 C 325.894531 481.023438 328.132813 483.261719 328.132813 486.023438 Z M 328.132813 486.023438 "/>
<path style="fill-rule:nonzero;fill:rgb(49.01886%,49.01886%,100%);fill-opacity:1;stroke-width:1;stroke-linecap:round;stroke-linejoin:round;stroke:rgb(0%,0%,0%);stroke-opacity:1;stroke-miterlimit:10;" d="M 251.550781 562.605469 C 251.550781 565.367188 249.3125 567.605469 246.550781 567.605469 C 243.789063 567.605469 241.550781 565.367188 241.550781 562.605469 C 241.550781 559.84375 243.789063 557.605469 246.550781 557.605469 C 249.3125 557.605469 251.550781 559.84375 251.550781 562.605469 Z M 251.550781 562.605469 "/>
<path style="fill-rule:nonzero;fill:rgb(49.01886%,49.01886%,100%);fill-opacity:1;stroke-width:1;stroke-linecap:round;stroke-linejoin:round;stroke:rgb(0%,0%,0%);stroke-opacity:1;stroke-miterlimit:10;" d="M 202.738281 611.417969 C 202.738281 614.179688 200.5 616.417969 197.738281 616.417969 C 194.976563 616.417969 192.738281 614.179688 192.738281 611.417969 C 192.738281 608.65625 194.976563 606.417969 197.738281 606.417969 C 200.5 606.417969 202.738281 608.65625 202.738281 611.417969 Z M 202.738281 611.417969 "/>
<path style="fill-rule:nonzero;fill:rgb(49.01886%,49.01886%,100%);fill-opacity:1;stroke-width:1;stroke-linecap:round;stroke-linejoin:round;stroke:rgb(0%,0%,0%);stroke-opacity:1;stroke-miterlimit:10;" d="M 171.757813 642.398438 C 171.757813 645.160156 169.519531 647.398438 166.757813 647.398438 C 163.996094 647.398438 161.757813 645.160156 161.757813 642.398438 C 161.757813 639.636719 163.996094 637.398438 166.757813 637.398438 C 169.519531 637.398438 171.757813 639.636719 171.757813 642.398438 Z M 171.757813 642.398438 "/>
<path style="fill:none;stroke-width:1;stroke-linecap:square;stroke-linejoin:miter;stroke:rgb(12.548828%,12.548828%,12.548828%);stroke-opacity:1;stroke-miterlimit:10;" d="M 148.09375 730.863281 C 148.09375 732.519531 146.75 733.863281 145.09375 733.863281 C 143.4375 733.863281 142.09375 732.519531 142.09375 730.863281 C 142.09375 729.207031 143.4375 727.863281 145.09375 727.863281 C 146.75 727.863281 148.09375 729.207031 148.09375 730.863281 Z M 148.09375 730.863281 "/>
<path style="fill-rule:nonzero;fill:rgb(12.548828%,12.548828%,12.548828%);fill-opacity:1;stroke-width:1;stroke-linecap:round;stroke-linejoin:round;stroke:rgb(0%,0%,0%);stroke-opacity:1;stroke-miterlimit:10;" d="M 147.09375 697.464844 C 147.09375 698.566406 146.195313 699.464844 145.09375 699.464844 C 143.988281 699.464844 143.09375 698.566406 143.09375 697.464844 C 143.09375 696.359375 143.988281 695.464844 145.09375 695.464844 C 146.195313 695.464844 147.09375 696.359375 147.09375 697.464844 Z M 147.09375 697.464844 "/>
<path style="fill:none;stroke-width:1;stroke-linecap:square;stroke-linejoin:miter;stroke:rgb(12.548828%,12.548828%,12.548828%);stroke-opacity:1;stroke-miterlimit:10;" d="M 181.492188 730.863281 C 181.492188 732.519531 180.148438 733.863281 178.492188 733.863281 C 176.835938 733.863281 175.492188 732.519531 175.492188 730.863281 C 175.492188 729.207031 176.835938 727.863281 178.492188 727.863281 C 180.148438 727.863281 181.492188 729.207031 181.492188 730.863281 Z M 181.492188 730.863281 "/>
<path style="fill-rule:nonzero;fill:rgb(12.548828%,12.548828%,12.548828%);fill-opacity:1;stroke-width:1;stroke-linecap:round;stroke-linejoin:round;stroke:rgb(0%,0%,0%);stroke-opacity:1;stroke-miterlimit:10;" d="M 180.492188 697.464844 C 180.492188 698.566406 179.597656 699.464844 178.492188 699.464844 C 177.386719 699.464844 176.492188 698.566406 176.492188 697.464844 C 176.492188 696.359375 177.386719 695.464844 178.492188 695.464844 C 179.597656 695.464844 180.492188 696.359375 180.492188 697.464844 Z M 180.492188 697.464844 "/>
<path style="fill:none;stroke-width:1;stroke-linecap:square;stroke-linejoin:miter;stroke:rgb(12.548828%,12.548828%,12.548828%);stroke-opacity:1;stroke-miterlimit:10;" d="M 214.890625 730.863281 C 214.890625 732.519531 213.550781 733.863281 211.890625 733.863281 C 210.234375 733.863281 208.890625 732.519531 208.890625 730.863281 C 208.890625 729.207031 210.234375 727.863281 211.890625 727.863281 C 213.550781 727.863281 214.890625 729.207031 214.890625 730.863281 Z M 214.890625 730.863281 "/>
<path style="fill-rule:nonzero;fill:rgb(12.548828%,12.548828%,12.548828%);fill-opacity:1;stroke-width:1;stroke-linecap:round;stroke-linejoin:round;stroke:rgb(0%,0%,0%);stroke-opacity:1;stroke-miterlimit:10;" d="M 213.890625 697.464844 C 213.890625 698.566406 212.996094 699.464844 211.890625 699.464844 C 210.789063 699.464844 209.890625 698.566406 209.890625 697.464844 C 209.890625 696.359375 210.789063 695.464844 211.890625 695.464844 C 212.996094 695.464844 213.890625 696.359375 213.890625 697.464844 Z M 213.890625 697.464844 "/>
<path style="fill:none;stroke-width:1;stroke-linecap:square;stroke-linejoin:miter;stroke:rgb(12.548828%,12.548828%,12.548828%);stroke-opacity:1;stroke-miterlimit:10;" d="M 248.292969 730.863281 C 248.292969 732.519531 246.949219 733.863281 245.292969 733.863281 C 243.636719 733.863281 242.292969 732.519531 242.292969 730.863281 C 242.292969 729.207031 243.636719 727.863281 245.292969 727.863281 C 246.949219 727.863281 248.292969 729.207031 248.292969 730.863281 Z M 248.292969 730.863281 "/>
<path style="fill-rule:nonzero;fill:rgb(12.548828%,12.548828%,12.548828%);fill-opacity:1;stroke-width:1;stroke-linecap:round;stroke-linejoin:round;stroke:rgb(0%,0%,0%);stroke-opacity:1;stroke-miterlimit:10;" d="M 247.292969 697.464844 C 247.292969 698.566406 246.394531 699.464844 245.292969 699.464844 C 244.1875 699.464844 243.292969 698.566406 243.292969 697.464844 C 243.292969 696.359375 244.1875 695.464844 245.292969 695.464844 C 246.394531 695.464844 247.292969 696.359375 247.292969 697.464844 Z M 247.292969 697.464844 "/>
<path style="fill:none;stroke-width:1;stroke-linecap:square;stroke-linejoin:miter;stroke:rgb(12.548828%,12.548828%,12.548828%);stroke-opacity:1;stroke-miterlimit:10;" d="M 281.691406 730.863281 C 281.691406 732.519531 280.347656 733.863281 278.691406 733.863281 C 277.035156 733.863281 275.691406 732.519531 275.691406 730.863281 C 275.691406 729.207031 277.035156 727.863281 278.691406 727.863281 C 280.347656 727.863281 281.691406 729.207031 281.691406 730.863281 Z M 281.691406 730.863281 "/>
<path style="fill-rule:nonzero;fill:rgb(12.548828%,12.548828%,12.548828%);fill-opacity:1;stroke-width:1;stroke-linecap:round;stroke-linejoin:round;stroke:rgb(0%,0%,0%);stroke-opacity:1;stroke-miterlimit:10;" d="M 280.691406 697.464844 C 280.691406 698.566406 279.796875 699.464844 278.691406 699.464844 C 277.585938 699.464844 276.691406 698.566406 276.691406 697.464844 C 276.691406 696.359375 277.585938 695.464844 278.691406 695.464844 C 279.796875 695.464844 280.691406 696.359375 280.691406 697.464844 Z M 280.691406 697.464844 "/>
<path style="fill:none;stroke-width:1;stroke-linecap:square;stroke-linejoin:miter;stroke:rgb(12.548828%,12.548828%,12.548828%);stroke-opacity:1;stroke-miterlimit:10;" d="M 315.089844 730.863281 C 315.089844 732.519531 313.75 733.863281 312.089844 733.863281 C 310.433594 733.863281 309.089844 732.519531 309.089844 730.863281 C 309.089844 729.207031 310.433594 727.863281 312.089844 727.863281 C 313.75 727.863281 315.089844 729.207031 315.089844 730.863281 Z M 315.089844 730.863281 "/>
<path style="fill-rule:nonzero;fill:rgb(12.548828%,12.548828%,12.548828%);fill-opacity:1;stroke-width:1;stroke-linecap:round;stroke-linejoin:round;stroke:rgb(0%,0%,0%);stroke-opacity:1;stroke-miterlimit:10;" d="M 314.089844 697.464844 C 314.089844 698.566406 313.195313 699.464844 312.089844 699.464844 C 310.988281 699.464844 310.089844 698.566406 310.089844 697.464844 C 310.089844 696.359375 310.988281 695.464844 312.089844 695.464844 C 313.195313 695.464844 314.089844 696.359375 314.089844 697.464844 Z M 314.089844 697.464844 "/>
<path style="fill:none;stroke-width:1;stroke-linecap:square;stroke-linejoin:miter;stroke:rgb(12.548828%,12.548828%,12.548828%);stroke-opacity:1;stroke-miterlimit:10;" d="M 348.492188 730.863281 C 348.492188 732.519531 347.148438 733.863281 345.492188 733.863281 C 343.835938 733.863281 342.492188 732.519531 342.492188 730.863281 C 342.492188 729.207031 343.835938 727.863281 345.492188 727.863281 C 347.148438 727.863281 348.492188 729.207031 348.492188 730.863281 Z M 348.492188 730.863281 "/>
<path style="fill-rule:nonzero;fill:rgb(12.548828%,12.548828%,12.548828%);fill-opacity:1;stroke-width:1;stroke-linecap:round;stroke-linejoin:round;stroke:rgb(0%,0%,0%);stroke-opacity:1;stroke-miterlimit:10;" d="M 347.492188 697.464844 C 347.492188 698.566406 346.597656 699.464844 345.492188 699.464844 C 344.386719 699.464844 343.492188 698.566406 343.492188 697.464844 C 343.492188 696.359375 344.386719 695.464844 345.492188 695.464844 C 346.597656 695.464844 347.492188 696.359375 347.492188 697.464844 Z M 347.492188 697.464844 "/>
<path style="fill:none;stroke-width:1;stroke-linecap:square;stroke-linejoin:miter;stroke:rgb(12.548828%,12.548828%,12.548828%);stroke-opacity:1;stroke-miterlimit:10;" d="M 381.890625 730.863281 C 381.890625 732.519531 380.546875 733.863281 378.890625 733.863281 C 377.234375 733.863281 375.890625 732.519531 375.890625 730.863281 C 375.890625 729.207031 377.234375 727.863281 378.890625 727.863281 C 380.546875 727.863281 381.890625 729.207031 381.890625 730.863281 Z M 381.890625 730.863281 "/>
<path style="fill-rule:nonzero;fill:rgb(12.548828%,12.548828%,12.548828%);fill-opacity:1;stroke-width:1;stroke-linecap:round;stroke-linejoin:round;stroke:rgb(0%,0%,0%);stroke-opacity:1;stroke-miterlimit:10;" d="M 380.890625 697.464844 C 380.890625 698.566406 379.996094 699.464844 378.890625 699.464844 C 377.785156 699.464844 376.890625 698.566406 376.890625 697.464844 C 376.890625 696.359375 377.785156 695.464844 378.890625 695.464844 C 379.996094 695.464844 380.890625 696.359375 380.890625 697.464844 Z M 380.890625 697.464844 "/>
<path style="fill:none;stroke-width:1;stroke-linecap:square;stroke-linejoin:miter;stroke:rgb(12.548828%,12.548828%,12.548828%);stroke-opacity:1;stroke-miterlimit:10;" d="M 415.289063 730.863281 C 415.289063 732.519531 413.949219 733.863281 412.289063 733.863281 C 410.632813 733.863281 409.289063 732.519531 409.289063 730.863281 C 409.289063 729.207031 410.632813 727.863281 412.289063 727.863281 C 413.949219 727.863281 415.289063 729.207031 415.289063 730.863281 Z M 415.289063 730.863281 "/>
<path style="fill-rule:nonzero;fill:rgb(12.548828%,12.548828%,12.548828%);fill-opacity:1;stroke-width:1;stroke-linecap:round;stroke-linejoin:round;stroke:rgb(0%,0%,0%);stroke-opacity:1;stroke-miterlimit:10;" d="M 414.289063 697.464844 C 414.289063 698.566406 413.394531 699.464844 412.289063 699.464844 C 411.1875 699.464844 410.289063 698.566406 410.289063 697.464844 C 410.289063 696.359375 411.1875 695.464844 412.289063 695.464844 C 413.394531 695.464844 414.289063 696.359375 414.289063 697.464844 Z M 414.289063 697.464844 "/>
<path style="fill:none;stroke-width:1;stroke-linecap:square;stroke-linejoin:miter;stroke:rgb(12.548828%,12.548828%,12.548828%);stroke-opacity:1;stroke-miterlimit:10;" d="M 448.691406 730.863281 C 448.691406 732.519531 447.347656 733.863281 445.691406 733.863281 C 444.035156 733.863281 442.691406 732.519531 442.691406 730.863281 C 442.691406 729.207031 444.035156 727.863281 445.691406 727.863281 C 447.347656 727.863281 448.691406 729.207031 448.691406 730.863281 Z M 448.691406 730.863281 "/>
<path style="fill-rule:nonzero;fill:rgb(12.548828%,12.548828%,12.548828%);fill-opacity:1;stroke-width:1;stroke-linecap:round;stroke-linejoin:round;stroke:rgb(0%,0%,0%);stroke-opacity:1;stroke-miterlimit:10;" d="M 447.691406 697.464844 C 447.691406 698.566406 446.796875 699.464844 445.691406 699.464844 C 444.585938 699.464844 443.691406 698.566406 443.691406 697.464844 C 443.691406 696.359375 444.585938 695.464844 445.691406 695.464844 C 446.796875 695.464844 447.691406 696.359375 447.691406 697.464844 Z M 447.691406 697.464844 "/>
<path style="fill:none;stroke-width:1;stroke-linecap:square;stroke-linejoin:miter;stroke:rgb(12.548828%,12.548828%,12.548828%);stroke-opacity:1;stroke-miterlimit:10;" d="M 482.089844 730.863281 C 482.089844 732.519531 480.746094 733.863281 479.089844 733.863281 C 477.433594 733.863281 476.089844 732.519531 476.089844 730.863281 C 476.089844 729.207031 477.433594 727.863281 479.089844 727.863281 C 480.746094 727.863281 482.089844 729.207031 482.089844 730.863281 Z M 482.089844 730.863281 "/>
<path style="fill-rule:nonzero;fill:rgb(12.548828%,12.548828%,12.548828%);fill-opacity:1;stroke-width:1;stroke-linecap:round;stroke-linejoin:round;stroke:rgb(0%,0%,0%);stroke-opacity:1;stroke-miterlimit:10;" d="M 481.089844 697.464844 C 481.089844 698.566406 480.195313 699.464844 479.089844 699.464844 C 477.984375 699.464844 477.089844 698.566406 477.089844 697.464844 C 477.089844 696.359375 477.984375 695.464844 479.089844 695.464844 C 480.195313 695.464844 481.089844 696.359375 481.089844 697.464844 Z M 481.089844 697.464844 "/>
<path style="fill:none;stroke-width:1;stroke-linecap:square;stroke-linejoin:miter;stroke:rgb(12.548828%,12.548828%,12.548828%);stroke-opacity:1;stroke-miterlimit:10;" d="M 515.488281 730.863281 C 515.488281 732.519531 514.148438 733.863281 512.488281 733.863281 C 510.832031 733.863281 509.488281 732.519531 509.488281 730.863281 C 509.488281 729.207031 510.832031 727.863281 512.488281 727.863281 C 514.148438 727.863281 515.488281 729.207031 515.488281 730.863281 Z M 515.488281 730.863281 "/>
<path style="fill-rule:nonzero;fill:rgb(12.548828%,12.548828%,12.548828%);fill-opacity:1;stroke-width:1;stroke-linecap:round;stroke-linejoin:round;stroke:rgb(0%,0%,0%);stroke-opacity:1;stroke-miterlimit:10;" d="M 514.488281 697.464844 C 514.488281 698.566406 513.59375 699.464844 512.488281 699.464844 C 511.386719 699.464844 510.488281 698.566406 510.488281 697.464844 C 510.488281 696.359375 511.386719 695.464844 512.488281 695.464844 C 513.59375 695.464844 514.488281 696.359375 514.488281 697.464844 Z M 514.488281 697.464844 "/>
<path style="fill:none;stroke-width:1;stroke-linecap:square;stroke-linejoin:miter;stroke:rgb(12.548828%,12.548828%,12.548828%);stroke-opacity:1;stroke-miterlimit:10;" d="M 548.890625 730.863281 C 548.890625 732.519531 547.546875 733.863281 545.890625 733.863281 C 544.234375 733.863281 542.890625 732.519531 542.890625 730.863281 C 542.890625 729.207031 544.234375 727.863281 545.890625 727.863281 C 547.546875 727.863281 548.890625 729.207031 548.890625 730.863281 Z M 548.890625 730.863281 "/>
<path style="fill-rule:nonzero;fill:rgb(12.548828%,12.548828%,12.548828%);fill-opacity:1;stroke-width:1;stroke-linecap:round;stroke-linejoin:round;stroke:rgb(0%,0%,0%);stroke-opacity:1;stroke-miterlimit:10;" d="M 547.890625 697.464844 C 547.890625 698.566406 546.996094 699.464844 545.890625 699.464844 C 544.785156 699.464844 543.890625 698.566406 543.890625 697.464844 C 543.890625 696.359375 544.785156 695.464844 545.890625 695.464844 C 546.996094 695.464844 547.890625 696.359375 547.890625 697.464844 Z M 547.890625 697.464844 "/>
<path style="fill:none;stroke-width:1;stroke-linecap:square;stroke-linejoin:miter;stroke:rgb(12.548828%,12.548828%,12.548828%);stroke-opacity:1;stroke-miterlimit:10;" d="M 582.289063 730.863281 C 582.289063 732.519531 580.945313 733.863281 579.289063 733.863281 C 577.632813 733.863281 576.289063 732.519531 576.289063 730.863281 C 576.289063 729.207031 577.632813 727.863281 579.289063 727.863281 C 580.945313 727.863281 582.289063 729.207031 582.289063 730.863281 Z M 582.289063 730.863281 "/>
<path style="fill-rule:nonzero;fill:rgb(12.548828%,12.548828%,12.548828%);fill-opacity:1;stroke-width:1;stroke-linecap:round;stroke-linejoin:round;stroke:rgb(0%,0%,0%);stroke-opacity:1;stroke-miterlimit:10;" d="M 581.289063 697.464844 C 581.289063 698.566406 580.394531 699.464844 579.289063 699.464844 C 578.183594 699.464844 577.289063 698.566406 577.289063 697.464844 C 577.289063 696.359375 578.183594 695.464844 579.289063 695.464844 C 580.394531 695.464844 581.289063 696.359375 581.289063 697.464844 Z M 581.289063 697.464844 "/>
<path style="fill:none;stroke-width:1;stroke-linecap:square;stroke-linejoin:miter;stroke:rgb(12.548828%,12.548828%,12.548828%);stroke-opacity:1;stroke-miterlimit:10;" d="M 615.691406 730.863281 C 615.691406 732.519531 614.347656 733.863281 612.691406 733.863281 C 611.03125 733.863281 609.691406 732.519531 609.691406 730.863281 C 609.691406 729.207031 611.03125 727.863281 612.691406 727.863281 C 614.347656 727.863281 615.691406 729.207031 615.691406 730.863281 Z M 615.691406 730.863281 "/>
<path style="fill-rule:nonzero;fill:rgb(12.548828%,12.548828%,12.548828%);fill-opacity:1;stroke-width:1;stroke-linecap:round;stroke-linejoin:round;stroke:rgb(0%,0%,0%);stroke-opacity:1;stroke-miterlimit:10;" d="M 614.691406 697.464844 C 614.691406 698.566406 613.792969 699.464844 612.691406 699.464844 C 611.585938 699.464844 610.691406 698.566406 610.691406 697.464844 C 610.691406 696.359375 611.585938 695.464844 612.691406 695.464844 C 613.792969 695.464844 614.691406 696.359375 614.691406 697.464844 Z M 614.691406 697.464844 "/>
<path style="fill:none;stroke-width:1;stroke-linecap:square;stroke-linejoin:miter;stroke:rgb(12.548828%,12.548828%,12.548828%);stroke-opacity:1;stroke-miterlimit:10;" d="M 649.089844 730.863281 C 649.089844 732.519531 647.746094 733.863281 646.089844 733.863281 C 644.433594 733.863281 643.089844 732.519531 643.089844 730.863281 C 643.089844 729.207031 644.433594 727.863281 646.089844 727.863281 C 647.746094 727.863281 649.089844 729.207031 649.089844 730.863281 Z M 649.089844 730.863281 "/>
<path style="fill-rule:nonzero;fill:rgb(12.548828%,12.548828%,12.548828%);fill-opacity:1;stroke-width:1;stroke-linecap:round;stroke-linejoin:round;stroke:rgb(0%,0%,0%);stroke-opacity:1;stroke-miterlimit:10;" d="M 648.089844 697.464844 C 648.089844 698.566406 647.195313 699.464844 646.089844 699.464844 C 644.984375 699.464844 644.089844 698.566406 644.089844 697.464844 C 644.089844 696.359375 644.984375 695.464844 646.089844 695.464844 C 647.195313 695.464844 648.089844 696.359375 648.089844 697.464844 Z M 648.089844 697.464844 "/>
<path style="fill:none;stroke-width:1;stroke-linecap:square;stroke-linejoin:miter;stroke:rgb(12.548828%,12.548828%,12.548828%);stroke-opacity:1;stroke-miterlimit:10;" d="M 682.488281 730.863281 C 682.488281 732.519531 681.144531 733.863281 679.488281 733.863281 C 677.832031 733.863281 676.488281 732.519531 676.488281 730.863281 C 676.488281 729.207031 677.832031 727.863281 679.488281 727.863281 C 681.144531 727.863281 682.488281 729.207031 682.488281 730.863281 Z M 682.488281 730.863281 "/>
<path style="fill-rule:nonzero;fill:rgb(12.548828%,12.548828%,12.548828%);fill-opacity:1;stroke-width:1;stroke-linecap:round;stroke-linejoin:round;stroke:rgb(0%,0%,0%);stroke-opacity:1;stroke-miterlimit:10;" d="M 681.488281 697.464844 C 681.488281 698.566406 680.59375 699.464844 679.488281 699.464844 C 678.382813 699.464844 677.488281 698.566406 677.488281 697.464844 C 677.488281 696.359375 678.382813 695.464844 679.488281 695.464844 C 680.59375 695.464844 681.488281 696.359375 681.488281 697.464844 Z M 681.488281 697.464844 "/>
<path style="fill:none;stroke-width:1;stroke-linecap:square;stroke-linejoin:miter;stroke:rgb(12.548828%,12.548828%,12.548828%);stroke-opacity:1;stroke-miterlimit:10;" d="M 715.890625 730.863281 C 715.890625 732.519531 714.546875 733.863281 712.890625 733.863281 C 711.230469 733.863281 709.890625 732.519531 709.890625 730.863281 C 709.890625 729.207031 711.230469 727.863281 712.890625 727.863281 C 714.546875 727.863281 715.890625 729.207031 715.890625 730.863281 Z M 715.890625 730.863281 "/>
<path style="fill-rule:nonzero;fill:rgb(12.548828%,12.548828%,12.548828%);fill-opacity:1;stroke-width:1;stroke-linecap:round;stroke-linejoin:round;stroke:rgb(0%,0%,0%);stroke-opacity:1;stroke-miterlimit:10;" d="M 714.890625 697.464844 C 714.890625 698.566406 713.992188 699.464844 712.890625 699.464844 C 711.785156 699.464844 710.890625 698.566406 710.890625 697.464844 C 710.890625 696.359375 711.785156 695.464844 712.890625 695.464844 C 713.992188 695.464844 714.890625 696.359375 714.890625 697.464844 Z M 714.890625 697.464844 "/>
<path style="fill:none;stroke-width:1;stroke-linecap:square;stroke-linejoin:miter;stroke:rgb(12.548828%,12.548828%,12.548828%);stroke-opacity:1;stroke-miterlimit:10;" d="M 749.289063 730.863281 C 749.289063 732.519531 747.945313 733.863281 746.289063 733.863281 C 744.632813 733.863281 743.289063 732.519531 743.289063 730.863281 C 743.289063 729.207031 744.632813 727.863281 746.289063 727.863281 C 747.945313 727.863281 749.289063 729.207031 749.289063 730.863281 Z M 749.289063 730.863281 "/>
<path style=" stroke:none;fill-rule:nonzero;fill:rgb(0%,0%,0%);fill-opacity:1;" d="M 129.898438 341.226563 L 128.273438 347.726563 L 131.175781 347.726563 C 131.175781 347.726563 134.023438 347.726563 135.148438 346.601563 C 135.148438 346.601563 135.726563 346.023438 136.074219 345.039063 C 136.074219 345.039063 136.425781 344.050781 136.488281 343.550781 C 136.488281 343.550781 136.550781 343.050781 136.550781 342.851563 C 136.550781 342.851563 136.550781 342.351563 136.386719 341.976563 C 136.386719 341.976563 136.226563 341.601563 135.835938 341.386719 C 135.835938 341.386719 135.449219 341.175781 135.113281 341.039063 C 135.113281 341.039063 134.773438 340.898438 134.125 340.851563 C 134.125 340.851563 133.476563 340.800781 133.074219 340.789063 C 133.074219 340.789063 132.675781 340.773438 131.925781 340.773438 C 131.925781 340.773438 130.199219 340.773438 130.050781 340.824219 C 130.050781 340.824219 130 340.875 129.898438 341.226563 M 134.824219 348.273438 C 134.824219 348.273438 136.976563 349.074219 136.976563 350.976563 C 136.976563 350.976563 136.976563 351.226563 136.851563 351.976563 C 136.851563 351.976563 136.5 354.125 136.5 354.75 C 136.5 354.75 136.5 355.625 136.789063 355.949219 C 136.789063 355.949219 137.074219 356.273438 137.648438 356.273438 C 137.648438 356.273438 138.324219 356.273438 138.949219 355.6875 C 138.949219 355.6875 139.574219 355.101563 139.824219 354.324219 C 139.824219 354.324219 139.898438 354.023438 140.011719 353.925781 C 140.011719 353.925781 140.125 353.824219 140.425781 353.824219 C 140.425781 353.824219 141.023438 353.824219 141.023438 354.273438 C 141.023438 354.273438 141.023438 354.476563 140.824219 354.898438 C 140.824219 354.898438 140.625 355.324219 140.238281 355.863281 C 140.238281 355.863281 139.851563 356.398438 139.113281 356.789063 C 139.113281 356.789063 138.375 357.175781 137.449219 357.175781 C 137.449219 357.175781 136.949219 357.175781 136.460938 357.136719 C 136.460938 357.136719 135.976563 357.101563 135.261719 356.9375 C 135.261719 356.9375 134.550781 356.773438 134.050781 356.488281 C 134.050781 356.488281 133.550781 356.199219 133.175781 355.664063 C 133.175781 355.664063 132.800781 355.125 132.800781 354.375 C 132.800781 354.375 132.800781 354.023438 133.148438 352.550781 C 133.148438 352.550781 133.550781 351.125 133.550781 350.675781 C 133.550781 350.675781 133.550781 350.023438 133.273438 349.574219 C 133.273438 349.574219 133 349.125 132.5625 348.9375 C 132.5625 348.9375 132.125 348.75 131.789063 348.6875 C 131.789063 348.6875 131.449219 348.625 131.074219 348.625 L 128.050781 348.625 L 126.324219 355.523438 C 126.324219 355.523438 127.375 355.574219 127.851563 355.574219 C 127.851563 355.574219 128.273438 355.574219 128.4375 355.585938 C 128.4375 355.585938 128.601563 355.601563 128.738281 355.699219 C 128.738281 355.699219 128.875 355.800781 128.875 356.023438 C 128.875 356.023438 128.875 356.398438 128.699219 356.574219 C 128.699219 356.574219 128.574219 356.75 128.175781 356.75 C 128.175781 356.75 127.75 356.75 126.261719 356.710938 C 126.261719 356.710938 124.773438 356.675781 124.351563 356.675781 C 124.351563 356.675781 124.050781 356.675781 123.4375 356.6875 C 123.4375 356.6875 122.824219 356.699219 122.523438 356.699219 C 122.523438 356.699219 122.199219 356.699219 121.574219 356.726563 C 121.574219 356.726563 120.949219 356.75 120.625 356.75 C 120.625 356.75 120.074219 356.75 120.074219 356.300781 C 120.074219 356.300781 120.074219 355.800781 120.375 355.625 C 120.375 355.625 120.476563 355.574219 121.175781 355.574219 C 121.175781 355.574219 122.074219 355.574219 122.5 355.550781 C 122.5 355.550781 122.824219 355.523438 122.914063 355.449219 C 122.914063 355.449219 123 355.375 123.074219 355.074219 L 126.648438 340.824219 C 126.648438 340.824219 125.601563 340.773438 125.125 340.773438 C 125.125 340.773438 124.675781 340.773438 124.5 340.761719 C 124.5 340.761719 124.324219 340.75 124.199219 340.648438 C 124.199219 340.648438 124.074219 340.550781 124.074219 340.324219 C 124.074219 340.324219 124.074219 339.976563 124.226563 339.8125 C 124.226563 339.8125 124.375 339.648438 124.523438 339.625 C 124.523438 339.625 124.675781 339.601563 125 339.601563 L 133.675781 339.601563 C 133.675781 339.601563 136.574219 339.601563 138.335938 340.601563 C 138.335938 340.601563 140.101563 341.601563 140.101563 343.425781 C 140.101563 343.425781 140.101563 343.976563 139.886719 344.5625 C 139.886719 344.5625 139.675781 345.148438 139.148438 345.863281 C 139.148438 345.863281 138.625 346.574219 137.511719 347.210938 C 137.511719 347.210938 136.398438 347.851563 134.824219 348.273438 Z M 134.824219 348.273438 "/>
<path style=" stroke:none;fill-rule:nonzero;fill:rgb(0%,0%,0%);fill-opacity:1;" d="M 150.390625 362.375 L 150.414063 362.449219 C 150.414063 362.449219 150.464844 362.550781 150.464844 362.625 C 150.464844 362.625 150.464844 362.976563 150.015625 362.976563 C 150.015625 362.976563 149.539063 362.976563 148.125 361.664063 C 148.125 361.664063 146.714844 360.351563 145.613281 358.425781 C 145.613281 358.425781 143.613281 354.898438 143.613281 350.476563 C 143.613281 350.476563 143.613281 343.800781 148.089844 339.351563 C 148.089844 339.351563 149.515625 338 150.015625 338 C 150.015625 338 150.464844 338 150.464844 338.351563 C 150.464844 338.351563 150.464844 338.476563 150.0625 338.875 C 150.0625 338.875 146.039063 342.925781 146.039063 350.5 C 146.039063 350.5 146.039063 354.101563 146.988281 356.976563 C 146.988281 356.976563 148.039063 360.199219 150.390625 362.375 Z M 150.390625 362.375 "/>
<path style=" stroke:none;fill-rule:nonzero;fill:rgb(0%,0%,0%);fill-opacity:1;" d="M 165.496094 346.726563 C 165.496094 346.726563 164.996094 346.351563 164.292969 346.351563 C 164.292969 346.351563 163.621094 346.351563 163.03125 346.949219 C 163.03125 346.949219 162.445313 347.550781 162.167969 348.625 C 162.167969 348.625 162.09375 348.851563 161.71875 350.324219 C 161.71875 350.324219 161.34375 351.800781 161.292969 352.023438 C 161.292969 352.023438 160.746094 354.273438 160.746094 354.800781 C 160.746094 354.800781 160.746094 356.050781 162.144531 356.050781 C 162.144531 356.050781 163.09375 356.050781 164.144531 355.3125 C 164.144531 355.3125 165.195313 354.574219 165.695313 353.023438 C 165.695313 353.023438 165.792969 352.699219 166.269531 352.699219 C 166.269531 352.699219 166.871094 352.699219 166.871094 353.050781 C 166.871094 353.050781 166.871094 353.398438 166.542969 354.011719 C 166.542969 354.011719 166.21875 354.625 165.644531 355.300781 C 165.644531 355.300781 165.070313 355.976563 164.09375 356.460938 C 164.09375 356.460938 163.121094 356.949219 162.019531 356.949219 C 162.019531 356.949219 159.46875 356.949219 158.570313 355.425781 C 158.570313 355.425781 157.46875 356.949219 155.894531 356.949219 C 155.894531 356.949219 154.71875 356.949219 153.882813 356.335938 C 153.882813 356.335938 153.042969 355.726563 153.042969 354.75 C 153.042969 354.75 153.042969 353.875 153.59375 353.335938 C 153.59375 353.335938 154.144531 352.800781 154.84375 352.800781 C 154.84375 352.800781 155.417969 352.800781 155.757813 353.148438 C 155.757813 353.148438 156.09375 353.5 156.09375 353.949219 C 156.09375 353.949219 156.09375 354.476563 155.730469 354.988281 C 155.730469 354.988281 155.371094 355.5 154.746094 355.675781 C 154.746094 355.675781 155.246094 356.050781 155.945313 356.050781 C 155.945313 356.050781 156.621094 356.050781 157.207031 355.460938 C 157.207031 355.460938 157.792969 354.875 158.070313 353.773438 L 158.917969 350.351563 C 158.917969 350.351563 159.496094 348.050781 159.496094 347.601563 C 159.496094 347.601563 159.496094 346.351563 158.09375 346.351563 C 158.09375 346.351563 157.144531 346.351563 156.09375 347.085938 C 156.09375 347.085938 155.042969 347.824219 154.542969 349.375 C 154.542969 349.375 154.445313 349.699219 153.96875 349.699219 C 153.96875 349.699219 153.371094 349.699219 153.371094 349.351563 C 153.371094 349.351563 153.371094 349 153.695313 348.386719 C 153.695313 348.386719 154.019531 347.773438 154.59375 347.101563 C 154.59375 347.101563 155.167969 346.425781 156.144531 345.9375 C 156.144531 345.9375 157.121094 345.449219 158.21875 345.449219 C 158.21875 345.449219 160.769531 345.449219 161.667969 346.976563 C 161.667969 346.976563 162.769531 345.449219 164.34375 345.449219 C 164.34375 345.449219 165.519531 345.449219 166.355469 346.0625 C 166.355469 346.0625 167.195313 346.675781 167.195313 347.648438 C 167.195313 347.648438 167.195313 348.523438 166.644531 349.0625 C 166.644531 349.0625 166.09375 349.601563 165.394531 349.601563 C 165.394531 349.601563 164.820313 349.601563 164.480469 349.25 C 164.480469 349.25 164.144531 348.898438 164.144531 348.449219 C 164.144531 348.449219 164.144531 347.925781 164.507813 347.414063 C 164.507813 347.414063 164.871094 346.898438 165.496094 346.726563 Z M 165.496094 346.726563 "/>
<path style=" stroke:none;fill-rule:nonzero;fill:rgb(0%,0%,0%);fill-opacity:1;" d="M 177.019531 350.5 C 177.019531 350.5 177.019531 357.175781 172.546875 361.625 C 172.546875 361.625 171.121094 362.976563 170.621094 362.976563 C 170.621094 362.976563 170.171875 362.976563 170.171875 362.625 C 170.171875 362.625 170.171875 362.5 170.570313 362.101563 C 170.570313 362.101563 174.59375 358.050781 174.59375 350.476563 C 174.59375 350.476563 174.59375 343 170.59375 338.925781 C 170.59375 338.925781 170.171875 338.523438 170.171875 338.351563 C 170.171875 338.351563 170.171875 338 170.621094 338 C 170.621094 338 171.09375 338 172.507813 339.3125 C 172.507813 339.3125 173.921875 340.625 175.019531 342.550781 C 175.019531 342.550781 177.019531 346.074219 177.019531 350.5 Z M 177.019531 350.5 "/>
<path style=" stroke:none;fill-rule:nonzero;fill:rgb(0%,0%,0%);fill-opacity:1;" d="M 914.398438 678.085938 C 914.398438 678.085938 913.898438 677.710938 913.199219 677.710938 C 913.199219 677.710938 912.523438 677.710938 911.9375 678.3125 C 911.9375 678.3125 911.351563 678.910156 911.074219 679.984375 C 911.074219 679.984375 911 680.210938 910.625 681.6875 C 910.625 681.6875 910.25 683.160156 910.199219 683.386719 C 910.199219 683.386719 909.648438 685.636719 909.648438 686.160156 C 909.648438 686.160156 909.648438 687.410156 911.050781 687.410156 C 911.050781 687.410156 912 687.410156 913.050781 686.671875 C 913.050781 686.671875 914.101563 685.9375 914.601563 684.386719 C 914.601563 684.386719 914.699219 684.0625 915.175781 684.0625 C 915.175781 684.0625 915.773438 684.0625 915.773438 684.410156 C 915.773438 684.410156 915.773438 684.761719 915.449219 685.375 C 915.449219 685.375 915.125 685.984375 914.550781 686.660156 C 914.550781 686.660156 913.976563 687.335938 913 687.824219 C 913 687.824219 912.023438 688.3125 910.925781 688.3125 C 910.925781 688.3125 908.375 688.3125 907.476563 686.785156 C 907.476563 686.785156 906.375 688.3125 904.800781 688.3125 C 904.800781 688.3125 903.625 688.3125 902.789063 687.699219 C 902.789063 687.699219 901.949219 687.085938 901.949219 686.109375 C 901.949219 686.109375 901.949219 685.234375 902.5 684.699219 C 902.5 684.699219 903.050781 684.160156 903.75 684.160156 C 903.75 684.160156 904.324219 684.160156 904.664063 684.511719 C 904.664063 684.511719 905 684.859375 905 685.3125 C 905 685.3125 905 685.835938 904.636719 686.347656 C 904.636719 686.347656 904.273438 686.859375 903.648438 687.035156 C 903.648438 687.035156 904.148438 687.410156 904.851563 687.410156 C 904.851563 687.410156 905.523438 687.410156 906.113281 686.824219 C 906.113281 686.824219 906.699219 686.234375 906.976563 685.136719 L 907.824219 681.710938 C 907.824219 681.710938 908.398438 679.410156 908.398438 678.960938 C 908.398438 678.960938 908.398438 677.710938 907 677.710938 C 907 677.710938 906.050781 677.710938 905 678.449219 C 905 678.449219 903.949219 679.1875 903.449219 680.734375 C 903.449219 680.734375 903.351563 681.0625 902.875 681.0625 C 902.875 681.0625 902.273438 681.0625 902.273438 680.710938 C 902.273438 680.710938 902.273438 680.359375 902.601563 679.75 C 902.601563 679.75 902.925781 679.136719 903.5 678.460938 C 903.5 678.460938 904.074219 677.785156 905.050781 677.296875 C 905.050781 677.296875 906.023438 676.8125 907.125 676.8125 C 907.125 676.8125 909.675781 676.8125 910.574219 678.335938 C 910.574219 678.335938 911.675781 676.8125 913.25 676.8125 C 913.25 676.8125 914.425781 676.8125 915.261719 677.421875 C 915.261719 677.421875 916.101563 678.035156 916.101563 679.011719 C 916.101563 679.011719 916.101563 679.886719 915.550781 680.421875 C 915.550781 680.421875 915 680.960938 914.300781 680.960938 C 914.300781 680.960938 913.726563 680.960938 913.386719 680.609375 C 913.386719 680.609375 913.050781 680.261719 913.050781 679.8125 C 913.050781 679.8125 913.050781 679.285156 913.414063 678.773438 C 913.414063 678.773438 913.773438 678.261719 914.398438 678.085938 Z M 914.398438 678.085938 "/>
<path style=" stroke:none;fill-rule:nonzero;fill:rgb(0%,0%,0%);fill-opacity:1;" d="M 517.425781 229.6875 L 515.074219 239.136719 C 515.074219 239.136719 514.523438 241.359375 512.460938 242.761719 C 512.460938 242.761719 510.398438 244.160156 508.125 244.160156 C 508.125 244.160156 506.625 244.160156 505.699219 243.5625 C 505.699219 243.5625 504.773438 242.960938 504.773438 241.984375 C 504.773438 241.984375 504.773438 241.1875 505.3125 240.636719 C 505.3125 240.636719 505.851563 240.085938 506.574219 240.085938 C 506.574219 240.085938 507.050781 240.085938 507.425781 240.359375 C 507.425781 240.359375 507.800781 240.636719 507.800781 241.234375 C 507.800781 241.234375 507.800781 242.410156 506.601563 242.910156 C 506.601563 242.910156 507.175781 243.261719 508.125 243.261719 C 508.125 243.261719 509.5 243.261719 510.710938 242.011719 C 510.710938 242.011719 511.925781 240.761719 512.425781 238.5625 C 512.425781 238.5625 511.351563 239.3125 510.023438 239.3125 C 510.023438 239.3125 509.351563 239.3125 508.761719 239.199219 C 508.761719 239.199219 508.175781 239.085938 507.511719 238.773438 C 507.511719 238.773438 506.851563 238.460938 506.449219 237.761719 C 506.449219 237.761719 506.050781 237.0625 506.050781 236.0625 C 506.050781 236.0625 506.050781 235.1875 506.386719 234.097656 C 506.386719 234.097656 506.726563 233.011719 507.550781 230.859375 C 507.550781 230.859375 507.976563 229.734375 507.976563 229.234375 C 507.976563 229.234375 507.976563 228.984375 507.898438 228.859375 C 507.898438 228.859375 507.824219 228.734375 507.75 228.722656 C 507.75 228.722656 507.675781 228.710938 507.550781 228.710938 C 507.550781 228.710938 507.351563 228.710938 507.085938 228.8125 C 507.085938 228.8125 506.824219 228.910156 506.4375 229.171875 C 506.4375 229.171875 506.050781 229.4375 505.648438 230.097656 C 505.648438 230.097656 505.25 230.761719 504.976563 231.734375 C 504.976563 231.734375 504.875 232.0625 504.398438 232.0625 C 504.398438 232.0625 503.800781 232.0625 503.800781 231.710938 C 503.800781 231.710938 503.800781 231.460938 504.050781 230.875 C 504.050781 230.875 504.300781 230.285156 504.75 229.574219 C 504.75 229.574219 505.199219 228.859375 505.988281 228.335938 C 505.988281 228.335938 506.773438 227.8125 507.699219 227.8125 C 507.699219 227.8125 508.824219 227.8125 509.675781 228.421875 C 509.675781 228.421875 510.523438 229.035156 510.523438 230.0625 C 510.523438 230.0625 510.523438 230.460938 510.199219 231.3125 C 510.199219 231.3125 508.726563 235.109375 508.726563 236.585938 C 508.726563 236.585938 508.726563 238.410156 510.226563 238.410156 C 510.226563 238.410156 510.976563 238.410156 511.925781 237.8125 C 511.925781 237.8125 512 237.761719 512.1875 237.609375 C 512.1875 237.609375 512.375 237.460938 512.613281 237.160156 C 512.613281 237.160156 512.851563 236.859375 512.898438 236.609375 C 512.898438 236.609375 513.074219 235.9375 513.949219 232.460938 L 514.601563 229.859375 C 514.601563 229.859375 514.699219 229.484375 514.773438 229.261719 C 514.773438 229.261719 514.851563 229.035156 515.050781 228.699219 C 515.050781 228.699219 515.25 228.359375 515.585938 228.1875 C 515.585938 228.1875 515.925781 228.011719 516.375 228.011719 C 516.375 228.011719 516.925781 228.011719 517.238281 228.335938 C 517.238281 228.335938 517.550781 228.660156 517.550781 229.109375 C 517.550781 229.109375 517.550781 229.234375 517.425781 229.6875 Z M 517.425781 229.6875 "/>
<path style=" stroke:none;fill-rule:nonzero;fill:rgb(0%,0%,0%);fill-opacity:1;" d="M 545.328125 230.8125 L 528.253906 230.8125 C 528.253906 230.8125 527.226563 230.8125 527.226563 230.0625 C 527.226563 230.0625 527.226563 229.285156 528.378906 229.285156 L 545.203125 229.285156 C 545.203125 229.285156 546.351563 229.285156 546.351563 230.0625 C 546.351563 230.0625 546.351563 230.8125 545.328125 230.8125 M 545.203125 236.410156 L 528.378906 236.410156 C 528.378906 236.410156 527.226563 236.410156 527.226563 235.636719 C 527.226563 235.636719 527.226563 234.886719 528.253906 234.886719 L 545.328125 234.886719 C 545.328125 234.886719 546.351563 234.886719 546.351563 235.636719 C 546.351563 235.636719 546.351563 236.410156 545.203125 236.410156 Z M 545.203125 236.410156 "/>
<path style=" stroke:none;fill-rule:nonzero;fill:rgb(0%,0%,0%);fill-opacity:1;" d="M 568.332031 229.085938 C 568.332031 229.085938 567.832031 228.710938 567.132813 228.710938 C 567.132813 228.710938 566.457031 228.710938 565.871094 229.3125 C 565.871094 229.3125 565.28125 229.910156 565.007813 230.984375 C 565.007813 230.984375 564.933594 231.210938 564.558594 232.6875 C 564.558594 232.6875 564.183594 234.160156 564.132813 234.386719 C 564.132813 234.386719 563.582031 236.636719 563.582031 237.160156 C 563.582031 237.160156 563.582031 238.410156 564.984375 238.410156 C 564.984375 238.410156 565.933594 238.410156 566.984375 237.671875 C 566.984375 237.671875 568.03125 236.9375 568.53125 235.386719 C 568.53125 235.386719 568.632813 235.0625 569.109375 235.0625 C 569.109375 235.0625 569.707031 235.0625 569.707031 235.410156 C 569.707031 235.410156 569.707031 235.761719 569.382813 236.375 C 569.382813 236.375 569.058594 236.984375 568.484375 237.660156 C 568.484375 237.660156 567.90625 238.335938 566.933594 238.824219 C 566.933594 238.824219 565.957031 239.3125 564.859375 239.3125 C 564.859375 239.3125 562.308594 239.3125 561.40625 237.785156 C 561.40625 237.785156 560.308594 239.3125 558.734375 239.3125 C 558.734375 239.3125 557.558594 239.3125 556.71875 238.699219 C 556.71875 238.699219 555.882813 238.085938 555.882813 237.109375 C 555.882813 237.109375 555.882813 236.234375 556.433594 235.699219 C 556.433594 235.699219 556.984375 235.160156 557.683594 235.160156 C 557.683594 235.160156 558.257813 235.160156 558.59375 235.511719 C 558.59375 235.511719 558.933594 235.859375 558.933594 236.3125 C 558.933594 236.3125 558.933594 236.835938 558.570313 237.347656 C 558.570313 237.347656 558.207031 237.859375 557.582031 238.035156 C 557.582031 238.035156 558.082031 238.410156 558.78125 238.410156 C 558.78125 238.410156 559.457031 238.410156 560.046875 237.824219 C 560.046875 237.824219 560.632813 237.234375 560.90625 236.136719 L 561.757813 232.710938 C 561.757813 232.710938 562.332031 230.410156 562.332031 229.960938 C 562.332031 229.960938 562.332031 228.710938 560.933594 228.710938 C 560.933594 228.710938 559.984375 228.710938 558.933594 229.449219 C 558.933594 229.449219 557.882813 230.1875 557.382813 231.734375 C 557.382813 231.734375 557.28125 232.0625 556.808594 232.0625 C 556.808594 232.0625 556.207031 232.0625 556.207031 231.710938 C 556.207031 231.710938 556.207031 231.359375 556.53125 230.75 C 556.53125 230.75 556.859375 230.136719 557.433594 229.460938 C 557.433594 229.460938 558.007813 228.785156 558.984375 228.296875 C 558.984375 228.296875 559.957031 227.8125 561.058594 227.8125 C 561.058594 227.8125 563.609375 227.8125 564.507813 229.335938 C 564.507813 229.335938 565.609375 227.8125 567.183594 227.8125 C 567.183594 227.8125 568.359375 227.8125 569.195313 228.421875 C 569.195313 228.421875 570.03125 229.035156 570.03125 230.011719 C 570.03125 230.011719 570.03125 230.886719 569.484375 231.421875 C 569.484375 231.421875 568.933594 231.960938 568.234375 231.960938 C 568.234375 231.960938 567.65625 231.960938 567.320313 231.609375 C 567.320313 231.609375 566.984375 231.261719 566.984375 230.8125 C 566.984375 230.8125 566.984375 230.285156 567.34375 229.773438 C 567.34375 229.773438 567.707031 229.261719 568.332031 229.085938 Z M 568.332031 229.085938 "/>
<path style=" stroke:none;fill-rule:nonzero;fill:rgb(0%,0%,0%);fill-opacity:1;" d="M 801.425781 294.597656 L 799.074219 304.046875 C 799.074219 304.046875 798.523438 306.273438 796.460938 307.671875 C 796.460938 307.671875 794.398438 309.074219 792.125 309.074219 C 792.125 309.074219 790.625 309.074219 789.699219 308.472656 C 789.699219 308.472656 788.773438 307.875 788.773438 306.898438 C 788.773438 306.898438 788.773438 306.097656 789.3125 305.546875 C 789.3125 305.546875 789.851563 305 790.574219 305 C 790.574219 305 791.050781 305 791.425781 305.273438 C 791.425781 305.273438 791.800781 305.546875 791.800781 306.148438 C 791.800781 306.148438 791.800781 307.324219 790.601563 307.824219 C 790.601563 307.824219 791.175781 308.171875 792.125 308.171875 C 792.125 308.171875 793.5 308.171875 794.710938 306.921875 C 794.710938 306.921875 795.925781 305.671875 796.425781 303.472656 C 796.425781 303.472656 795.351563 304.222656 794.023438 304.222656 C 794.023438 304.222656 793.351563 304.222656 792.761719 304.109375 C 792.761719 304.109375 792.175781 304 791.511719 303.6875 C 791.511719 303.6875 790.851563 303.375 790.449219 302.671875 C 790.449219 302.671875 790.050781 301.972656 790.050781 300.972656 C 790.050781 300.972656 790.050781 300.097656 790.386719 299.011719 C 790.386719 299.011719 790.726563 297.921875 791.550781 295.773438 C 791.550781 295.773438 791.976563 294.648438 791.976563 294.148438 C 791.976563 294.148438 791.976563 293.898438 791.898438 293.773438 C 791.898438 293.773438 791.824219 293.648438 791.75 293.636719 C 791.75 293.636719 791.675781 293.625 791.550781 293.625 C 791.550781 293.625 791.351563 293.625 791.085938 293.722656 C 791.085938 293.722656 790.824219 293.824219 790.4375 294.085938 C 790.4375 294.085938 790.050781 294.347656 789.648438 295.011719 C 789.648438 295.011719 789.25 295.671875 788.976563 296.648438 C 788.976563 296.648438 788.875 296.972656 788.398438 296.972656 C 788.398438 296.972656 787.800781 296.972656 787.800781 296.625 C 787.800781 296.625 787.800781 296.375 788.050781 295.785156 C 788.050781 295.785156 788.300781 295.199219 788.75 294.484375 C 788.75 294.484375 789.199219 293.773438 789.988281 293.25 C 789.988281 293.25 790.773438 292.722656 791.699219 292.722656 C 791.699219 292.722656 792.824219 292.722656 793.675781 293.335938 C 793.675781 293.335938 794.523438 293.949219 794.523438 294.972656 C 794.523438 294.972656 794.523438 295.375 794.199219 296.222656 C 794.199219 296.222656 792.726563 300.023438 792.726563 301.5 C 792.726563 301.5 792.726563 303.324219 794.226563 303.324219 C 794.226563 303.324219 794.976563 303.324219 795.925781 302.722656 C 795.925781 302.722656 796 302.671875 796.1875 302.523438 C 796.1875 302.523438 796.375 302.375 796.613281 302.074219 C 796.613281 302.074219 796.851563 301.773438 796.898438 301.523438 C 796.898438 301.523438 797.074219 300.847656 797.949219 297.375 L 798.601563 294.773438 C 798.601563 294.773438 798.699219 294.398438 798.773438 294.171875 C 798.773438 294.171875 798.851563 293.949219 799.050781 293.609375 C 799.050781 293.609375 799.25 293.273438 799.585938 293.097656 C 799.585938 293.097656 799.925781 292.921875 800.375 292.921875 C 800.375 292.921875 800.925781 292.921875 801.238281 293.25 C 801.238281 293.25 801.550781 293.574219 801.550781 294.023438 C 801.550781 294.023438 801.550781 294.148438 801.425781 294.597656 Z M 801.425781 294.597656 "/>
<path style=" stroke:none;fill-rule:nonzero;fill:rgb(0%,0%,0%);fill-opacity:1;" d="M 829.328125 295.722656 L 812.253906 295.722656 C 812.253906 295.722656 811.226563 295.722656 811.226563 294.972656 C 811.226563 294.972656 811.226563 294.199219 812.378906 294.199219 L 829.203125 294.199219 C 829.203125 294.199219 830.351563 294.199219 830.351563 294.972656 C 830.351563 294.972656 830.351563 295.722656 829.328125 295.722656 M 829.203125 301.324219 L 812.378906 301.324219 C 812.378906 301.324219 811.226563 301.324219 811.226563 300.546875 C 811.226563 300.546875 811.226563 299.796875 812.253906 299.796875 L 829.328125 299.796875 C 829.328125 299.796875 830.351563 299.796875 830.351563 300.546875 C 830.351563 300.546875 830.351563 301.324219 829.203125 301.324219 Z M 829.203125 301.324219 "/>
<path style=" stroke:none;fill-rule:nonzero;fill:rgb(0%,0%,0%);fill-opacity:1;" d="M 855.332031 277.085938 C 855.332031 277.085938 854.832031 276.710938 854.132813 276.710938 C 854.132813 276.710938 853.457031 276.710938 852.871094 277.3125 C 852.871094 277.3125 852.28125 277.910156 852.007813 278.984375 C 852.007813 278.984375 851.933594 279.210938 851.558594 280.6875 C 851.558594 280.6875 851.183594 282.160156 851.132813 282.386719 C 851.132813 282.386719 850.582031 284.636719 850.582031 285.160156 C 850.582031 285.160156 850.582031 286.410156 851.984375 286.410156 C 851.984375 286.410156 852.933594 286.410156 853.984375 285.671875 C 853.984375 285.671875 855.03125 284.9375 855.53125 283.386719 C 855.53125 283.386719 855.632813 283.0625 856.109375 283.0625 C 856.109375 283.0625 856.707031 283.0625 856.707031 283.410156 C 856.707031 283.410156 856.707031 283.761719 856.382813 284.375 C 856.382813 284.375 856.058594 284.984375 855.484375 285.660156 C 855.484375 285.660156 854.90625 286.335938 853.933594 286.824219 C 853.933594 286.824219 852.957031 287.3125 851.859375 287.3125 C 851.859375 287.3125 849.308594 287.3125 848.40625 285.785156 C 848.40625 285.785156 847.308594 287.3125 845.734375 287.3125 C 845.734375 287.3125 844.558594 287.3125 843.71875 286.699219 C 843.71875 286.699219 842.882813 286.085938 842.882813 285.109375 C 842.882813 285.109375 842.882813 284.234375 843.433594 283.699219 C 843.433594 283.699219 843.984375 283.160156 844.683594 283.160156 C 844.683594 283.160156 845.257813 283.160156 845.59375 283.511719 C 845.59375 283.511719 845.933594 283.859375 845.933594 284.3125 C 845.933594 284.3125 845.933594 284.835938 845.570313 285.347656 C 845.570313 285.347656 845.207031 285.859375 844.582031 286.035156 C 844.582031 286.035156 845.082031 286.410156 845.78125 286.410156 C 845.78125 286.410156 846.457031 286.410156 847.046875 285.824219 C 847.046875 285.824219 847.632813 285.234375 847.90625 284.136719 L 848.757813 280.710938 C 848.757813 280.710938 849.332031 278.410156 849.332031 277.960938 C 849.332031 277.960938 849.332031 276.710938 847.933594 276.710938 C 847.933594 276.710938 846.984375 276.710938 845.933594 277.449219 C 845.933594 277.449219 844.882813 278.1875 844.382813 279.734375 C 844.382813 279.734375 844.28125 280.0625 843.808594 280.0625 C 843.808594 280.0625 843.207031 280.0625 843.207031 279.710938 C 843.207031 279.710938 843.207031 279.359375 843.53125 278.75 C 843.53125 278.75 843.859375 278.136719 844.433594 277.460938 C 844.433594 277.460938 845.007813 276.785156 845.984375 276.296875 C 845.984375 276.296875 846.957031 275.8125 848.058594 275.8125 C 848.058594 275.8125 850.609375 275.8125 851.507813 277.335938 C 851.507813 277.335938 852.609375 275.8125 854.183594 275.8125 C 854.183594 275.8125 855.359375 275.8125 856.195313 276.421875 C 856.195313 276.421875 857.03125 277.035156 857.03125 278.011719 C 857.03125 278.011719 857.03125 278.886719 856.484375 279.421875 C 856.484375 279.421875 855.933594 279.960938 855.234375 279.960938 C 855.234375 279.960938 854.65625 279.960938 854.320313 279.609375 C 854.320313 279.609375 853.984375 279.261719 853.984375 278.8125 C 853.984375 278.8125 853.984375 278.285156 854.34375 277.773438 C 854.34375 277.773438 854.707031 277.261719 855.332031 277.085938 Z M 855.332031 277.085938 "/>
<path style=" stroke:none;fill-rule:nonzero;fill:rgb(0%,0%,0%);fill-opacity:1;" d="M 841.933594 297.273438 L 858.410156 297.273438 L 858.410156 298.273438 L 841.933594 298.273438 L 841.933594 297.273438 "/>
<path style=" stroke:none;fill-rule:nonzero;fill:rgb(0%,0%,0%);fill-opacity:1;" d="M 854.660156 311.121094 C 854.660156 311.121094 854.3125 310.773438 853.6875 310.773438 C 853.6875 310.773438 852.085938 310.773438 850.9375 312.222656 C 850.9375 312.222656 850.636719 312.574219 850.511719 313.023438 C 850.511719 313.023438 850.488281 313.121094 849.636719 316.546875 C 849.636719 316.546875 848.785156 319.972656 848.761719 320.046875 C 848.761719 320.046875 848.585938 320.746094 848.085938 321.058594 C 848.085938 321.058594 847.585938 321.371094 847.113281 321.371094 C 847.113281 321.371094 846.5625 321.371094 846.25 321.035156 C 846.25 321.035156 845.9375 320.699219 845.9375 320.273438 L 846.386719 318.324219 C 846.386719 318.324219 846.660156 317.296875 846.886719 316.273438 C 846.886719 316.273438 846.960938 315.972656 847.238281 314.886719 C 847.238281 314.886719 847.511719 313.796875 847.585938 313.574219 C 847.585938 313.574219 847.9375 312.074219 847.9375 311.671875 C 847.9375 311.671875 847.9375 310.773438 847.363281 310.773438 C 847.363281 310.773438 846.285156 310.773438 845.660156 313.273438 C 845.660156 313.273438 845.488281 313.972656 845.460938 313.996094 C 845.460938 313.996094 845.335938 314.121094 844.960938 314.121094 C 844.960938 314.121094 844.363281 314.121094 844.363281 313.773438 C 844.363281 313.773438 844.363281 313.574219 844.636719 312.746094 C 844.636719 312.746094 844.910156 311.921875 845.3125 311.296875 C 845.3125 311.296875 846.1875 309.871094 847.488281 309.871094 C 847.488281 309.871094 848.3125 309.871094 849.160156 310.234375 C 849.160156 310.234375 850.011719 310.597656 850.410156 311.371094 C 850.410156 311.371094 851.8125 309.871094 853.738281 309.871094 C 853.738281 309.871094 854.863281 309.871094 855.523438 310.511719 C 855.523438 310.511719 856.1875 311.148438 856.1875 312.046875 C 856.1875 312.046875 856.1875 312.949219 855.636719 313.484375 C 855.636719 313.484375 855.085938 314.023438 854.386719 314.023438 C 854.386719 314.023438 853.8125 314.023438 853.472656 313.671875 C 853.472656 313.671875 853.136719 313.324219 853.136719 312.871094 C 853.136719 312.871094 853.136719 312.648438 853.210938 312.359375 C 853.210938 312.359375 853.285156 312.074219 853.660156 311.660156 C 853.660156 311.660156 854.035156 311.246094 854.660156 311.121094 Z M 854.660156 311.121094 "/>
<path style=" stroke:none;fill-rule:nonzero;fill:rgb(0%,0%,0%);fill-opacity:1;" d="M 106.210938 683.886719 C 106.210938 683.886719 106.210938 683.886719 106.21875 684.136719 C 106.21875 684.136719 106.226563 684.386719 106.226563 685.136719 C 106.226563 685.136719 106.226563 685.886719 106.210938 686.398438 C 106.210938 686.398438 106.199219 686.910156 106.074219 687.847656 C 106.074219 687.847656 105.949219 688.785156 105.738281 689.449219 C 105.738281 689.449219 105.523438 690.109375 105.074219 690.910156 C 105.074219 690.910156 104.625 691.710938 104 692.210938 C 104 692.210938 103.375 692.710938 102.386719 693.046875 C 102.386719 693.046875 101.398438 693.386719 100.175781 693.386719 C 100.175781 693.386719 98.925781 693.386719 97.9375 693.035156 C 97.9375 693.035156 96.949219 692.6875 96.335938 692.199219 C 96.335938 692.199219 95.726563 691.710938 95.273438 690.898438 C 95.273438 690.898438 94.824219 690.085938 94.613281 689.4375 C 94.613281 689.4375 94.398438 688.785156 94.273438 687.835938 C 94.273438 687.835938 94.148438 686.886719 94.136719 686.386719 C 94.136719 686.386719 94.125 685.886719 94.125 685.136719 C 94.125 685.136719 94.125 684.386719 94.136719 683.886719 C 94.136719 683.886719 94.148438 683.386719 94.273438 682.421875 C 94.273438 682.421875 94.398438 681.460938 94.613281 680.785156 C 94.613281 680.785156 94.824219 680.109375 95.273438 679.285156 C 95.273438 679.285156 95.726563 678.460938 96.335938 677.949219 C 96.335938 677.949219 96.949219 677.4375 97.9375 677.085938 C 97.9375 677.085938 98.925781 676.734375 100.175781 676.734375 C 100.175781 676.734375 101.425781 676.734375 102.414063 677.097656 C 102.414063 677.097656 103.398438 677.460938 104.011719 677.960938 C 104.011719 677.960938 104.625 678.460938 105.074219 679.296875 C 105.074219 679.296875 105.523438 680.136719 105.738281 680.796875 C 105.738281 680.796875 105.949219 681.460938 106.074219 682.421875 C 106.074219 682.421875 106.199219 683.386719 106.210938 683.886719 M 100.175781 692.484375 C 100.175781 692.484375 100.675781 692.484375 101.148438 692.324219 C 101.148438 692.324219 101.625 692.160156 102.164063 691.523438 C 102.164063 691.523438 102.699219 690.886719 102.851563 689.8125 C 102.851563 689.8125 103.023438 688.511719 103.023438 684.835938 C 103.023438 684.835938 103.023438 680.136719 102.601563 679.210938 C 102.601563 679.210938 102.273438 678.4375 101.601563 678.035156 C 101.601563 678.035156 100.925781 677.636719 100.175781 677.636719 C 100.175781 677.636719 99.726563 677.636719 99.261719 677.761719 C 99.261719 677.761719 98.800781 677.886719 98.226563 678.5 C 98.226563 678.5 97.648438 679.109375 97.523438 680.109375 C 97.523438 680.109375 97.324219 681.410156 97.324219 684.835938 C 97.324219 684.835938 97.324219 688.8125 97.550781 690.109375 C 97.550781 690.109375 97.773438 691.335938 98.5625 691.910156 C 98.5625 691.910156 99.351563 692.484375 100.175781 692.484375 Z M 100.175781 692.484375 "/>
<path style=" stroke:none;fill-rule:nonzero;fill:rgb(0%,0%,0%);fill-opacity:1;" d="M 106.101563 730.0625 C 106.101563 730.0625 105.75 729.710938 105.125 729.710938 C 105.125 729.710938 103.523438 729.710938 102.375 731.160156 C 102.375 731.160156 102.074219 731.511719 101.949219 731.960938 C 101.949219 731.960938 101.925781 732.0625 101.074219 735.484375 C 101.074219 735.484375 100.226563 738.910156 100.199219 738.984375 C 100.199219 738.984375 100.023438 739.6875 99.523438 740 C 99.523438 740 99.023438 740.3125 98.550781 740.3125 C 98.550781 740.3125 98 740.3125 97.6875 739.972656 C 97.6875 739.972656 97.375 739.636719 97.375 739.210938 L 97.824219 737.261719 C 97.824219 737.261719 98.101563 736.234375 98.324219 735.210938 C 98.324219 735.210938 98.398438 734.910156 98.675781 733.824219 C 98.675781 733.824219 98.949219 732.734375 99.023438 732.511719 C 99.023438 732.511719 99.375 731.011719 99.375 730.609375 C 99.375 730.609375 99.375 729.710938 98.800781 729.710938 C 98.800781 729.710938 97.726563 729.710938 97.101563 732.210938 C 97.101563 732.210938 96.925781 732.910156 96.898438 732.9375 C 96.898438 732.9375 96.773438 733.0625 96.398438 733.0625 C 96.398438 733.0625 95.800781 733.0625 95.800781 732.710938 C 95.800781 732.710938 95.800781 732.511719 96.074219 731.6875 C 96.074219 731.6875 96.351563 730.859375 96.75 730.234375 C 96.75 730.234375 97.625 728.8125 98.925781 728.8125 C 98.925781 728.8125 99.75 728.8125 100.601563 729.171875 C 100.601563 729.171875 101.449219 729.535156 101.851563 730.3125 C 101.851563 730.3125 103.25 728.8125 105.175781 728.8125 C 105.175781 728.8125 106.300781 728.8125 106.960938 729.449219 C 106.960938 729.449219 107.625 730.085938 107.625 730.984375 C 107.625 730.984375 107.625 731.886719 107.074219 732.421875 C 107.074219 732.421875 106.523438 732.960938 105.824219 732.960938 C 105.824219 732.960938 105.25 732.960938 104.914063 732.609375 C 104.914063 732.609375 104.574219 732.261719 104.574219 731.8125 C 104.574219 731.8125 104.574219 731.585938 104.648438 731.296875 C 104.648438 731.296875 104.726563 731.011719 105.101563 730.597656 C 105.101563 730.597656 105.476563 730.1875 106.101563 730.0625 Z M 106.101563 730.0625 "/>
</g>
</svg>
