<svg version="1.1" xmlns="http://www.w3.org/2000/svg" xmlns:xlink="http://www.w3.org/1999/xlink" width="1249" height="847"><defs><clipPath id="xMKQHGDMmkMZ"><path fill="none" stroke="none" d=" M 0 0 L 1249 0 L 1249 847 L 0 847 L 0 0 Z"/></clipPath></defs><g transform="scale(1,1)" clip-path="url(#xMKQHGDMmkMZ)"><g><rect fill="rgb(255,255,255)" stroke="none" x="0" y="0" width="1249" height="847" fill-opacity="1"/><path fill="none" stroke="rgb(0,0,0)" paint-order="fill stroke markers" d=" M 164.3759680265752 555.9402804210162 L 180.32040580740357 396.4959026127312" stroke-opacity="0.6980392156862745" stroke-linecap="round" stroke-linejoin="round" stroke-miterlimit="10" stroke-width="2.5"/><path fill="none" stroke="rgb(0,0,0)" paint-order="fill stroke markers" d=" M 180.32040580740357 396.4959026127312 L 196.2648435882319 555.9402804210162" stroke-opacity="0.6980392156862745" stroke-linecap="round" stroke-linejoin="round" stroke-miterlimit="10" stroke-width="2.5"/><path fill="none" stroke="rgb(0,0,0)" paint-order="fill stroke markers" d=" M 307.87590805403033 396.4959026127312 L 323.8203458348586 555.9402804210162" stroke-opacity="0.6980392156862745" stroke-linecap="round" stroke-linejoin="round" stroke-miterlimit="10" stroke-width="2.5"/><path fill="none" stroke="rgb(0,0,0)" paint-order="fill stroke markers" d=" M 307.87590805403033 396.4959026127312 L 291.93147027320197 555.9402804210162" stroke-opacity="0.6980392156862745" stroke-linecap="round" stroke-linejoin="round" stroke-miterlimit="10" stroke-width="2.5"/><path fill="none" stroke="rgb(0,0,0)" paint-order="fill stroke markers" d=" M 435.43141030065703 396.4959026127312 L 419.48697251982867 555.9402804210162" stroke-opacity="0.6980392156862745" stroke-linecap="round" stroke-linejoin="round" stroke-miterlimit="10" stroke-width="2.5"/><path fill="none" stroke="rgb(0,0,0)" paint-order="fill stroke markers" d=" M 435.43141030065703 396.4959026127312 L 451.3758480814854 555.9402804210162" stroke-opacity="0.6980392156862745" stroke-linecap="round" stroke-linejoin="round" stroke-miterlimit="10" stroke-width="2.5"/><path fill="none" stroke="rgb(0,0,0)" paint-order="fill stroke markers" d=" M 562.9869125472837 396.4959026127312 L 547.0424747664554 555.9402804210162" stroke-opacity="0.6980392156862745" stroke-linecap="round" stroke-linejoin="round" stroke-miterlimit="10" stroke-width="2.5"/><path fill="none" stroke="rgb(0,0,0)" paint-order="fill stroke markers" d=" M 562.9869125472837 396.4959026127312 L 578.931350328112 555.9402804210162" stroke-opacity="0.6980392156862745" stroke-linecap="round" stroke-linejoin="round" stroke-miterlimit="10" stroke-width="2.5"/><path fill="none" stroke="rgb(0,0,0)" paint-order="fill stroke markers" d=" M 690.5424147939104 396.4959026127312 L 674.5979770130821 555.9402804210162" stroke-opacity="0.6980392156862745" stroke-linecap="round" stroke-linejoin="round" stroke-miterlimit="10" stroke-width="2.5"/><path fill="none" stroke="rgb(0,0,0)" paint-order="fill stroke markers" d=" M 706.4868525747387 555.9402804210162 L 690.5424147939104 396.4959026127312" stroke-opacity="0.6980392156862745" stroke-linecap="round" stroke-linejoin="round" stroke-miterlimit="10" stroke-width="2.5"/><path fill="none" stroke="rgb(0,0,0)" paint-order="fill stroke markers" d=" M 802.1534792597089 555.9402804210162 L 818.0979170405371 396.4959026127312" stroke-opacity="0.6980392156862745" stroke-linecap="round" stroke-linejoin="round" stroke-miterlimit="10" stroke-width="2.5"/><path fill="none" stroke="rgb(0,0,0)" paint-order="fill stroke markers" d=" M 818.0979170405371 396.4959026127312 L 834.0423548213655 555.9402804210162" stroke-opacity="0.6980392156862745" stroke-linecap="round" stroke-linejoin="round" stroke-miterlimit="10" stroke-width="2.5"/><path fill="none" stroke="rgb(0,0,0)" paint-order="fill stroke markers" d=" M 929.7089815063356 555.9402804210162 L 945.6534192871638 396.4959026127312" stroke-opacity="0.6980392156862745" stroke-linecap="round" stroke-linejoin="round" stroke-miterlimit="10" stroke-width="2.5"/><path fill="none" stroke="rgb(0,0,0)" paint-order="fill stroke markers" d=" M 945.6534192871638 396.4959026127312 L 961.5978570679922 555.9402804210162" stroke-opacity="0.6980392156862745" stroke-linecap="round" stroke-linejoin="round" stroke-miterlimit="10" stroke-width="2.5"/><path fill="none" stroke="rgb(0,0,0)" paint-order="fill stroke markers" d=" M 1073.2089215337908 237.05152480444622 L 1057.2644837529624 555.9402804210162" stroke-opacity="0.6980392156862745" stroke-linecap="round" stroke-linejoin="round" stroke-miterlimit="10" stroke-width="2.5"/><path fill="none" stroke="rgb(0,0,0)" paint-order="fill stroke markers" d=" M 1200.7644237804175 396.4959026127312 L 1089.1533593146191 396.4959026127312" stroke-opacity="0.6980392156862745" stroke-linecap="round" stroke-linejoin="round" stroke-miterlimit="10" stroke-width="2.5"/><path fill="none" stroke="rgb(0,0,0)" paint-order="fill stroke markers" d=" M 1073.2089215337908 237.05152480444622 L 1089.1533593146191 396.4959026127312" stroke-opacity="0.6980392156862745" stroke-linecap="round" stroke-linejoin="round" stroke-miterlimit="10" stroke-width="2.5"/><path fill="none" stroke="rgb(0,0,0)" paint-order="fill stroke markers" d=" M 196.2648435882319 555.9402804210162 L 291.93147027320197 555.9402804210162" stroke-opacity="0.6980392156862745" stroke-linecap="round" stroke-linejoin="round" stroke-miterlimit="10" stroke-width="2.5"/><path fill="none" stroke="rgb(0,0,0)" paint-order="fill stroke markers" d=" M 323.8203458348586 555.9402804210162 L 419.48697251982867 555.9402804210162" stroke-opacity="0.6980392156862745" stroke-linecap="round" stroke-linejoin="round" stroke-miterlimit="10" stroke-width="2.5"/><path fill="none" stroke="rgb(0,0,0)" paint-order="fill stroke markers" d=" M 451.3758480814854 555.9402804210162 L 547.0424747664554 555.9402804210162" stroke-opacity="0.6980392156862745" stroke-linecap="round" stroke-linejoin="round" stroke-miterlimit="10" stroke-width="2.5"/><path fill="none" stroke="rgb(0,0,0)" paint-order="fill stroke markers" d=" M 578.931350328112 555.9402804210162 L 674.5979770130821 555.9402804210162" stroke-opacity="0.6980392156862745" stroke-linecap="round" stroke-linejoin="round" stroke-miterlimit="10" stroke-width="2.5"/><path fill="none" stroke="rgb(0,0,0)" paint-order="fill stroke markers" d=" M 706.4868525747387 555.9402804210162 L 802.1534792597089 555.9402804210162" stroke-opacity="0.6980392156862745" stroke-linecap="round" stroke-linejoin="round" stroke-miterlimit="10" stroke-width="2.5"/><path fill="none" stroke="rgb(0,0,0)" paint-order="fill stroke markers" d=" M 834.0423548213655 555.9402804210162 L 929.7089815063356 555.9402804210162" stroke-opacity="0.6980392156862745" stroke-linecap="round" stroke-linejoin="round" stroke-miterlimit="10" stroke-width="2.5"/><path fill="none" stroke="rgb(0,0,0)" paint-order="fill stroke markers" d=" M 961.5978570679922 555.9402804210162 L 1057.2644837529624 555.9402804210162" stroke-opacity="0.6980392156862745" stroke-linecap="round" stroke-linejoin="round" stroke-miterlimit="10" stroke-width="2.5"/><path fill="none" stroke="rgb(0,0,0)" paint-order="fill stroke markers" d=" M 68.70934134160518 555.9402804210162 L 164.3759680265752 555.9402804210162" stroke-opacity="0.6980392156862745" stroke-linecap="round" stroke-linejoin="round" stroke-miterlimit="10" stroke-width="2.5"/><path fill="none" stroke="rgb(0,0,0)" paint-order="fill stroke markers" d=" M 52.764903560776844 396.4959026127312 L 68.70934134160518 555.9402804210162" stroke-opacity="0.6980392156862745" stroke-linecap="round" stroke-linejoin="round" stroke-miterlimit="10" stroke-width="2.5"/><path fill="none" stroke="rgb(0,0,0)" paint-order="fill stroke markers" d=" M 180.32040580740357 364.60702705107417 L 307.87590805403033 364.60702705107417" stroke-opacity="0.6980392156862745" stroke-linejoin="round" stroke-miterlimit="10" stroke-width="2" stroke-dasharray="10,8"/><path fill="none" stroke="rgb(0,0,0)" paint-order="fill stroke markers" d=" M 1089.1533593146191 476.21809151687364 L 1200.7644237804175 476.21809151687364" stroke-opacity="0.6980392156862745" stroke-linejoin="round" stroke-miterlimit="10" stroke-width="2" stroke-dasharray="10,8"/><path fill="none" stroke="rgb(0,0,0)" paint-order="fill stroke markers" d=" M 52.764903560776844 635.6624693251587 L 963.5597106137383 634.2854417847482" stroke-opacity="0.6980392156862745" stroke-linejoin="round" stroke-miterlimit="10" stroke-width="2" stroke-dasharray="10,8"/><path fill="rgb(0,0,0)" stroke="none" paint-order="stroke fill markers" d=" M 57.764903560776844 396.4959026127312 C 57.764903560776844 399.25732636188513 55.52632730993081 401.4959026127312 52.764903560776844 401.4959026127312 C 50.003479811622874 401.4959026127312 47.764903560776844 399.25732636188513 47.764903560776844 396.4959026127312 C 47.764903560776844 393.73447886357724 50.003479811622874 391.4959026127312 52.764903560776844 391.4959026127312 C 55.52632730993081 391.4959026127312 57.764903560776844 393.73447886357724 57.764903560776844 396.4959026127312 Z" fill-opacity="1"/><path fill="none" stroke="rgb(0,0,0)" paint-order="fill stroke markers" d=" M 57.764903560776844 396.4959026127312 C 57.764903560776844 399.25732636188513 55.52632730993081 401.4959026127312 52.764903560776844 401.4959026127312 C 50.003479811622874 401.4959026127312 47.764903560776844 399.25732636188513 47.764903560776844 396.4959026127312 C 47.764903560776844 393.73447886357724 50.003479811622874 391.4959026127312 52.764903560776844 391.4959026127312 C 55.52632730993081 391.4959026127312 57.764903560776844 393.73447886357724 57.764903560776844 396.4959026127312 Z" stroke-opacity="1" stroke-linecap="round" stroke-linejoin="round" stroke-miterlimit="10"/><path fill="rgb(0,0,0)" stroke="none" paint-order="stroke fill markers" d=" M 169.3759680265752 555.9402804210162 C 169.3759680265752 558.7017041701702 167.13739177572918 560.9402804210162 164.3759680265752 560.9402804210162 C 161.61454427742123 560.9402804210162 159.3759680265752 558.7017041701702 159.3759680265752 555.9402804210162 C 159.3759680265752 553.1788566718621 161.61454427742123 550.9402804210162 164.3759680265752 550.9402804210162 C 167.13739177572918 550.9402804210162 169.3759680265752 553.1788566718621 169.3759680265752 555.9402804210162 Z" fill-opacity="1"/><path fill="none" stroke="rgb(0,0,0)" paint-order="fill stroke markers" d=" M 169.3759680265752 555.9402804210162 C 169.3759680265752 558.7017041701702 167.13739177572918 560.9402804210162 164.3759680265752 560.9402804210162 C 161.61454427742123 560.9402804210162 159.3759680265752 558.7017041701702 159.3759680265752 555.9402804210162 C 159.3759680265752 553.1788566718621 161.61454427742123 550.9402804210162 164.3759680265752 550.9402804210162 C 167.13739177572918 550.9402804210162 169.3759680265752 553.1788566718621 169.3759680265752 555.9402804210162 Z" stroke-opacity="1" stroke-linecap="round" stroke-linejoin="round" stroke-miterlimit="10"/><path fill="rgb(0,0,0)" stroke="none" paint-order="stroke fill markers" d=" M 185.32040580740357 396.4959026127312 C 185.32040580740357 399.25732636188513 183.08182955655755 401.4959026127312 180.32040580740357 401.4959026127312 C 177.5589820582496 401.4959026127312 175.32040580740357 399.25732636188513 175.32040580740357 396.4959026127312 C 175.32040580740357 393.73447886357724 177.5589820582496 391.4959026127312 180.32040580740357 391.4959026127312 C 183.08182955655755 391.4959026127312 185.32040580740357 393.73447886357724 185.32040580740357 396.4959026127312 Z" fill-opacity="1"/><path fill="none" stroke="rgb(0,0,0)" paint-order="fill stroke markers" d=" M 185.32040580740357 396.4959026127312 C 185.32040580740357 399.25732636188513 183.08182955655755 401.4959026127312 180.32040580740357 401.4959026127312 C 177.5589820582496 401.4959026127312 175.32040580740357 399.25732636188513 175.32040580740357 396.4959026127312 C 175.32040580740357 393.73447886357724 177.5589820582496 391.4959026127312 180.32040580740357 391.4959026127312 C 183.08182955655755 391.4959026127312 185.32040580740357 393.73447886357724 185.32040580740357 396.4959026127312 Z" stroke-opacity="1" stroke-linecap="round" stroke-linejoin="round" stroke-miterlimit="10"/><path fill="rgb(0,0,0)" stroke="none" paint-order="stroke fill markers" d=" M 201.2648435882319 555.9402804210162 C 201.2648435882319 558.7017041701702 199.0262673373859 560.9402804210162 196.2648435882319 560.9402804210162 C 193.50341983907794 560.9402804210162 191.2648435882319 558.7017041701702 191.2648435882319 555.9402804210162 C 191.2648435882319 553.1788566718621 193.50341983907794 550.9402804210162 196.2648435882319 550.9402804210162 C 199.0262673373859 550.9402804210162 201.2648435882319 553.1788566718621 201.2648435882319 555.9402804210162 Z" fill-opacity="1"/><path fill="none" stroke="rgb(0,0,0)" paint-order="fill stroke markers" d=" M 201.2648435882319 555.9402804210162 C 201.2648435882319 558.7017041701702 199.0262673373859 560.9402804210162 196.2648435882319 560.9402804210162 C 193.50341983907794 560.9402804210162 191.2648435882319 558.7017041701702 191.2648435882319 555.9402804210162 C 191.2648435882319 553.1788566718621 193.50341983907794 550.9402804210162 196.2648435882319 550.9402804210162 C 199.0262673373859 550.9402804210162 201.2648435882319 553.1788566718621 201.2648435882319 555.9402804210162 Z" stroke-opacity="1" stroke-linecap="round" stroke-linejoin="round" stroke-miterlimit="10"/><path fill="rgb(0,0,0)" stroke="none" paint-order="stroke fill markers" d=" M 312.87590805403033 396.4959026127312 C 312.87590805403033 399.25732636188513 310.6373318031843 401.4959026127312 307.87590805403033 401.4959026127312 C 305.1144843048764 401.4959026127312 302.87590805403033 399.25732636188513 302.87590805403033 396.4959026127312 C 302.87590805403033 393.73447886357724 305.1144843048764 391.4959026127312 307.87590805403033 391.4959026127312 C 310.6373318031843 391.4959026127312 312.87590805403033 393.73447886357724 312.87590805403033 396.4959026127312 Z" fill-opacity="1"/><path fill="none" stroke="rgb(0,0,0)" paint-order="fill stroke markers" d=" M 312.87590805403033 396.4959026127312 C 312.87590805403033 399.25732636188513 310.6373318031843 401.4959026127312 307.87590805403033 401.4959026127312 C 305.1144843048764 401.4959026127312 302.87590805403033 399.25732636188513 302.87590805403033 396.4959026127312 C 302.87590805403033 393.73447886357724 305.1144843048764 391.4959026127312 307.87590805403033 391.4959026127312 C 310.6373318031843 391.4959026127312 312.87590805403033 393.73447886357724 312.87590805403033 396.4959026127312 Z" stroke-opacity="1" stroke-linecap="round" stroke-linejoin="round" stroke-miterlimit="10"/><path fill="rgb(0,0,0)" stroke="none" paint-order="stroke fill markers" d=" M 328.8203458348586 555.9402804210162 C 328.8203458348586 558.7017041701702 326.58176958401253 560.9402804210162 323.8203458348586 560.9402804210162 C 321.05892208570464 560.9402804210162 318.8203458348586 558.7017041701702 318.8203458348586 555.9402804210162 C 318.8203458348586 553.1788566718621 321.05892208570464 550.9402804210162 323.8203458348586 550.9402804210162 C 326.58176958401253 550.9402804210162 328.8203458348586 553.1788566718621 328.8203458348586 555.9402804210162 Z" fill-opacity="1"/><path fill="none" stroke="rgb(0,0,0)" paint-order="fill stroke markers" d=" M 328.8203458348586 555.9402804210162 C 328.8203458348586 558.7017041701702 326.58176958401253 560.9402804210162 323.8203458348586 560.9402804210162 C 321.05892208570464 560.9402804210162 318.8203458348586 558.7017041701702 318.8203458348586 555.9402804210162 C 318.8203458348586 553.1788566718621 321.05892208570464 550.9402804210162 323.8203458348586 550.9402804210162 C 326.58176958401253 550.9402804210162 328.8203458348586 553.1788566718621 328.8203458348586 555.9402804210162 Z" stroke-opacity="1" stroke-linecap="round" stroke-linejoin="round" stroke-miterlimit="10"/><path fill="rgb(0,0,0)" stroke="none" paint-order="stroke fill markers" d=" M 296.93147027320197 555.9402804210162 C 296.93147027320197 558.7017041701702 294.6928940223559 560.9402804210162 291.93147027320197 560.9402804210162 C 289.170046524048 560.9402804210162 286.93147027320197 558.7017041701702 286.93147027320197 555.9402804210162 C 286.93147027320197 553.1788566718621 289.170046524048 550.9402804210162 291.93147027320197 550.9402804210162 C 294.6928940223559 550.9402804210162 296.93147027320197 553.1788566718621 296.93147027320197 555.9402804210162 Z" fill-opacity="1"/><path fill="none" stroke="rgb(0,0,0)" paint-order="fill stroke markers" d=" M 296.93147027320197 555.9402804210162 C 296.93147027320197 558.7017041701702 294.6928940223559 560.9402804210162 291.93147027320197 560.9402804210162 C 289.170046524048 560.9402804210162 286.93147027320197 558.7017041701702 286.93147027320197 555.9402804210162 C 286.93147027320197 553.1788566718621 289.170046524048 550.9402804210162 291.93147027320197 550.9402804210162 C 294.6928940223559 550.9402804210162 296.93147027320197 553.1788566718621 296.93147027320197 555.9402804210162 Z" stroke-opacity="1" stroke-linecap="round" stroke-linejoin="round" stroke-miterlimit="10"/><path fill="rgb(0,0,0)" stroke="none" paint-order="stroke fill markers" d=" M 440.43141030065703 396.4959026127312 C 440.43141030065703 399.25732636188513 438.192834049811 401.4959026127312 435.43141030065703 401.4959026127312 C 432.6699865515031 401.4959026127312 430.43141030065703 399.25732636188513 430.43141030065703 396.4959026127312 C 430.43141030065703 393.73447886357724 432.6699865515031 391.4959026127312 435.43141030065703 391.4959026127312 C 438.192834049811 391.4959026127312 440.43141030065703 393.73447886357724 440.43141030065703 396.4959026127312 Z" fill-opacity="1"/><path fill="none" stroke="rgb(0,0,0)" paint-order="fill stroke markers" d=" M 440.43141030065703 396.4959026127312 C 440.43141030065703 399.25732636188513 438.192834049811 401.4959026127312 435.43141030065703 401.4959026127312 C 432.6699865515031 401.4959026127312 430.43141030065703 399.25732636188513 430.43141030065703 396.4959026127312 C 430.43141030065703 393.73447886357724 432.6699865515031 391.4959026127312 435.43141030065703 391.4959026127312 C 438.192834049811 391.4959026127312 440.43141030065703 393.73447886357724 440.43141030065703 396.4959026127312 Z" stroke-opacity="1" stroke-linecap="round" stroke-linejoin="round" stroke-miterlimit="10"/><path fill="rgb(0,0,0)" stroke="none" paint-order="stroke fill markers" d=" M 424.48697251982867 555.9402804210162 C 424.48697251982867 558.7017041701702 422.2483962689826 560.9402804210162 419.48697251982867 560.9402804210162 C 416.7255487706747 560.9402804210162 414.48697251982867 558.7017041701702 414.48697251982867 555.9402804210162 C 414.48697251982867 553.1788566718621 416.7255487706747 550.9402804210162 419.48697251982867 550.9402804210162 C 422.2483962689826 550.9402804210162 424.48697251982867 553.1788566718621 424.48697251982867 555.9402804210162 Z" fill-opacity="1"/><path fill="none" stroke="rgb(0,0,0)" paint-order="fill stroke markers" d=" M 424.48697251982867 555.9402804210162 C 424.48697251982867 558.7017041701702 422.2483962689826 560.9402804210162 419.48697251982867 560.9402804210162 C 416.7255487706747 560.9402804210162 414.48697251982867 558.7017041701702 414.48697251982867 555.9402804210162 C 414.48697251982867 553.1788566718621 416.7255487706747 550.9402804210162 419.48697251982867 550.9402804210162 C 422.2483962689826 550.9402804210162 424.48697251982867 553.1788566718621 424.48697251982867 555.9402804210162 Z" stroke-opacity="1" stroke-linecap="round" stroke-linejoin="round" stroke-miterlimit="10"/><path fill="rgb(0,0,0)" stroke="none" paint-order="stroke fill markers" d=" M 456.3758480814854 555.9402804210162 C 456.3758480814854 558.7017041701702 454.13727183063935 560.9402804210162 451.3758480814854 560.9402804210162 C 448.61442433233145 560.9402804210162 446.3758480814854 558.7017041701702 446.3758480814854 555.9402804210162 C 446.3758480814854 553.1788566718621 448.61442433233145 550.9402804210162 451.3758480814854 550.9402804210162 C 454.13727183063935 550.9402804210162 456.3758480814854 553.1788566718621 456.3758480814854 555.9402804210162 Z" fill-opacity="1"/><path fill="none" stroke="rgb(0,0,0)" paint-order="fill stroke markers" d=" M 456.3758480814854 555.9402804210162 C 456.3758480814854 558.7017041701702 454.13727183063935 560.9402804210162 451.3758480814854 560.9402804210162 C 448.61442433233145 560.9402804210162 446.3758480814854 558.7017041701702 446.3758480814854 555.9402804210162 C 446.3758480814854 553.1788566718621 448.61442433233145 550.9402804210162 451.3758480814854 550.9402804210162 C 454.13727183063935 550.9402804210162 456.3758480814854 553.1788566718621 456.3758480814854 555.9402804210162 Z" stroke-opacity="1" stroke-linecap="round" stroke-linejoin="round" stroke-miterlimit="10"/><path fill="rgb(0,0,0)" stroke="none" paint-order="stroke fill markers" d=" M 567.9869125472837 396.4959026127312 C 567.9869125472837 399.25732636188513 565.7483362964377 401.4959026127312 562.9869125472837 401.4959026127312 C 560.2254887981297 401.4959026127312 557.9869125472837 399.25732636188513 557.9869125472837 396.4959026127312 C 557.9869125472837 393.73447886357724 560.2254887981297 391.4959026127312 562.9869125472837 391.4959026127312 C 565.7483362964377 391.4959026127312 567.9869125472837 393.73447886357724 567.9869125472837 396.4959026127312 Z" fill-opacity="1"/><path fill="none" stroke="rgb(0,0,0)" paint-order="fill stroke markers" d=" M 567.9869125472837 396.4959026127312 C 567.9869125472837 399.25732636188513 565.7483362964377 401.4959026127312 562.9869125472837 401.4959026127312 C 560.2254887981297 401.4959026127312 557.9869125472837 399.25732636188513 557.9869125472837 396.4959026127312 C 557.9869125472837 393.73447886357724 560.2254887981297 391.4959026127312 562.9869125472837 391.4959026127312 C 565.7483362964377 391.4959026127312 567.9869125472837 393.73447886357724 567.9869125472837 396.4959026127312 Z" stroke-opacity="1" stroke-linecap="round" stroke-linejoin="round" stroke-miterlimit="10"/><path fill="rgb(0,0,0)" stroke="none" paint-order="stroke fill markers" d=" M 552.0424747664554 555.9402804210162 C 552.0424747664554 558.7017041701702 549.8038985156094 560.9402804210162 547.0424747664554 560.9402804210162 C 544.2810510173014 560.9402804210162 542.0424747664554 558.7017041701702 542.0424747664554 555.9402804210162 C 542.0424747664554 553.1788566718621 544.2810510173014 550.9402804210162 547.0424747664554 550.9402804210162 C 549.8038985156094 550.9402804210162 552.0424747664554 553.1788566718621 552.0424747664554 555.9402804210162 Z" fill-opacity="1"/><path fill="none" stroke="rgb(0,0,0)" paint-order="fill stroke markers" d=" M 552.0424747664554 555.9402804210162 C 552.0424747664554 558.7017041701702 549.8038985156094 560.9402804210162 547.0424747664554 560.9402804210162 C 544.2810510173014 560.9402804210162 542.0424747664554 558.7017041701702 542.0424747664554 555.9402804210162 C 542.0424747664554 553.1788566718621 544.2810510173014 550.9402804210162 547.0424747664554 550.9402804210162 C 549.8038985156094 550.9402804210162 552.0424747664554 553.1788566718621 552.0424747664554 555.9402804210162 Z" stroke-opacity="1" stroke-linecap="round" stroke-linejoin="round" stroke-miterlimit="10"/><path fill="rgb(0,0,0)" stroke="none" paint-order="stroke fill markers" d=" M 583.931350328112 555.9402804210162 C 583.931350328112 558.7017041701702 581.692774077266 560.9402804210162 578.931350328112 560.9402804210162 C 576.169926578958 560.9402804210162 573.931350328112 558.7017041701702 573.931350328112 555.9402804210162 C 573.931350328112 553.1788566718621 576.169926578958 550.9402804210162 578.931350328112 550.9402804210162 C 581.692774077266 550.9402804210162 583.931350328112 553.1788566718621 583.931350328112 555.9402804210162 Z" fill-opacity="1"/><path fill="none" stroke="rgb(0,0,0)" paint-order="fill stroke markers" d=" M 583.931350328112 555.9402804210162 C 583.931350328112 558.7017041701702 581.692774077266 560.9402804210162 578.931350328112 560.9402804210162 C 576.169926578958 560.9402804210162 573.931350328112 558.7017041701702 573.931350328112 555.9402804210162 C 573.931350328112 553.1788566718621 576.169926578958 550.9402804210162 578.931350328112 550.9402804210162 C 581.692774077266 550.9402804210162 583.931350328112 553.1788566718621 583.931350328112 555.9402804210162 Z" stroke-opacity="1" stroke-linecap="round" stroke-linejoin="round" stroke-miterlimit="10"/><path fill="rgb(0,0,0)" stroke="none" paint-order="stroke fill markers" d=" M 695.5424147939104 396.4959026127312 C 695.5424147939104 399.25732636188513 693.3038385430644 401.4959026127312 690.5424147939104 401.4959026127312 C 687.7809910447564 401.4959026127312 685.5424147939104 399.25732636188513 685.5424147939104 396.4959026127312 C 685.5424147939104 393.73447886357724 687.7809910447564 391.4959026127312 690.5424147939104 391.4959026127312 C 693.3038385430644 391.4959026127312 695.5424147939104 393.73447886357724 695.5424147939104 396.4959026127312 Z" fill-opacity="1"/><path fill="none" stroke="rgb(0,0,0)" paint-order="fill stroke markers" d=" M 695.5424147939104 396.4959026127312 C 695.5424147939104 399.25732636188513 693.3038385430644 401.4959026127312 690.5424147939104 401.4959026127312 C 687.7809910447564 401.4959026127312 685.5424147939104 399.25732636188513 685.5424147939104 396.4959026127312 C 685.5424147939104 393.73447886357724 687.7809910447564 391.4959026127312 690.5424147939104 391.4959026127312 C 693.3038385430644 391.4959026127312 695.5424147939104 393.73447886357724 695.5424147939104 396.4959026127312 Z" stroke-opacity="1" stroke-linecap="round" stroke-linejoin="round" stroke-miterlimit="10"/><path fill="rgb(0,0,0)" stroke="none" paint-order="stroke fill markers" d=" M 679.5979770130821 555.9402804210162 C 679.5979770130821 558.7017041701702 677.3594007622361 560.9402804210162 674.5979770130821 560.9402804210162 C 671.8365532639281 560.9402804210162 669.5979770130821 558.7017041701702 669.5979770130821 555.9402804210162 C 669.5979770130821 553.1788566718621 671.8365532639281 550.9402804210162 674.5979770130821 550.9402804210162 C 677.3594007622361 550.9402804210162 679.5979770130821 553.1788566718621 679.5979770130821 555.9402804210162 Z" fill-opacity="1"/><path fill="none" stroke="rgb(0,0,0)" paint-order="fill stroke markers" d=" M 679.5979770130821 555.9402804210162 C 679.5979770130821 558.7017041701702 677.3594007622361 560.9402804210162 674.5979770130821 560.9402804210162 C 671.8365532639281 560.9402804210162 669.5979770130821 558.7017041701702 669.5979770130821 555.9402804210162 C 669.5979770130821 553.1788566718621 671.8365532639281 550.9402804210162 674.5979770130821 550.9402804210162 C 677.3594007622361 550.9402804210162 679.5979770130821 553.1788566718621 679.5979770130821 555.9402804210162 Z" stroke-opacity="1" stroke-linecap="round" stroke-linejoin="round" stroke-miterlimit="10"/><path fill="rgb(0,0,0)" stroke="none" paint-order="stroke fill markers" d=" M 711.4868525747387 555.9402804210162 C 711.4868525747387 558.7017041701702 709.2482763238927 560.9402804210162 706.4868525747387 560.9402804210162 C 703.7254288255847 560.9402804210162 701.4868525747387 558.7017041701702 701.4868525747387 555.9402804210162 C 701.4868525747387 553.1788566718621 703.7254288255847 550.9402804210162 706.4868525747387 550.9402804210162 C 709.2482763238927 550.9402804210162 711.4868525747387 553.1788566718621 711.4868525747387 555.9402804210162 Z" fill-opacity="1"/><path fill="none" stroke="rgb(0,0,0)" paint-order="fill stroke markers" d=" M 711.4868525747387 555.9402804210162 C 711.4868525747387 558.7017041701702 709.2482763238927 560.9402804210162 706.4868525747387 560.9402804210162 C 703.7254288255847 560.9402804210162 701.4868525747387 558.7017041701702 701.4868525747387 555.9402804210162 C 701.4868525747387 553.1788566718621 703.7254288255847 550.9402804210162 706.4868525747387 550.9402804210162 C 709.2482763238927 550.9402804210162 711.4868525747387 553.1788566718621 711.4868525747387 555.9402804210162 Z" stroke-opacity="1" stroke-linecap="round" stroke-linejoin="round" stroke-miterlimit="10"/><path fill="rgb(0,0,0)" stroke="none" paint-order="stroke fill markers" d=" M 807.1534792597089 555.9402804210162 C 807.1534792597089 558.7017041701702 804.9149030088629 560.9402804210162 802.1534792597089 560.9402804210162 C 799.3920555105549 560.9402804210162 797.1534792597089 558.7017041701702 797.1534792597089 555.9402804210162 C 797.1534792597089 553.1788566718621 799.3920555105549 550.9402804210162 802.1534792597089 550.9402804210162 C 804.9149030088629 550.9402804210162 807.1534792597089 553.1788566718621 807.1534792597089 555.9402804210162 Z" fill-opacity="1"/><path fill="none" stroke="rgb(0,0,0)" paint-order="fill stroke markers" d=" M 807.1534792597089 555.9402804210162 C 807.1534792597089 558.7017041701702 804.9149030088629 560.9402804210162 802.1534792597089 560.9402804210162 C 799.3920555105549 560.9402804210162 797.1534792597089 558.7017041701702 797.1534792597089 555.9402804210162 C 797.1534792597089 553.1788566718621 799.3920555105549 550.9402804210162 802.1534792597089 550.9402804210162 C 804.9149030088629 550.9402804210162 807.1534792597089 553.1788566718621 807.1534792597089 555.9402804210162 Z" stroke-opacity="1" stroke-linecap="round" stroke-linejoin="round" stroke-miterlimit="10"/><path fill="rgb(0,0,0)" stroke="none" paint-order="stroke fill markers" d=" M 823.0979170405371 396.4959026127312 C 823.0979170405371 399.25732636188513 820.8593407896911 401.4959026127312 818.0979170405371 401.4959026127312 C 815.3364932913831 401.4959026127312 813.0979170405371 399.25732636188513 813.0979170405371 396.4959026127312 C 813.0979170405371 393.73447886357724 815.3364932913831 391.4959026127312 818.0979170405371 391.4959026127312 C 820.8593407896911 391.4959026127312 823.0979170405371 393.73447886357724 823.0979170405371 396.4959026127312 Z" fill-opacity="1"/><path fill="none" stroke="rgb(0,0,0)" paint-order="fill stroke markers" d=" M 823.0979170405371 396.4959026127312 C 823.0979170405371 399.25732636188513 820.8593407896911 401.4959026127312 818.0979170405371 401.4959026127312 C 815.3364932913831 401.4959026127312 813.0979170405371 399.25732636188513 813.0979170405371 396.4959026127312 C 813.0979170405371 393.73447886357724 815.3364932913831 391.4959026127312 818.0979170405371 391.4959026127312 C 820.8593407896911 391.4959026127312 823.0979170405371 393.73447886357724 823.0979170405371 396.4959026127312 Z" stroke-opacity="1" stroke-linecap="round" stroke-linejoin="round" stroke-miterlimit="10"/><path fill="rgb(0,0,0)" stroke="none" paint-order="stroke fill markers" d=" M 839.0423548213655 555.9402804210162 C 839.0423548213655 558.7017041701702 836.8037785705195 560.9402804210162 834.0423548213655 560.9402804210162 C 831.2809310722115 560.9402804210162 829.0423548213655 558.7017041701702 829.0423548213655 555.9402804210162 C 829.0423548213655 553.1788566718621 831.2809310722115 550.9402804210162 834.0423548213655 550.9402804210162 C 836.8037785705195 550.9402804210162 839.0423548213655 553.1788566718621 839.0423548213655 555.9402804210162 Z" fill-opacity="1"/><path fill="none" stroke="rgb(0,0,0)" paint-order="fill stroke markers" d=" M 839.0423548213655 555.9402804210162 C 839.0423548213655 558.7017041701702 836.8037785705195 560.9402804210162 834.0423548213655 560.9402804210162 C 831.2809310722115 560.9402804210162 829.0423548213655 558.7017041701702 829.0423548213655 555.9402804210162 C 829.0423548213655 553.1788566718621 831.2809310722115 550.9402804210162 834.0423548213655 550.9402804210162 C 836.8037785705195 550.9402804210162 839.0423548213655 553.1788566718621 839.0423548213655 555.9402804210162 Z" stroke-opacity="1" stroke-linecap="round" stroke-linejoin="round" stroke-miterlimit="10"/><path fill="rgb(0,0,0)" stroke="none" paint-order="stroke fill markers" d=" M 934.7089815063356 555.9402804210162 C 934.7089815063356 558.7017041701702 932.4704052554896 560.9402804210162 929.7089815063356 560.9402804210162 C 926.9475577571816 560.9402804210162 924.7089815063356 558.7017041701702 924.7089815063356 555.9402804210162 C 924.7089815063356 553.1788566718621 926.9475577571816 550.9402804210162 929.7089815063356 550.9402804210162 C 932.4704052554896 550.9402804210162 934.7089815063356 553.1788566718621 934.7089815063356 555.9402804210162 Z" fill-opacity="1"/><path fill="none" stroke="rgb(0,0,0)" paint-order="fill stroke markers" d=" M 934.7089815063356 555.9402804210162 C 934.7089815063356 558.7017041701702 932.4704052554896 560.9402804210162 929.7089815063356 560.9402804210162 C 926.9475577571816 560.9402804210162 924.7089815063356 558.7017041701702 924.7089815063356 555.9402804210162 C 924.7089815063356 553.1788566718621 926.9475577571816 550.9402804210162 929.7089815063356 550.9402804210162 C 932.4704052554896 550.9402804210162 934.7089815063356 553.1788566718621 934.7089815063356 555.9402804210162 Z" stroke-opacity="1" stroke-linecap="round" stroke-linejoin="round" stroke-miterlimit="10"/><path fill="rgb(0,0,0)" stroke="none" paint-order="stroke fill markers" d=" M 950.6534192871638 396.4959026127312 C 950.6534192871638 399.25732636188513 948.4148430363178 401.4959026127312 945.6534192871638 401.4959026127312 C 942.8919955380098 401.4959026127312 940.6534192871638 399.25732636188513 940.6534192871638 396.4959026127312 C 940.6534192871638 393.73447886357724 942.8919955380098 391.4959026127312 945.6534192871638 391.4959026127312 C 948.4148430363178 391.4959026127312 950.6534192871638 393.73447886357724 950.6534192871638 396.4959026127312 Z" fill-opacity="1"/><path fill="none" stroke="rgb(0,0,0)" paint-order="fill stroke markers" d=" M 950.6534192871638 396.4959026127312 C 950.6534192871638 399.25732636188513 948.4148430363178 401.4959026127312 945.6534192871638 401.4959026127312 C 942.8919955380098 401.4959026127312 940.6534192871638 399.25732636188513 940.6534192871638 396.4959026127312 C 940.6534192871638 393.73447886357724 942.8919955380098 391.4959026127312 945.6534192871638 391.4959026127312 C 948.4148430363178 391.4959026127312 950.6534192871638 393.73447886357724 950.6534192871638 396.4959026127312 Z" stroke-opacity="1" stroke-linecap="round" stroke-linejoin="round" stroke-miterlimit="10"/><path fill="rgb(0,0,0)" stroke="none" paint-order="stroke fill markers" d=" M 966.5978570679922 555.9402804210162 C 966.5978570679922 558.7017041701702 964.3592808171462 560.9402804210162 961.5978570679922 560.9402804210162 C 958.8364333188382 560.9402804210162 956.5978570679922 558.7017041701702 956.5978570679922 555.9402804210162 C 956.5978570679922 553.1788566718621 958.8364333188382 550.9402804210162 961.5978570679922 550.9402804210162 C 964.3592808171462 550.9402804210162 966.5978570679922 553.1788566718621 966.5978570679922 555.9402804210162 Z" fill-opacity="1"/><path fill="none" stroke="rgb(0,0,0)" paint-order="fill stroke markers" d=" M 966.5978570679922 555.9402804210162 C 966.5978570679922 558.7017041701702 964.3592808171462 560.9402804210162 961.5978570679922 560.9402804210162 C 958.8364333188382 560.9402804210162 956.5978570679922 558.7017041701702 956.5978570679922 555.9402804210162 C 956.5978570679922 553.1788566718621 958.8364333188382 550.9402804210162 961.5978570679922 550.9402804210162 C 964.3592808171462 550.9402804210162 966.5978570679922 553.1788566718621 966.5978570679922 555.9402804210162 Z" stroke-opacity="1" stroke-linecap="round" stroke-linejoin="round" stroke-miterlimit="10"/><path fill="rgb(0,0,0)" stroke="none" paint-order="stroke fill markers" d=" M 1078.2089215337908 237.05152480444622 C 1078.2089215337908 239.8129485536002 1075.9703452829447 242.05152480444622 1073.2089215337908 242.05152480444622 C 1070.4474977846369 242.05152480444622 1068.2089215337908 239.8129485536002 1068.2089215337908 237.05152480444622 C 1068.2089215337908 234.29010105529224 1070.4474977846369 232.05152480444622 1073.2089215337908 232.05152480444622 C 1075.9703452829447 232.05152480444622 1078.2089215337908 234.29010105529224 1078.2089215337908 237.05152480444622 Z" fill-opacity="1"/><path fill="none" stroke="rgb(0,0,0)" paint-order="fill stroke markers" d=" M 1078.2089215337908 237.05152480444622 C 1078.2089215337908 239.8129485536002 1075.9703452829447 242.05152480444622 1073.2089215337908 242.05152480444622 C 1070.4474977846369 242.05152480444622 1068.2089215337908 239.8129485536002 1068.2089215337908 237.05152480444622 C 1068.2089215337908 234.29010105529224 1070.4474977846369 232.05152480444622 1073.2089215337908 232.05152480444622 C 1075.9703452829447 232.05152480444622 1078.2089215337908 234.29010105529224 1078.2089215337908 237.05152480444622 Z" stroke-opacity="1" stroke-linecap="round" stroke-linejoin="round" stroke-miterlimit="10"/><path fill="rgb(0,0,0)" stroke="none" paint-order="stroke fill markers" d=" M 1062.2644837529624 555.9402804210162 C 1062.2644837529624 558.7017041701702 1060.0259075021163 560.9402804210162 1057.2644837529624 560.9402804210162 C 1054.5030600038085 560.9402804210162 1052.2644837529624 558.7017041701702 1052.2644837529624 555.9402804210162 C 1052.2644837529624 553.1788566718621 1054.5030600038085 550.9402804210162 1057.2644837529624 550.9402804210162 C 1060.0259075021163 550.9402804210162 1062.2644837529624 553.1788566718621 1062.2644837529624 555.9402804210162 Z" fill-opacity="1"/><path fill="none" stroke="rgb(0,0,0)" paint-order="fill stroke markers" d=" M 1062.2644837529624 555.9402804210162 C 1062.2644837529624 558.7017041701702 1060.0259075021163 560.9402804210162 1057.2644837529624 560.9402804210162 C 1054.5030600038085 560.9402804210162 1052.2644837529624 558.7017041701702 1052.2644837529624 555.9402804210162 C 1052.2644837529624 553.1788566718621 1054.5030600038085 550.9402804210162 1057.2644837529624 550.9402804210162 C 1060.0259075021163 550.9402804210162 1062.2644837529624 553.1788566718621 1062.2644837529624 555.9402804210162 Z" stroke-opacity="1" stroke-linecap="round" stroke-linejoin="round" stroke-miterlimit="10"/><path fill="rgb(0,0,0)" stroke="none" paint-order="stroke fill markers" d=" M 1205.7644237804175 396.4959026127312 C 1205.7644237804175 399.25732636188513 1203.5258475295714 401.4959026127312 1200.7644237804175 401.4959026127312 C 1198.0030000312636 401.4959026127312 1195.7644237804175 399.25732636188513 1195.7644237804175 396.4959026127312 C 1195.7644237804175 393.73447886357724 1198.0030000312636 391.4959026127312 1200.7644237804175 391.4959026127312 C 1203.5258475295714 391.4959026127312 1205.7644237804175 393.73447886357724 1205.7644237804175 396.4959026127312 Z" fill-opacity="1"/><path fill="none" stroke="rgb(0,0,0)" paint-order="fill stroke markers" d=" M 1205.7644237804175 396.4959026127312 C 1205.7644237804175 399.25732636188513 1203.5258475295714 401.4959026127312 1200.7644237804175 401.4959026127312 C 1198.0030000312636 401.4959026127312 1195.7644237804175 399.25732636188513 1195.7644237804175 396.4959026127312 C 1195.7644237804175 393.73447886357724 1198.0030000312636 391.4959026127312 1200.7644237804175 391.4959026127312 C 1203.5258475295714 391.4959026127312 1205.7644237804175 393.73447886357724 1205.7644237804175 396.4959026127312 Z" stroke-opacity="1" stroke-linecap="round" stroke-linejoin="round" stroke-miterlimit="10"/><path fill="rgb(0,0,0)" stroke="none" paint-order="stroke fill markers" d=" M 1094.1533593146191 396.4959026127312 C 1094.1533593146191 399.25732636188513 1091.914783063773 401.4959026127312 1089.1533593146191 401.4959026127312 C 1086.3919355654652 401.4959026127312 1084.1533593146191 399.25732636188513 1084.1533593146191 396.4959026127312 C 1084.1533593146191 393.73447886357724 1086.3919355654652 391.4959026127312 1089.1533593146191 391.4959026127312 C 1091.914783063773 391.4959026127312 1094.1533593146191 393.73447886357724 1094.1533593146191 396.4959026127312 Z" fill-opacity="1"/><path fill="none" stroke="rgb(0,0,0)" paint-order="fill stroke markers" d=" M 1094.1533593146191 396.4959026127312 C 1094.1533593146191 399.25732636188513 1091.914783063773 401.4959026127312 1089.1533593146191 401.4959026127312 C 1086.3919355654652 401.4959026127312 1084.1533593146191 399.25732636188513 1084.1533593146191 396.4959026127312 C 1084.1533593146191 393.73447886357724 1086.3919355654652 391.4959026127312 1089.1533593146191 391.4959026127312 C 1091.914783063773 391.4959026127312 1094.1533593146191 393.73447886357724 1094.1533593146191 396.4959026127312 Z" stroke-opacity="1" stroke-linecap="round" stroke-linejoin="round" stroke-miterlimit="10"/><path fill="rgb(0,0,0)" stroke="none" paint-order="stroke fill markers" d=" M 73.70934134160518 555.9402804210162 C 73.70934134160518 558.7017041701702 71.47076509075914 560.9402804210162 68.70934134160518 560.9402804210162 C 65.94791759245122 560.9402804210162 63.70934134160518 558.7017041701702 63.70934134160518 555.9402804210162 C 63.70934134160518 553.1788566718621 65.94791759245122 550.9402804210162 68.70934134160518 550.9402804210162 C 71.47076509075914 550.9402804210162 73.70934134160518 553.1788566718621 73.70934134160518 555.9402804210162 Z" fill-opacity="1"/><path fill="none" stroke="rgb(0,0,0)" paint-order="fill stroke markers" d=" M 73.70934134160518 555.9402804210162 C 73.70934134160518 558.7017041701702 71.47076509075914 560.9402804210162 68.70934134160518 560.9402804210162 C 65.94791759245122 560.9402804210162 63.70934134160518 558.7017041701702 63.70934134160518 555.9402804210162 C 63.70934134160518 553.1788566718621 65.94791759245122 550.9402804210162 68.70934134160518 550.9402804210162 C 71.47076509075914 550.9402804210162 73.70934134160518 553.1788566718621 73.70934134160518 555.9402804210162 Z" stroke-opacity="1" stroke-linecap="round" stroke-linejoin="round" stroke-miterlimit="10"/><path fill="none" stroke="rgb(0,0,0)" paint-order="fill stroke markers" d=" M 175.32040580740357 364.60702705107417 L 182.82040580740357 368.9371540699964 L 182.82040580740357 360.27690003215196 L 175.32040580740357 364.60702705107417 Z" stroke-opacity="1" stroke-linecap="square" stroke-miterlimit="10" stroke-width="2.5"/><path fill="rgb(0,0,0)" stroke="none" paint-order="stroke fill markers" fill-rule="evenodd" d=" M 175.32040580740357 364.60702705107417 L 182.82040580740357 368.9371540699964 L 182.82040580740357 360.27690003215196 L 175.32040580740357 364.60702705107417 Z" fill-opacity="1"/><path fill="none" stroke="rgb(0,0,0)" paint-order="fill stroke markers" d=" M 312.87590805403033 364.60702705107417 L 305.37590805403033 368.9371540699964 L 305.37590805403033 360.27690003215196 L 312.87590805403033 364.60702705107417 Z" stroke-opacity="1" stroke-linecap="square" stroke-miterlimit="10" stroke-width="2.5"/><path fill="rgb(0,0,0)" stroke="none" paint-order="stroke fill markers" fill-rule="evenodd" d=" M 312.87590805403033 364.60702705107417 L 305.37590805403033 368.9371540699964 L 305.37590805403033 360.27690003215196 L 312.87590805403033 364.60702705107417 Z" fill-opacity="1"/><path fill="none" stroke="rgb(0,0,0)" paint-order="fill stroke markers" d=" M 1084.1533593146191 476.21809151687364 L 1091.6533593146191 480.54821853579585 L 1091.6533593146191 471.88796449795143 L 1084.1533593146191 476.21809151687364 Z" stroke-opacity="1" stroke-linecap="square" stroke-miterlimit="10" stroke-width="2.5"/><path fill="rgb(0,0,0)" stroke="none" paint-order="stroke fill markers" fill-rule="evenodd" d=" M 1084.1533593146191 476.21809151687364 L 1091.6533593146191 480.54821853579585 L 1091.6533593146191 471.88796449795143 L 1084.1533593146191 476.21809151687364 Z" fill-opacity="1"/><path fill="none" stroke="rgb(0,0,0)" paint-order="fill stroke markers" d=" M 1205.7644237804175 476.21809151687364 L 1198.2644237804175 480.54821853579585 L 1198.2644237804175 471.88796449795143 L 1205.7644237804175 476.21809151687364 Z" stroke-opacity="1" stroke-linecap="square" stroke-miterlimit="10" stroke-width="2.5"/><path fill="rgb(0,0,0)" stroke="none" paint-order="stroke fill markers" fill-rule="evenodd" d=" M 1205.7644237804175 476.21809151687364 L 1198.2644237804175 480.54821853579585 L 1198.2644237804175 471.88796449795143 L 1205.7644237804175 476.21809151687364 Z" fill-opacity="1"/><path fill="none" stroke="rgb(0,0,0)" paint-order="fill stroke markers" d=" M 47.764903560776844 635.6624693251587 L 55.264903560776844 639.9925963440809 L 55.264903560776844 631.3323423062365 L 47.764903560776844 635.6624693251587 Z" stroke-opacity="1" stroke-linecap="square" stroke-miterlimit="10" stroke-width="2.5"/><path fill="rgb(0,0,0)" stroke="none" paint-order="stroke fill markers" fill-rule="evenodd" d=" M 47.764903560776844 635.6624693251587 L 55.264903560776844 639.9925963440809 L 55.264903560776844 631.3323423062365 L 47.764903560776844 635.6624693251587 Z" fill-opacity="1"/><path fill="none" stroke="rgb(0,0,0)" paint-order="fill stroke markers" d=" M 968.5597106137383 634.2854417847482 L 961.0597106137383 638.6155688036704 L 961.0597106137383 629.955314765826 L 968.5597106137383 634.2854417847482 Z" stroke-opacity="1" stroke-linecap="square" stroke-miterlimit="10" stroke-width="2.5"/><path fill="rgb(0,0,0)" stroke="none" paint-order="stroke fill markers" fill-rule="evenodd" d=" M 968.5597106137383 634.2854417847482 L 961.0597106137383 638.6155688036704 L 961.0597106137383 629.955314765826 L 968.5597106137383 634.2854417847482 Z" fill-opacity="1"/><g transform="scale(19,19)"><g transform="translate(9.736842105263158,18.166939210526316)"><path fill="rgb(0,0,0)" stroke="none" paint-order="stroke fill markers" d=" M 0.311 -0.318 L 0.243 -0.046 Q 0.23800000000000002 -0.028 0.229 -0.016 Q 0.22 -0.004 0.209 0.0005 Q 0.198 0.005 0.1915 0.006500000000000001 Q 0.185 0.008 0.18 0.008 Q 0.162 0.008 0.1485 -0.003 Q 0.135 -0.014 0.135 -0.035 Q 0.135 -0.042 0.139 -0.057 L 0.21 -0.342 Q 0.216 -0.366 0.216 -0.385 Q 0.216 -0.41600000000000004 0.197 -0.41600000000000004 Q 0.163 -0.41600000000000004 0.137 -0.308 Q 0.132 -0.289 0.1275 -0.28550000000000003 Q 0.123 -0.28200000000000003 0.105 -0.28200000000000003 Q 0.077 -0.28200000000000003 0.077 -0.296 Q 0.077 -0.303 0.088 -0.337 Q 0.099 -0.371 0.116 -0.398 Q 0.151 -0.452 0.201 -0.452 Q 0.23700000000000002 -0.452 0.2655 -0.437 Q 0.294 -0.422 0.307 -0.398 Q 0.361 -0.452 0.435 -0.452 Q 0.49 -0.452 0.526 -0.427 Q 0.562 -0.402 0.562 -0.363 Q 0.562 -0.33 0.5405 -0.308 Q 0.519 -0.28600000000000003 0.49 -0.28600000000000003 Q 0.467 -0.28600000000000003 0.4535 -0.2995 Q 0.44 -0.313 0.44 -0.332 Q 0.44 -0.338 0.4415 -0.34700000000000003 Q 0.443 -0.356 0.4545 -0.373 Q 0.466 -0.39 0.487 -0.399 Q 0.466 -0.41600000000000004 0.432 -0.41600000000000004 Q 0.386 -0.41600000000000004 0.352 -0.3805 Q 0.318 -0.34500000000000003 0.311 -0.318 Z"/></g><g transform="translate(10.682953105263158,18.166939210526316)"><path fill="rgb(0,0,0)" stroke="none" paint-order="stroke fill markers" d=" M 0.418 -0.392 Q 0.395 -0.41600000000000004 0.34900000000000003 -0.41600000000000004 Q 0.319 -0.41600000000000004 0.2975 -0.40750000000000003 Q 0.276 -0.399 0.266 -0.389 Q 0.256 -0.379 0.25 -0.3655 Q 0.244 -0.352 0.2435 -0.34650000000000003 Q 0.243 -0.341 0.243 -0.338 Q 0.243 -0.321 0.256 -0.3095 Q 0.269 -0.298 0.281 -0.2945 Q 0.293 -0.291 0.314 -0.28700000000000003 Q 0.359 -0.278 0.38 -0.2715 Q 0.401 -0.265 0.421 -0.249 Q 0.465 -0.215 0.465 -0.164 Q 0.465 -0.134 0.4465 -0.095 Q 0.428 -0.056 0.393 -0.031 Q 0.338 0.008 0.247 0.008 Q 0.17300000000000001 0.008 0.129 -0.018000000000000002 Q 0.085 -0.044 0.085 -0.091 Q 0.085 -0.126 0.1065 -0.1475 Q 0.128 -0.169 0.157 -0.169 Q 0.17500000000000002 -0.169 0.1905 -0.1585 Q 0.20600000000000002 -0.148 0.20600000000000002 -0.123 Q 0.20600000000000002 -0.076 0.157 -0.055 Q 0.19 -0.028 0.25 -0.028 Q 0.289 -0.028 0.3175 -0.0385 Q 0.34600000000000003 -0.049 0.359 -0.0615 Q 0.372 -0.074 0.3795 -0.0905 Q 0.387 -0.107 0.388 -0.1135 Q 0.389 -0.12 0.389 -0.124 Q 0.389 -0.14 0.381 -0.1515 Q 0.373 -0.163 0.355 -0.1705 Q 0.337 -0.178 0.3235 -0.1815 Q 0.31 -0.185 0.28400000000000003 -0.19 Q 0.167 -0.213 0.167 -0.298 Q 0.167 -0.323 0.182 -0.3565 Q 0.197 -0.39 0.22 -0.41000000000000003 Q 0.27 -0.452 0.35100000000000003 -0.452 Q 0.41100000000000003 -0.452 0.4485 -0.4285 Q 0.486 -0.405 0.486 -0.364 Q 0.486 -0.331 0.466 -0.313 Q 0.446 -0.295 0.424 -0.295 Q 0.405 -0.295 0.3925 -0.3065 Q 0.38 -0.318 0.38 -0.336 Q 0.38 -0.375 0.418 -0.392 Z"/></g><g transform="translate(11.169894105263158,18.166939210526316)"><path fill="rgb(0,0,0)" stroke="none" paint-order="stroke fill markers" d=" M 0.274 -0.218 L 0.234 -0.218 Q 0.218 -0.158 0.218 -0.12 Q 0.218 -0.028 0.303 -0.028 Q 0.418 -0.028 0.492 -0.111 Q 0.499 -0.11800000000000001 0.506 -0.11800000000000001 Q 0.513 -0.11800000000000001 0.5245 -0.105 Q 0.536 -0.092 0.536 -0.08600000000000001 Q 0.536 -0.075 0.508 -0.051500000000000004 Q 0.48 -0.028 0.443 -0.014 Q 0.384 0.008 0.302 0.008 Q 0.209 0.008 0.1595 -0.0385 Q 0.11 -0.085 0.11 -0.167 Q 0.11 -0.28500000000000003 0.1925 -0.3685 Q 0.275 -0.452 0.402 -0.452 Q 0.459 -0.452 0.4955 -0.426 Q 0.532 -0.4 0.532 -0.356 Q 0.532 -0.218 0.274 -0.218 M 0.243 -0.254 Q 0.467 -0.254 0.467 -0.357 Q 0.467 -0.382 0.4495 -0.399 Q 0.432 -0.41600000000000004 0.402 -0.41600000000000004 Q 0.337 -0.41600000000000004 0.296 -0.366 Q 0.276 -0.34400000000000003 0.2655 -0.3205 Q 0.255 -0.297 0.243 -0.254 Z"/></g><g transform="translate(11.702111105263157,18.166939210526316)"><path fill="rgb(0,0,0)" stroke="none" paint-order="stroke fill markers" d=" M 0.092 0.131 L 0.21 -0.342 Q 0.216 -0.366 0.216 -0.385 Q 0.216 -0.41600000000000004 0.197 -0.41600000000000004 Q 0.163 -0.41600000000000004 0.137 -0.308 Q 0.132 -0.289 0.1275 -0.28550000000000003 Q 0.123 -0.28200000000000003 0.105 -0.28200000000000003 Q 0.077 -0.28200000000000003 0.077 -0.296 Q 0.077 -0.303 0.088 -0.337 Q 0.099 -0.371 0.116 -0.398 Q 0.151 -0.452 0.201 -0.452 Q 0.233 -0.452 0.262 -0.439 Q 0.291 -0.426 0.304 -0.401 Q 0.368 -0.452 0.436 -0.452 Q 0.502 -0.452 0.549 -0.41300000000000003 Q 0.596 -0.374 0.596 -0.292 Q 0.596 -0.223 0.5650000000000001 -0.155 Q 0.534 -0.08700000000000001 0.47100000000000003 -0.0395 Q 0.40800000000000003 0.008 0.328 0.008 Q 0.274 0.008 0.23700000000000002 -0.024 L 0.195 0.146 Q 0.20800000000000002 0.147 0.23800000000000002 0.147 Q 0.265 0.147 0.265 0.165 Q 0.265 0.194 0.23800000000000002 0.194 Q 0.221 0.194 0.186 0.1925 Q 0.151 0.191 0.133 0.191 Q 0.11800000000000001 0.191 0.088 0.1925 Q 0.058 0.194 0.044 0.194 Q 0.025 0.194 0.025 0.176 Q 0.025 0.163 0.0305 0.156 Q 0.036000000000000004 0.149 0.0415 0.148 Q 0.047 0.147 0.057 0.147 Q 0.079 0.147 0.084 0.1445 Q 0.089 0.14200000000000002 0.092 0.131 M 0.313 -0.326 L 0.254 -0.09 Q 0.271 -0.028 0.328 -0.028 Q 0.356 -0.028 0.3885 -0.052000000000000005 Q 0.421 -0.076 0.443 -0.14 Q 0.454 -0.169 0.47150000000000003 -0.23900000000000002 Q 0.489 -0.309 0.489 -0.34500000000000003 Q 0.489 -0.383 0.47150000000000003 -0.3995 Q 0.454 -0.41600000000000004 0.432 -0.41600000000000004 Q 0.37 -0.41600000000000004 0.316 -0.34400000000000003 Q 0.314 -0.331 0.313 -0.326 Z"/></g><g transform="translate(12.234328105263158,18.166939210526316)"><path fill="rgb(0,0,0)" stroke="none" paint-order="stroke fill markers" d=" M 0.559 -0.372 L 0.492 -0.10200000000000001 Q 0.486 -0.078 0.486 -0.059000000000000004 Q 0.486 -0.028 0.505 -0.028 Q 0.539 -0.028 0.5650000000000001 -0.136 Q 0.5700000000000001 -0.155 0.5745 -0.1585 Q 0.579 -0.162 0.597 -0.162 Q 0.625 -0.162 0.625 -0.148 Q 0.625 -0.14100000000000001 0.614 -0.107 Q 0.603 -0.073 0.586 -0.046 Q 0.551 0.008 0.501 0.008 Q 0.46900000000000003 0.008 0.44 -0.005 Q 0.41100000000000003 -0.018000000000000002 0.398 -0.043000000000000003 Q 0.334 0.008 0.266 0.008 Q 0.2 0.008 0.153 -0.031 Q 0.106 -0.07 0.106 -0.152 Q 0.106 -0.221 0.137 -0.289 Q 0.168 -0.357 0.231 -0.4045 Q 0.294 -0.452 0.374 -0.452 Q 0.434 -0.452 0.47100000000000003 -0.41400000000000003 Q 0.492 -0.435 0.518 -0.435 Q 0.538 -0.435 0.5505 -0.423 Q 0.5630000000000001 -0.41100000000000003 0.5630000000000001 -0.393 Q 0.5630000000000001 -0.387 0.559 -0.372 M 0.389 -0.11800000000000001 L 0.448 -0.354 Q 0.431 -0.41600000000000004 0.374 -0.41600000000000004 Q 0.34600000000000003 -0.41600000000000004 0.3135 -0.392 Q 0.281 -0.368 0.259 -0.304 Q 0.248 -0.275 0.2305 -0.20500000000000002 Q 0.213 -0.135 0.213 -0.099 Q 0.213 -0.061 0.2305 -0.0445 Q 0.248 -0.028 0.27 -0.028 Q 0.332 -0.028 0.386 -0.1 Q 0.388 -0.113 0.389 -0.11800000000000001 Z"/></g><g transform="translate(12.825433105263158,18.166939210526316)"><path fill="rgb(0,0,0)" stroke="none" paint-order="stroke fill markers" d=" M 0.311 -0.318 L 0.243 -0.046 Q 0.23800000000000002 -0.028 0.229 -0.016 Q 0.22 -0.004 0.209 0.0005 Q 0.198 0.005 0.1915 0.006500000000000001 Q 0.185 0.008 0.18 0.008 Q 0.162 0.008 0.1485 -0.003 Q 0.135 -0.014 0.135 -0.035 Q 0.135 -0.042 0.139 -0.057 L 0.21 -0.342 Q 0.216 -0.366 0.216 -0.385 Q 0.216 -0.41600000000000004 0.197 -0.41600000000000004 Q 0.163 -0.41600000000000004 0.137 -0.308 Q 0.132 -0.289 0.1275 -0.28550000000000003 Q 0.123 -0.28200000000000003 0.105 -0.28200000000000003 Q 0.077 -0.28200000000000003 0.077 -0.296 Q 0.077 -0.303 0.088 -0.337 Q 0.099 -0.371 0.116 -0.398 Q 0.151 -0.452 0.201 -0.452 Q 0.23700000000000002 -0.452 0.2655 -0.437 Q 0.294 -0.422 0.307 -0.398 Q 0.361 -0.452 0.435 -0.452 Q 0.49 -0.452 0.526 -0.427 Q 0.562 -0.402 0.562 -0.363 Q 0.562 -0.33 0.5405 -0.308 Q 0.519 -0.28600000000000003 0.49 -0.28600000000000003 Q 0.467 -0.28600000000000003 0.4535 -0.2995 Q 0.44 -0.313 0.44 -0.332 Q 0.44 -0.338 0.4415 -0.34700000000000003 Q 0.443 -0.356 0.4545 -0.373 Q 0.466 -0.39 0.487 -0.399 Q 0.466 -0.41600000000000004 0.432 -0.41600000000000004 Q 0.386 -0.41600000000000004 0.352 -0.3805 Q 0.318 -0.34500000000000003 0.311 -0.318 Z"/></g><g transform="translate(13.268210105263158,18.166939210526316)"><path fill="rgb(0,0,0)" stroke="none" paint-order="stroke fill markers" d=" M 0.559 -0.372 L 0.492 -0.10200000000000001 Q 0.486 -0.078 0.486 -0.059000000000000004 Q 0.486 -0.028 0.505 -0.028 Q 0.539 -0.028 0.5650000000000001 -0.136 Q 0.5700000000000001 -0.155 0.5745 -0.1585 Q 0.579 -0.162 0.597 -0.162 Q 0.625 -0.162 0.625 -0.148 Q 0.625 -0.14100000000000001 0.614 -0.107 Q 0.603 -0.073 0.586 -0.046 Q 0.551 0.008 0.501 0.008 Q 0.46900000000000003 0.008 0.44 -0.005 Q 0.41100000000000003 -0.018000000000000002 0.398 -0.043000000000000003 Q 0.334 0.008 0.266 0.008 Q 0.2 0.008 0.153 -0.031 Q 0.106 -0.07 0.106 -0.152 Q 0.106 -0.221 0.137 -0.289 Q 0.168 -0.357 0.231 -0.4045 Q 0.294 -0.452 0.374 -0.452 Q 0.434 -0.452 0.47100000000000003 -0.41400000000000003 Q 0.492 -0.435 0.518 -0.435 Q 0.538 -0.435 0.5505 -0.423 Q 0.5630000000000001 -0.41100000000000003 0.5630000000000001 -0.393 Q 0.5630000000000001 -0.387 0.559 -0.372 M 0.389 -0.11800000000000001 L 0.448 -0.354 Q 0.431 -0.41600000000000004 0.374 -0.41600000000000004 Q 0.34600000000000003 -0.41600000000000004 0.3135 -0.392 Q 0.281 -0.368 0.259 -0.304 Q 0.248 -0.275 0.2305 -0.20500000000000002 Q 0.213 -0.135 0.213 -0.099 Q 0.213 -0.061 0.2305 -0.0445 Q 0.248 -0.028 0.27 -0.028 Q 0.332 -0.028 0.386 -0.1 Q 0.388 -0.113 0.389 -0.11800000000000001 Z"/></g><g transform="translate(13.859315105263159,18.166939210526316)"><path fill="rgb(0,0,0)" stroke="none" paint-order="stroke fill markers" d=" M 0.302 -0.397 L 0.228 -0.10200000000000001 Q 0.222 -0.078 0.222 -0.059000000000000004 Q 0.222 -0.039 0.228 -0.0335 Q 0.234 -0.028 0.243 -0.028 Q 0.269 -0.028 0.3005 -0.0535 Q 0.332 -0.079 0.36 -0.145 Q 0.366 -0.157 0.3705 -0.1595 Q 0.375 -0.162 0.391 -0.162 Q 0.419 -0.162 0.419 -0.148 Q 0.419 -0.14200000000000002 0.41150000000000003 -0.1255 Q 0.404 -0.109 0.388 -0.08600000000000001 Q 0.372 -0.063 0.35150000000000003 -0.042 Q 0.331 -0.021 0.3005 -0.006500000000000001 Q 0.27 0.008 0.23800000000000002 0.008 Q 0.19 0.008 0.1555 -0.018000000000000002 Q 0.121 -0.044 0.121 -0.089 Q 0.121 -0.10200000000000001 0.125 -0.11800000000000001 L 0.195 -0.397 L 0.123 -0.397 Q 0.091 -0.397 0.091 -0.41500000000000004 Q 0.091 -0.429 0.0965 -0.4355 Q 0.10200000000000001 -0.442 0.108 -0.443 Q 0.114 -0.444 0.126 -0.444 L 0.20700000000000002 -0.444 L 0.243 -0.59 Q 0.248 -0.611 0.262 -0.624 Q 0.276 -0.637 0.28650000000000003 -0.64 Q 0.297 -0.643 0.306 -0.643 Q 0.326 -0.643 0.3385 -0.631 Q 0.35100000000000003 -0.619 0.35100000000000003 -0.601 Q 0.35100000000000003 -0.59 0.333 -0.523 Q 0.327 -0.501 0.314 -0.444 L 0.385 -0.444 Q 0.41600000000000004 -0.444 0.41600000000000004 -0.426 Q 0.41600000000000004 -0.41200000000000003 0.41050000000000003 -0.4055 Q 0.405 -0.399 0.399 -0.398 Q 0.393 -0.397 0.382 -0.397 L 0.302 -0.397 Z"/></g><g transform="translate(14.244312105263159,18.166939210526316)"><path fill="rgb(0,0,0)" stroke="none" paint-order="stroke fill markers" d=" M 0.372 -0.646 Q 0.372 -0.62 0.35050000000000003 -0.5985 Q 0.329 -0.577 0.301 -0.577 Q 0.28 -0.577 0.266 -0.5905 Q 0.252 -0.604 0.252 -0.625 Q 0.252 -0.651 0.2735 -0.6725 Q 0.295 -0.6940000000000001 0.323 -0.6940000000000001 Q 0.34500000000000003 -0.6940000000000001 0.3585 -0.68 Q 0.372 -0.666 0.372 -0.646 M 0.14100000000000001 -0.12 L 0.231 -0.358 Q 0.23900000000000002 -0.374 0.23900000000000002 -0.398 Q 0.23900000000000002 -0.41600000000000004 0.225 -0.41600000000000004 Q 0.17 -0.41600000000000004 0.133 -0.295 Q 0.13 -0.28600000000000003 0.125 -0.28400000000000003 Q 0.12 -0.28200000000000003 0.105 -0.28200000000000003 Q 0.077 -0.28200000000000003 0.077 -0.296 Q 0.077 -0.306 0.08700000000000001 -0.3295 Q 0.097 -0.353 0.114 -0.3815 Q 0.131 -0.41000000000000003 0.1625 -0.431 Q 0.194 -0.452 0.23 -0.452 Q 0.273 -0.452 0.304 -0.4275 Q 0.335 -0.403 0.335 -0.363 Q 0.335 -0.34800000000000003 0.326 -0.324 L 0.23600000000000002 -0.08600000000000001 Q 0.228 -0.07 0.228 -0.046 Q 0.228 -0.028 0.242 -0.028 Q 0.297 -0.028 0.334 -0.149 Q 0.337 -0.158 0.3415 -0.16 Q 0.34600000000000003 -0.162 0.362 -0.162 Q 0.39 -0.162 0.39 -0.148 Q 0.39 -0.138 0.38 -0.1145 Q 0.37 -0.091 0.353 -0.0625 Q 0.336 -0.034 0.3045 -0.013000000000000001 Q 0.273 0.008 0.23700000000000002 0.008 Q 0.194 0.008 0.163 -0.0165 Q 0.132 -0.041 0.132 -0.081 Q 0.132 -0.096 0.14100000000000001 -0.12 Z"/></g><g transform="translate(14.59986510526316,18.166939210526316)"><path fill="rgb(0,0,0)" stroke="none" paint-order="stroke fill markers" d=" M 0.595 -0.28400000000000003 Q 0.595 -0.23500000000000001 0.5755 -0.185 Q 0.556 -0.135 0.5205 -0.091 Q 0.485 -0.047 0.4265 -0.0195 Q 0.368 0.008 0.297 0.008 Q 0.20800000000000002 0.008 0.1575 -0.037 Q 0.107 -0.082 0.107 -0.16 Q 0.107 -0.20800000000000002 0.1265 -0.2585 Q 0.146 -0.309 0.1815 -0.3525 Q 0.217 -0.396 0.2755 -0.424 Q 0.334 -0.452 0.405 -0.452 Q 0.494 -0.452 0.5445 -0.40700000000000003 Q 0.595 -0.362 0.595 -0.28400000000000003 M 0.299 -0.028 Q 0.339 -0.028 0.3765 -0.053 Q 0.41400000000000003 -0.078 0.435 -0.124 Q 0.453 -0.162 0.46950000000000003 -0.2295 Q 0.486 -0.297 0.486 -0.328 Q 0.486 -0.376 0.461 -0.396 Q 0.436 -0.41600000000000004 0.403 -0.41600000000000004 Q 0.363 -0.41600000000000004 0.3255 -0.391 Q 0.28800000000000003 -0.366 0.267 -0.32 Q 0.249 -0.28200000000000003 0.2325 -0.2145 Q 0.216 -0.147 0.216 -0.116 Q 0.216 -0.068 0.241 -0.048 Q 0.266 -0.028 0.299 -0.028 Z"/></g><g transform="translate(15.19097010526316,18.166939210526316)"><path fill="rgb(0,0,0)" stroke="none" paint-order="stroke fill markers" d=" M 0.305 -0.294 L 0.243 -0.046 Q 0.23800000000000002 -0.028 0.229 -0.016 Q 0.22 -0.004 0.209 0.0005 Q 0.198 0.005 0.1915 0.006500000000000001 Q 0.185 0.008 0.18 0.008 Q 0.162 0.008 0.1485 -0.003 Q 0.135 -0.014 0.135 -0.035 Q 0.135 -0.042 0.139 -0.057 L 0.21 -0.342 Q 0.216 -0.366 0.216 -0.385 Q 0.216 -0.41600000000000004 0.197 -0.41600000000000004 Q 0.163 -0.41600000000000004 0.137 -0.308 Q 0.132 -0.289 0.1275 -0.28550000000000003 Q 0.123 -0.28200000000000003 0.105 -0.28200000000000003 Q 0.077 -0.28200000000000003 0.077 -0.296 Q 0.077 -0.303 0.088 -0.337 Q 0.099 -0.371 0.116 -0.398 Q 0.151 -0.452 0.201 -0.452 Q 0.221 -0.452 0.2405 -0.447 Q 0.26 -0.442 0.28200000000000003 -0.4255 Q 0.304 -0.40900000000000003 0.313 -0.383 Q 0.379 -0.452 0.466 -0.452 Q 0.604 -0.452 0.604 -0.339 Q 0.604 -0.28300000000000003 0.545 -0.127 Q 0.522 -0.067 0.522 -0.046 Q 0.522 -0.028 0.536 -0.028 Q 0.591 -0.028 0.628 -0.149 Q 0.631 -0.158 0.6355000000000001 -0.16 Q 0.64 -0.162 0.656 -0.162 Q 0.684 -0.162 0.684 -0.148 Q 0.684 -0.138 0.674 -0.1145 Q 0.664 -0.091 0.647 -0.0625 Q 0.63 -0.034 0.5985 -0.013000000000000001 Q 0.5670000000000001 0.008 0.531 0.008 Q 0.488 0.008 0.457 -0.0165 Q 0.426 -0.041 0.426 -0.081 Q 0.426 -0.098 0.438 -0.131 Q 0.502 -0.291 0.502 -0.359 Q 0.502 -0.41600000000000004 0.459 -0.41600000000000004 Q 0.418 -0.41600000000000004 0.3815 -0.3905 Q 0.34500000000000003 -0.365 0.327 -0.3385 Q 0.309 -0.312 0.305 -0.294 Z"/></g></g><g transform="scale(19,19)"><g transform="translate(21.94736842105263,34.904971315789474)"><path fill="rgb(0,0,0)" stroke="none" paint-order="stroke fill markers" d=" M 0.311 -0.318 L 0.243 -0.046 Q 0.23800000000000002 -0.028 0.229 -0.016 Q 0.22 -0.004 0.209 0.0005 Q 0.198 0.005 0.1915 0.006500000000000001 Q 0.185 0.008 0.18 0.008 Q 0.162 0.008 0.1485 -0.003 Q 0.135 -0.014 0.135 -0.035 Q 0.135 -0.042 0.139 -0.057 L 0.21 -0.342 Q 0.216 -0.366 0.216 -0.385 Q 0.216 -0.41600000000000004 0.197 -0.41600000000000004 Q 0.163 -0.41600000000000004 0.137 -0.308 Q 0.132 -0.289 0.1275 -0.28550000000000003 Q 0.123 -0.28200000000000003 0.105 -0.28200000000000003 Q 0.077 -0.28200000000000003 0.077 -0.296 Q 0.077 -0.303 0.088 -0.337 Q 0.099 -0.371 0.116 -0.398 Q 0.151 -0.452 0.201 -0.452 Q 0.23700000000000002 -0.452 0.2655 -0.437 Q 0.294 -0.422 0.307 -0.398 Q 0.361 -0.452 0.435 -0.452 Q 0.49 -0.452 0.526 -0.427 Q 0.562 -0.402 0.562 -0.363 Q 0.562 -0.33 0.5405 -0.308 Q 0.519 -0.28600000000000003 0.49 -0.28600000000000003 Q 0.467 -0.28600000000000003 0.4535 -0.2995 Q 0.44 -0.313 0.44 -0.332 Q 0.44 -0.338 0.4415 -0.34700000000000003 Q 0.443 -0.356 0.4545 -0.373 Q 0.466 -0.39 0.487 -0.399 Q 0.466 -0.41600000000000004 0.432 -0.41600000000000004 Q 0.386 -0.41600000000000004 0.352 -0.3805 Q 0.318 -0.34500000000000003 0.311 -0.318 Z"/></g><g transform="translate(22.893479421052632,34.904971315789474)"><path fill="rgb(0,0,0)" stroke="none" paint-order="stroke fill markers" d=" M 0.092 0.131 L 0.21 -0.342 Q 0.216 -0.366 0.216 -0.385 Q 0.216 -0.41600000000000004 0.197 -0.41600000000000004 Q 0.163 -0.41600000000000004 0.137 -0.308 Q 0.132 -0.289 0.1275 -0.28550000000000003 Q 0.123 -0.28200000000000003 0.105 -0.28200000000000003 Q 0.077 -0.28200000000000003 0.077 -0.296 Q 0.077 -0.303 0.088 -0.337 Q 0.099 -0.371 0.116 -0.398 Q 0.151 -0.452 0.201 -0.452 Q 0.233 -0.452 0.262 -0.439 Q 0.291 -0.426 0.304 -0.401 Q 0.368 -0.452 0.436 -0.452 Q 0.502 -0.452 0.549 -0.41300000000000003 Q 0.596 -0.374 0.596 -0.292 Q 0.596 -0.223 0.5650000000000001 -0.155 Q 0.534 -0.08700000000000001 0.47100000000000003 -0.0395 Q 0.40800000000000003 0.008 0.328 0.008 Q 0.274 0.008 0.23700000000000002 -0.024 L 0.195 0.146 Q 0.20800000000000002 0.147 0.23800000000000002 0.147 Q 0.265 0.147 0.265 0.165 Q 0.265 0.194 0.23800000000000002 0.194 Q 0.221 0.194 0.186 0.1925 Q 0.151 0.191 0.133 0.191 Q 0.11800000000000001 0.191 0.088 0.1925 Q 0.058 0.194 0.044 0.194 Q 0.025 0.194 0.025 0.176 Q 0.025 0.163 0.0305 0.156 Q 0.036000000000000004 0.149 0.0415 0.148 Q 0.047 0.147 0.057 0.147 Q 0.079 0.147 0.084 0.1445 Q 0.089 0.14200000000000002 0.092 0.131 M 0.313 -0.326 L 0.254 -0.09 Q 0.271 -0.028 0.328 -0.028 Q 0.356 -0.028 0.3885 -0.052000000000000005 Q 0.421 -0.076 0.443 -0.14 Q 0.454 -0.169 0.47150000000000003 -0.23900000000000002 Q 0.489 -0.309 0.489 -0.34500000000000003 Q 0.489 -0.383 0.47150000000000003 -0.3995 Q 0.454 -0.41600000000000004 0.432 -0.41600000000000004 Q 0.37 -0.41600000000000004 0.316 -0.34400000000000003 Q 0.314 -0.331 0.313 -0.326 Z"/></g><g transform="translate(23.42569642105263,34.904971315789474)"><path fill="rgb(0,0,0)" stroke="none" paint-order="stroke fill markers" d=" M 0.274 -0.218 L 0.234 -0.218 Q 0.218 -0.158 0.218 -0.12 Q 0.218 -0.028 0.303 -0.028 Q 0.418 -0.028 0.492 -0.111 Q 0.499 -0.11800000000000001 0.506 -0.11800000000000001 Q 0.513 -0.11800000000000001 0.5245 -0.105 Q 0.536 -0.092 0.536 -0.08600000000000001 Q 0.536 -0.075 0.508 -0.051500000000000004 Q 0.48 -0.028 0.443 -0.014 Q 0.384 0.008 0.302 0.008 Q 0.209 0.008 0.1595 -0.0385 Q 0.11 -0.085 0.11 -0.167 Q 0.11 -0.28500000000000003 0.1925 -0.3685 Q 0.275 -0.452 0.402 -0.452 Q 0.459 -0.452 0.4955 -0.426 Q 0.532 -0.4 0.532 -0.356 Q 0.532 -0.218 0.274 -0.218 M 0.243 -0.254 Q 0.467 -0.254 0.467 -0.357 Q 0.467 -0.382 0.4495 -0.399 Q 0.432 -0.41600000000000004 0.402 -0.41600000000000004 Q 0.337 -0.41600000000000004 0.296 -0.366 Q 0.276 -0.34400000000000003 0.2655 -0.3205 Q 0.255 -0.297 0.243 -0.254 Z"/></g><g transform="translate(23.89902542105263,34.904971315789474)"><path fill="rgb(0,0,0)" stroke="none" paint-order="stroke fill markers" d=" M 0.559 -0.372 L 0.492 -0.10200000000000001 Q 0.486 -0.078 0.486 -0.059000000000000004 Q 0.486 -0.028 0.505 -0.028 Q 0.539 -0.028 0.5650000000000001 -0.136 Q 0.5700000000000001 -0.155 0.5745 -0.1585 Q 0.579 -0.162 0.597 -0.162 Q 0.625 -0.162 0.625 -0.148 Q 0.625 -0.14100000000000001 0.614 -0.107 Q 0.603 -0.073 0.586 -0.046 Q 0.551 0.008 0.501 0.008 Q 0.46900000000000003 0.008 0.44 -0.005 Q 0.41100000000000003 -0.018000000000000002 0.398 -0.043000000000000003 Q 0.334 0.008 0.266 0.008 Q 0.2 0.008 0.153 -0.031 Q 0.106 -0.07 0.106 -0.152 Q 0.106 -0.221 0.137 -0.289 Q 0.168 -0.357 0.231 -0.4045 Q 0.294 -0.452 0.374 -0.452 Q 0.434 -0.452 0.47100000000000003 -0.41400000000000003 Q 0.492 -0.435 0.518 -0.435 Q 0.538 -0.435 0.5505 -0.423 Q 0.5630000000000001 -0.41100000000000003 0.5630000000000001 -0.393 Q 0.5630000000000001 -0.387 0.559 -0.372 M 0.389 -0.11800000000000001 L 0.448 -0.354 Q 0.431 -0.41600000000000004 0.374 -0.41600000000000004 Q 0.34600000000000003 -0.41600000000000004 0.3135 -0.392 Q 0.281 -0.368 0.259 -0.304 Q 0.248 -0.275 0.2305 -0.20500000000000002 Q 0.213 -0.135 0.213 -0.099 Q 0.213 -0.061 0.2305 -0.0445 Q 0.248 -0.028 0.27 -0.028 Q 0.332 -0.028 0.386 -0.1 Q 0.388 -0.113 0.389 -0.11800000000000001 Z"/></g><g transform="translate(24.49013042105263,34.904971315789474)"><path fill="rgb(0,0,0)" stroke="none" paint-order="stroke fill markers" d=" M 0.338 -0.66 L 0.241 -0.274 Q 0.274 -0.295 0.322 -0.34500000000000003 Q 0.374 -0.4 0.41250000000000003 -0.426 Q 0.451 -0.452 0.491 -0.452 Q 0.529 -0.452 0.5455 -0.427 Q 0.562 -0.402 0.562 -0.373 Q 0.562 -0.328 0.539 -0.307 Q 0.516 -0.28600000000000003 0.489 -0.28600000000000003 Q 0.466 -0.28600000000000003 0.4525 -0.2995 Q 0.439 -0.313 0.439 -0.332 Q 0.439 -0.358 0.4575 -0.379 Q 0.47600000000000003 -0.4 0.506 -0.404 Q 0.503 -0.41600000000000004 0.488 -0.41600000000000004 Q 0.429 -0.41600000000000004 0.339 -0.315 L 0.328 -0.304 Q 0.318 -0.294 0.3005 -0.278 Q 0.28300000000000003 -0.262 0.267 -0.251 Q 0.425 -0.233 0.425 -0.14400000000000002 Q 0.425 -0.134 0.421 -0.114 Q 0.41300000000000003 -0.082 0.41300000000000003 -0.062 Q 0.41300000000000003 -0.028 0.435 -0.028 Q 0.47900000000000004 -0.028 0.506 -0.135 Q 0.511 -0.155 0.5155 -0.1585 Q 0.52 -0.162 0.538 -0.162 Q 0.5660000000000001 -0.162 0.5660000000000001 -0.148 Q 0.5660000000000001 -0.14200000000000002 0.5585 -0.11950000000000001 Q 0.551 -0.097 0.5365 -0.0675 Q 0.522 -0.038 0.4935 -0.015 Q 0.465 0.008 0.43 0.008 Q 0.38 0.008 0.34600000000000003 -0.021 Q 0.312 -0.05 0.312 -0.094 Q 0.312 -0.106 0.315 -0.11900000000000001 Q 0.318 -0.13 0.318 -0.14 Q 0.318 -0.199 0.226 -0.214 Q 0.182 -0.036000000000000004 0.181 -0.033 Q 0.17300000000000001 -0.013000000000000001 0.156 -0.0025 Q 0.139 0.008 0.122 0.008 Q 0.10200000000000001 0.008 0.089 -0.004 Q 0.076 -0.016 0.076 -0.035 Q 0.076 -0.042 0.08 -0.057 L 0.224 -0.637 Q 0.2 -0.639 0.182 -0.639 Q 0.155 -0.639 0.155 -0.657 Q 0.155 -0.667 0.1575 -0.6735 Q 0.16 -0.68 0.1665 -0.6825 Q 0.17300000000000001 -0.685 0.176 -0.6855 Q 0.179 -0.686 0.186 -0.687 L 0.309 -0.6930000000000001 Q 0.341 -0.6950000000000001 0.341 -0.676 Q 0.341 -0.675 0.338 -0.66 Z"/></g><g transform="translate(25.02234742105263,34.904971315789474)"><path fill="rgb(0,0,0)" stroke="none" paint-order="stroke fill markers" d=" M 0.418 -0.392 Q 0.395 -0.41600000000000004 0.34900000000000003 -0.41600000000000004 Q 0.319 -0.41600000000000004 0.2975 -0.40750000000000003 Q 0.276 -0.399 0.266 -0.389 Q 0.256 -0.379 0.25 -0.3655 Q 0.244 -0.352 0.2435 -0.34650000000000003 Q 0.243 -0.341 0.243 -0.338 Q 0.243 -0.321 0.256 -0.3095 Q 0.269 -0.298 0.281 -0.2945 Q 0.293 -0.291 0.314 -0.28700000000000003 Q 0.359 -0.278 0.38 -0.2715 Q 0.401 -0.265 0.421 -0.249 Q 0.465 -0.215 0.465 -0.164 Q 0.465 -0.134 0.4465 -0.095 Q 0.428 -0.056 0.393 -0.031 Q 0.338 0.008 0.247 0.008 Q 0.17300000000000001 0.008 0.129 -0.018000000000000002 Q 0.085 -0.044 0.085 -0.091 Q 0.085 -0.126 0.1065 -0.1475 Q 0.128 -0.169 0.157 -0.169 Q 0.17500000000000002 -0.169 0.1905 -0.1585 Q 0.20600000000000002 -0.148 0.20600000000000002 -0.123 Q 0.20600000000000002 -0.076 0.157 -0.055 Q 0.19 -0.028 0.25 -0.028 Q 0.289 -0.028 0.3175 -0.0385 Q 0.34600000000000003 -0.049 0.359 -0.0615 Q 0.372 -0.074 0.3795 -0.0905 Q 0.387 -0.107 0.388 -0.1135 Q 0.389 -0.12 0.389 -0.124 Q 0.389 -0.14 0.381 -0.1515 Q 0.373 -0.163 0.355 -0.1705 Q 0.337 -0.178 0.3235 -0.1815 Q 0.31 -0.185 0.28400000000000003 -0.19 Q 0.167 -0.213 0.167 -0.298 Q 0.167 -0.323 0.182 -0.3565 Q 0.197 -0.39 0.22 -0.41000000000000003 Q 0.27 -0.452 0.35100000000000003 -0.452 Q 0.41100000000000003 -0.452 0.4485 -0.4285 Q 0.486 -0.405 0.486 -0.364 Q 0.486 -0.331 0.466 -0.313 Q 0.446 -0.295 0.424 -0.295 Q 0.405 -0.295 0.3925 -0.3065 Q 0.38 -0.318 0.38 -0.336 Q 0.38 -0.375 0.418 -0.392 Z"/></g></g><g transform="scale(19,19)"><g transform="translate(56.73684210526316,27.11430763157895)"><path fill="rgb(0,0,0)" stroke="none" paint-order="stroke fill markers" d=" M 0.311 -0.318 L 0.243 -0.046 Q 0.23800000000000002 -0.028 0.229 -0.016 Q 0.22 -0.004 0.209 0.0005 Q 0.198 0.005 0.1915 0.006500000000000001 Q 0.185 0.008 0.18 0.008 Q 0.162 0.008 0.1485 -0.003 Q 0.135 -0.014 0.135 -0.035 Q 0.135 -0.042 0.139 -0.057 L 0.21 -0.342 Q 0.216 -0.366 0.216 -0.385 Q 0.216 -0.41600000000000004 0.197 -0.41600000000000004 Q 0.163 -0.41600000000000004 0.137 -0.308 Q 0.132 -0.289 0.1275 -0.28550000000000003 Q 0.123 -0.28200000000000003 0.105 -0.28200000000000003 Q 0.077 -0.28200000000000003 0.077 -0.296 Q 0.077 -0.303 0.088 -0.337 Q 0.099 -0.371 0.116 -0.398 Q 0.151 -0.452 0.201 -0.452 Q 0.23700000000000002 -0.452 0.2655 -0.437 Q 0.294 -0.422 0.307 -0.398 Q 0.361 -0.452 0.435 -0.452 Q 0.49 -0.452 0.526 -0.427 Q 0.562 -0.402 0.562 -0.363 Q 0.562 -0.33 0.5405 -0.308 Q 0.519 -0.28600000000000003 0.49 -0.28600000000000003 Q 0.467 -0.28600000000000003 0.4535 -0.2995 Q 0.44 -0.313 0.44 -0.332 Q 0.44 -0.338 0.4415 -0.34700000000000003 Q 0.443 -0.356 0.4545 -0.373 Q 0.466 -0.39 0.487 -0.399 Q 0.466 -0.41600000000000004 0.432 -0.41600000000000004 Q 0.386 -0.41600000000000004 0.352 -0.3805 Q 0.318 -0.34500000000000003 0.311 -0.318 Z"/></g><g transform="translate(57.571841994152045,27.11430763157895)"><path fill="rgb(0,0,0)" stroke="none" paint-order="stroke fill markers" d=" M 0.752 -0.22 L 0.14100000000000001 -0.22 Q 0.096 -0.22 0.096 -0.251 Q 0.096 -0.281 0.14100000000000001 -0.281 L 0.752 -0.281 Q 0.797 -0.281 0.797 -0.25 Q 0.797 -0.22 0.752 -0.22 Z"/></g><g transform="translate(58.688504883040935,27.11430763157895)"><path fill="rgb(0,0,0)" stroke="none" paint-order="stroke fill markers" d=" M 0.515 -0.63 L 0.37 -0.05 Q 0.397 -0.047 0.429 -0.047 L 0.462 -0.047 Q 0.494 -0.047 0.494 -0.029 Q 0.494 0 0.464 0 Q 0.438 0 0.3835 -0.0015 Q 0.329 -0.003 0.302 -0.003 Q 0.276 -0.003 0.2235 -0.0015 Q 0.171 0 0.146 0 Q 0.124 0 0.124 -0.018000000000000002 Q 0.124 -0.032 0.1295 -0.0385 Q 0.135 -0.045 0.14100000000000001 -0.046 Q 0.147 -0.047 0.159 -0.047 L 0.19 -0.047 Q 0.22 -0.047 0.234 -0.049 Q 0.25 -0.05 0.254 -0.053 Q 0.258 -0.056 0.261 -0.067 L 0.373 -0.514 Q 0.311 -0.485 0.256 -0.485 Q 0.233 -0.485 0.233 -0.504 Q 0.233 -0.529 0.258 -0.532 Q 0.384 -0.541 0.47700000000000004 -0.65 Q 0.488 -0.661 0.497 -0.661 Q 0.509 -0.661 0.5135 -0.6545 Q 0.518 -0.648 0.518 -0.643 Q 0.518 -0.639 0.515 -0.63 Z"/></g><g transform="translate(59.411275883040936,27.11430763157895)"><path fill="rgb(0,0,0)" stroke="none" paint-order="stroke fill markers" d=" M 0.418 -0.392 Q 0.395 -0.41600000000000004 0.34900000000000003 -0.41600000000000004 Q 0.319 -0.41600000000000004 0.2975 -0.40750000000000003 Q 0.276 -0.399 0.266 -0.389 Q 0.256 -0.379 0.25 -0.3655 Q 0.244 -0.352 0.2435 -0.34650000000000003 Q 0.243 -0.341 0.243 -0.338 Q 0.243 -0.321 0.256 -0.3095 Q 0.269 -0.298 0.281 -0.2945 Q 0.293 -0.291 0.314 -0.28700000000000003 Q 0.359 -0.278 0.38 -0.2715 Q 0.401 -0.265 0.421 -0.249 Q 0.465 -0.215 0.465 -0.164 Q 0.465 -0.134 0.4465 -0.095 Q 0.428 -0.056 0.393 -0.031 Q 0.338 0.008 0.247 0.008 Q 0.17300000000000001 0.008 0.129 -0.018000000000000002 Q 0.085 -0.044 0.085 -0.091 Q 0.085 -0.126 0.1065 -0.1475 Q 0.128 -0.169 0.157 -0.169 Q 0.17500000000000002 -0.169 0.1905 -0.1585 Q 0.20600000000000002 -0.148 0.20600000000000002 -0.123 Q 0.20600000000000002 -0.076 0.157 -0.055 Q 0.19 -0.028 0.25 -0.028 Q 0.289 -0.028 0.3175 -0.0385 Q 0.34600000000000003 -0.049 0.359 -0.0615 Q 0.372 -0.074 0.3795 -0.0905 Q 0.387 -0.107 0.388 -0.1135 Q 0.389 -0.12 0.389 -0.124 Q 0.389 -0.14 0.381 -0.1515 Q 0.373 -0.163 0.355 -0.1705 Q 0.337 -0.178 0.3235 -0.1815 Q 0.31 -0.185 0.28400000000000003 -0.19 Q 0.167 -0.213 0.167 -0.298 Q 0.167 -0.323 0.182 -0.3565 Q 0.197 -0.39 0.22 -0.41000000000000003 Q 0.27 -0.452 0.35100000000000003 -0.452 Q 0.41100000000000003 -0.452 0.4485 -0.4285 Q 0.486 -0.405 0.486 -0.364 Q 0.486 -0.331 0.466 -0.313 Q 0.446 -0.295 0.424 -0.295 Q 0.405 -0.295 0.3925 -0.3065 Q 0.38 -0.318 0.38 -0.336 Q 0.38 -0.375 0.418 -0.392 Z"/></g><g transform="translate(59.89821688304094,27.11430763157895)"><path fill="rgb(0,0,0)" stroke="none" paint-order="stroke fill markers" d=" M 0.274 -0.218 L 0.234 -0.218 Q 0.218 -0.158 0.218 -0.12 Q 0.218 -0.028 0.303 -0.028 Q 0.418 -0.028 0.492 -0.111 Q 0.499 -0.11800000000000001 0.506 -0.11800000000000001 Q 0.513 -0.11800000000000001 0.5245 -0.105 Q 0.536 -0.092 0.536 -0.08600000000000001 Q 0.536 -0.075 0.508 -0.051500000000000004 Q 0.48 -0.028 0.443 -0.014 Q 0.384 0.008 0.302 0.008 Q 0.209 0.008 0.1595 -0.0385 Q 0.11 -0.085 0.11 -0.167 Q 0.11 -0.28500000000000003 0.1925 -0.3685 Q 0.275 -0.452 0.402 -0.452 Q 0.459 -0.452 0.4955 -0.426 Q 0.532 -0.4 0.532 -0.356 Q 0.532 -0.218 0.274 -0.218 M 0.243 -0.254 Q 0.467 -0.254 0.467 -0.357 Q 0.467 -0.382 0.4495 -0.399 Q 0.432 -0.41600000000000004 0.402 -0.41600000000000004 Q 0.337 -0.41600000000000004 0.296 -0.366 Q 0.276 -0.34400000000000003 0.2655 -0.3205 Q 0.255 -0.297 0.243 -0.254 Z"/></g><g transform="translate(60.43043388304094,27.11430763157895)"><path fill="rgb(0,0,0)" stroke="none" paint-order="stroke fill markers" d=" M 0.092 0.131 L 0.21 -0.342 Q 0.216 -0.366 0.216 -0.385 Q 0.216 -0.41600000000000004 0.197 -0.41600000000000004 Q 0.163 -0.41600000000000004 0.137 -0.308 Q 0.132 -0.289 0.1275 -0.28550000000000003 Q 0.123 -0.28200000000000003 0.105 -0.28200000000000003 Q 0.077 -0.28200000000000003 0.077 -0.296 Q 0.077 -0.303 0.088 -0.337 Q 0.099 -0.371 0.116 -0.398 Q 0.151 -0.452 0.201 -0.452 Q 0.233 -0.452 0.262 -0.439 Q 0.291 -0.426 0.304 -0.401 Q 0.368 -0.452 0.436 -0.452 Q 0.502 -0.452 0.549 -0.41300000000000003 Q 0.596 -0.374 0.596 -0.292 Q 0.596 -0.223 0.5650000000000001 -0.155 Q 0.534 -0.08700000000000001 0.47100000000000003 -0.0395 Q 0.40800000000000003 0.008 0.328 0.008 Q 0.274 0.008 0.23700000000000002 -0.024 L 0.195 0.146 Q 0.20800000000000002 0.147 0.23800000000000002 0.147 Q 0.265 0.147 0.265 0.165 Q 0.265 0.194 0.23800000000000002 0.194 Q 0.221 0.194 0.186 0.1925 Q 0.151 0.191 0.133 0.191 Q 0.11800000000000001 0.191 0.088 0.1925 Q 0.058 0.194 0.044 0.194 Q 0.025 0.194 0.025 0.176 Q 0.025 0.163 0.0305 0.156 Q 0.036000000000000004 0.149 0.0415 0.148 Q 0.047 0.147 0.057 0.147 Q 0.079 0.147 0.084 0.1445 Q 0.089 0.14200000000000002 0.092 0.131 M 0.313 -0.326 L 0.254 -0.09 Q 0.271 -0.028 0.328 -0.028 Q 0.356 -0.028 0.3885 -0.052000000000000005 Q 0.421 -0.076 0.443 -0.14 Q 0.454 -0.169 0.47150000000000003 -0.23900000000000002 Q 0.489 -0.309 0.489 -0.34500000000000003 Q 0.489 -0.383 0.47150000000000003 -0.3995 Q 0.454 -0.41600000000000004 0.432 -0.41600000000000004 Q 0.37 -0.41600000000000004 0.316 -0.34400000000000003 Q 0.314 -0.331 0.313 -0.326 Z"/></g><g transform="translate(60.962650883040936,27.11430763157895)"><path fill="rgb(0,0,0)" stroke="none" paint-order="stroke fill markers" d=" M 0.559 -0.372 L 0.492 -0.10200000000000001 Q 0.486 -0.078 0.486 -0.059000000000000004 Q 0.486 -0.028 0.505 -0.028 Q 0.539 -0.028 0.5650000000000001 -0.136 Q 0.5700000000000001 -0.155 0.5745 -0.1585 Q 0.579 -0.162 0.597 -0.162 Q 0.625 -0.162 0.625 -0.148 Q 0.625 -0.14100000000000001 0.614 -0.107 Q 0.603 -0.073 0.586 -0.046 Q 0.551 0.008 0.501 0.008 Q 0.46900000000000003 0.008 0.44 -0.005 Q 0.41100000000000003 -0.018000000000000002 0.398 -0.043000000000000003 Q 0.334 0.008 0.266 0.008 Q 0.2 0.008 0.153 -0.031 Q 0.106 -0.07 0.106 -0.152 Q 0.106 -0.221 0.137 -0.289 Q 0.168 -0.357 0.231 -0.4045 Q 0.294 -0.452 0.374 -0.452 Q 0.434 -0.452 0.47100000000000003 -0.41400000000000003 Q 0.492 -0.435 0.518 -0.435 Q 0.538 -0.435 0.5505 -0.423 Q 0.5630000000000001 -0.41100000000000003 0.5630000000000001 -0.393 Q 0.5630000000000001 -0.387 0.559 -0.372 M 0.389 -0.11800000000000001 L 0.448 -0.354 Q 0.431 -0.41600000000000004 0.374 -0.41600000000000004 Q 0.34600000000000003 -0.41600000000000004 0.3135 -0.392 Q 0.281 -0.368 0.259 -0.304 Q 0.248 -0.275 0.2305 -0.20500000000000002 Q 0.213 -0.135 0.213 -0.099 Q 0.213 -0.061 0.2305 -0.0445 Q 0.248 -0.028 0.27 -0.028 Q 0.332 -0.028 0.386 -0.1 Q 0.388 -0.113 0.389 -0.11800000000000001 Z"/></g><g transform="translate(61.553755883040935,27.11430763157895)"><path fill="rgb(0,0,0)" stroke="none" paint-order="stroke fill markers" d=" M 0.311 -0.318 L 0.243 -0.046 Q 0.23800000000000002 -0.028 0.229 -0.016 Q 0.22 -0.004 0.209 0.0005 Q 0.198 0.005 0.1915 0.006500000000000001 Q 0.185 0.008 0.18 0.008 Q 0.162 0.008 0.1485 -0.003 Q 0.135 -0.014 0.135 -0.035 Q 0.135 -0.042 0.139 -0.057 L 0.21 -0.342 Q 0.216 -0.366 0.216 -0.385 Q 0.216 -0.41600000000000004 0.197 -0.41600000000000004 Q 0.163 -0.41600000000000004 0.137 -0.308 Q 0.132 -0.289 0.1275 -0.28550000000000003 Q 0.123 -0.28200000000000003 0.105 -0.28200000000000003 Q 0.077 -0.28200000000000003 0.077 -0.296 Q 0.077 -0.303 0.088 -0.337 Q 0.099 -0.371 0.116 -0.398 Q 0.151 -0.452 0.201 -0.452 Q 0.23700000000000002 -0.452 0.2655 -0.437 Q 0.294 -0.422 0.307 -0.398 Q 0.361 -0.452 0.435 -0.452 Q 0.49 -0.452 0.526 -0.427 Q 0.562 -0.402 0.562 -0.363 Q 0.562 -0.33 0.5405 -0.308 Q 0.519 -0.28600000000000003 0.49 -0.28600000000000003 Q 0.467 -0.28600000000000003 0.4535 -0.2995 Q 0.44 -0.313 0.44 -0.332 Q 0.44 -0.338 0.4415 -0.34700000000000003 Q 0.443 -0.356 0.4545 -0.373 Q 0.466 -0.39 0.487 -0.399 Q 0.466 -0.41600000000000004 0.432 -0.41600000000000004 Q 0.386 -0.41600000000000004 0.352 -0.3805 Q 0.318 -0.34500000000000003 0.311 -0.318 Z"/></g><g transform="translate(61.996532883040935,27.11430763157895)"><path fill="rgb(0,0,0)" stroke="none" paint-order="stroke fill markers" d=" M 0.559 -0.372 L 0.492 -0.10200000000000001 Q 0.486 -0.078 0.486 -0.059000000000000004 Q 0.486 -0.028 0.505 -0.028 Q 0.539 -0.028 0.5650000000000001 -0.136 Q 0.5700000000000001 -0.155 0.5745 -0.1585 Q 0.579 -0.162 0.597 -0.162 Q 0.625 -0.162 0.625 -0.148 Q 0.625 -0.14100000000000001 0.614 -0.107 Q 0.603 -0.073 0.586 -0.046 Q 0.551 0.008 0.501 0.008 Q 0.46900000000000003 0.008 0.44 -0.005 Q 0.41100000000000003 -0.018000000000000002 0.398 -0.043000000000000003 Q 0.334 0.008 0.266 0.008 Q 0.2 0.008 0.153 -0.031 Q 0.106 -0.07 0.106 -0.152 Q 0.106 -0.221 0.137 -0.289 Q 0.168 -0.357 0.231 -0.4045 Q 0.294 -0.452 0.374 -0.452 Q 0.434 -0.452 0.47100000000000003 -0.41400000000000003 Q 0.492 -0.435 0.518 -0.435 Q 0.538 -0.435 0.5505 -0.423 Q 0.5630000000000001 -0.41100000000000003 0.5630000000000001 -0.393 Q 0.5630000000000001 -0.387 0.559 -0.372 M 0.389 -0.11800000000000001 L 0.448 -0.354 Q 0.431 -0.41600000000000004 0.374 -0.41600000000000004 Q 0.34600000000000003 -0.41600000000000004 0.3135 -0.392 Q 0.281 -0.368 0.259 -0.304 Q 0.248 -0.275 0.2305 -0.20500000000000002 Q 0.213 -0.135 0.213 -0.099 Q 0.213 -0.061 0.2305 -0.0445 Q 0.248 -0.028 0.27 -0.028 Q 0.332 -0.028 0.386 -0.1 Q 0.388 -0.113 0.389 -0.11800000000000001 Z"/></g><g transform="translate(62.587637883040934,27.11430763157895)"><path fill="rgb(0,0,0)" stroke="none" paint-order="stroke fill markers" d=" M 0.302 -0.397 L 0.228 -0.10200000000000001 Q 0.222 -0.078 0.222 -0.059000000000000004 Q 0.222 -0.039 0.228 -0.0335 Q 0.234 -0.028 0.243 -0.028 Q 0.269 -0.028 0.3005 -0.0535 Q 0.332 -0.079 0.36 -0.145 Q 0.366 -0.157 0.3705 -0.1595 Q 0.375 -0.162 0.391 -0.162 Q 0.419 -0.162 0.419 -0.148 Q 0.419 -0.14200000000000002 0.41150000000000003 -0.1255 Q 0.404 -0.109 0.388 -0.08600000000000001 Q 0.372 -0.063 0.35150000000000003 -0.042 Q 0.331 -0.021 0.3005 -0.006500000000000001 Q 0.27 0.008 0.23800000000000002 0.008 Q 0.19 0.008 0.1555 -0.018000000000000002 Q 0.121 -0.044 0.121 -0.089 Q 0.121 -0.10200000000000001 0.125 -0.11800000000000001 L 0.195 -0.397 L 0.123 -0.397 Q 0.091 -0.397 0.091 -0.41500000000000004 Q 0.091 -0.429 0.0965 -0.4355 Q 0.10200000000000001 -0.442 0.108 -0.443 Q 0.114 -0.444 0.126 -0.444 L 0.20700000000000002 -0.444 L 0.243 -0.59 Q 0.248 -0.611 0.262 -0.624 Q 0.276 -0.637 0.28650000000000003 -0.64 Q 0.297 -0.643 0.306 -0.643 Q 0.326 -0.643 0.3385 -0.631 Q 0.35100000000000003 -0.619 0.35100000000000003 -0.601 Q 0.35100000000000003 -0.59 0.333 -0.523 Q 0.327 -0.501 0.314 -0.444 L 0.385 -0.444 Q 0.41600000000000004 -0.444 0.41600000000000004 -0.426 Q 0.41600000000000004 -0.41200000000000003 0.41050000000000003 -0.4055 Q 0.405 -0.399 0.399 -0.398 Q 0.393 -0.397 0.382 -0.397 L 0.302 -0.397 Z"/></g><g transform="translate(62.97263488304093,27.11430763157895)"><path fill="rgb(0,0,0)" stroke="none" paint-order="stroke fill markers" d=" M 0.372 -0.646 Q 0.372 -0.62 0.35050000000000003 -0.5985 Q 0.329 -0.577 0.301 -0.577 Q 0.28 -0.577 0.266 -0.5905 Q 0.252 -0.604 0.252 -0.625 Q 0.252 -0.651 0.2735 -0.6725 Q 0.295 -0.6940000000000001 0.323 -0.6940000000000001 Q 0.34500000000000003 -0.6940000000000001 0.3585 -0.68 Q 0.372 -0.666 0.372 -0.646 M 0.14100000000000001 -0.12 L 0.231 -0.358 Q 0.23900000000000002 -0.374 0.23900000000000002 -0.398 Q 0.23900000000000002 -0.41600000000000004 0.225 -0.41600000000000004 Q 0.17 -0.41600000000000004 0.133 -0.295 Q 0.13 -0.28600000000000003 0.125 -0.28400000000000003 Q 0.12 -0.28200000000000003 0.105 -0.28200000000000003 Q 0.077 -0.28200000000000003 0.077 -0.296 Q 0.077 -0.306 0.08700000000000001 -0.3295 Q 0.097 -0.353 0.114 -0.3815 Q 0.131 -0.41000000000000003 0.1625 -0.431 Q 0.194 -0.452 0.23 -0.452 Q 0.273 -0.452 0.304 -0.4275 Q 0.335 -0.403 0.335 -0.363 Q 0.335 -0.34800000000000003 0.326 -0.324 L 0.23600000000000002 -0.08600000000000001 Q 0.228 -0.07 0.228 -0.046 Q 0.228 -0.028 0.242 -0.028 Q 0.297 -0.028 0.334 -0.149 Q 0.337 -0.158 0.3415 -0.16 Q 0.34600000000000003 -0.162 0.362 -0.162 Q 0.39 -0.162 0.39 -0.148 Q 0.39 -0.138 0.38 -0.1145 Q 0.37 -0.091 0.353 -0.0625 Q 0.336 -0.034 0.3045 -0.013000000000000001 Q 0.273 0.008 0.23700000000000002 0.008 Q 0.194 0.008 0.163 -0.0165 Q 0.132 -0.041 0.132 -0.081 Q 0.132 -0.096 0.14100000000000001 -0.12 Z"/></g><g transform="translate(63.32818788304093,27.11430763157895)"><path fill="rgb(0,0,0)" stroke="none" paint-order="stroke fill markers" d=" M 0.595 -0.28400000000000003 Q 0.595 -0.23500000000000001 0.5755 -0.185 Q 0.556 -0.135 0.5205 -0.091 Q 0.485 -0.047 0.4265 -0.0195 Q 0.368 0.008 0.297 0.008 Q 0.20800000000000002 0.008 0.1575 -0.037 Q 0.107 -0.082 0.107 -0.16 Q 0.107 -0.20800000000000002 0.1265 -0.2585 Q 0.146 -0.309 0.1815 -0.3525 Q 0.217 -0.396 0.2755 -0.424 Q 0.334 -0.452 0.405 -0.452 Q 0.494 -0.452 0.5445 -0.40700000000000003 Q 0.595 -0.362 0.595 -0.28400000000000003 M 0.299 -0.028 Q 0.339 -0.028 0.3765 -0.053 Q 0.41400000000000003 -0.078 0.435 -0.124 Q 0.453 -0.162 0.46950000000000003 -0.2295 Q 0.486 -0.297 0.486 -0.328 Q 0.486 -0.376 0.461 -0.396 Q 0.436 -0.41600000000000004 0.403 -0.41600000000000004 Q 0.363 -0.41600000000000004 0.3255 -0.391 Q 0.28800000000000003 -0.366 0.267 -0.32 Q 0.249 -0.28200000000000003 0.2325 -0.2145 Q 0.216 -0.147 0.216 -0.116 Q 0.216 -0.068 0.241 -0.048 Q 0.266 -0.028 0.299 -0.028 Z"/></g><g transform="translate(63.91929288304093,27.11430763157895)"><path fill="rgb(0,0,0)" stroke="none" paint-order="stroke fill markers" d=" M 0.305 -0.294 L 0.243 -0.046 Q 0.23800000000000002 -0.028 0.229 -0.016 Q 0.22 -0.004 0.209 0.0005 Q 0.198 0.005 0.1915 0.006500000000000001 Q 0.185 0.008 0.18 0.008 Q 0.162 0.008 0.1485 -0.003 Q 0.135 -0.014 0.135 -0.035 Q 0.135 -0.042 0.139 -0.057 L 0.21 -0.342 Q 0.216 -0.366 0.216 -0.385 Q 0.216 -0.41600000000000004 0.197 -0.41600000000000004 Q 0.163 -0.41600000000000004 0.137 -0.308 Q 0.132 -0.289 0.1275 -0.28550000000000003 Q 0.123 -0.28200000000000003 0.105 -0.28200000000000003 Q 0.077 -0.28200000000000003 0.077 -0.296 Q 0.077 -0.303 0.088 -0.337 Q 0.099 -0.371 0.116 -0.398 Q 0.151 -0.452 0.201 -0.452 Q 0.221 -0.452 0.2405 -0.447 Q 0.26 -0.442 0.28200000000000003 -0.4255 Q 0.304 -0.40900000000000003 0.313 -0.383 Q 0.379 -0.452 0.466 -0.452 Q 0.604 -0.452 0.604 -0.339 Q 0.604 -0.28300000000000003 0.545 -0.127 Q 0.522 -0.067 0.522 -0.046 Q 0.522 -0.028 0.536 -0.028 Q 0.591 -0.028 0.628 -0.149 Q 0.631 -0.158 0.6355000000000001 -0.16 Q 0.64 -0.162 0.656 -0.162 Q 0.684 -0.162 0.684 -0.148 Q 0.684 -0.138 0.674 -0.1145 Q 0.664 -0.091 0.647 -0.0625 Q 0.63 -0.034 0.5985 -0.013000000000000001 Q 0.5670000000000001 0.008 0.531 0.008 Q 0.488 0.008 0.457 -0.0165 Q 0.426 -0.041 0.426 -0.081 Q 0.426 -0.098 0.438 -0.131 Q 0.502 -0.291 0.502 -0.359 Q 0.502 -0.41600000000000004 0.459 -0.41600000000000004 Q 0.418 -0.41600000000000004 0.3815 -0.3905 Q 0.34500000000000003 -0.365 0.327 -0.3385 Q 0.309 -0.312 0.305 -0.294 Z"/></g></g></g></g></svg>